<svg width="152" height="42" viewBox="0 0 152 42" fill="none" xmlns="http://www.w3.org/2000/svg">
<path d="M76.2338 41.95C71.8782 41.95 66.2755 33.5752 64.6621 31.0084C55.5528 16.8737 52.7566 0.157148 76.2341 0C99.7114 0.158951 96.9151 16.8727 87.8052 31.0083C86.1921 33.5752 80.5894 41.95 76.2338 41.95Z" fill="#AC8E64"/>
<path d="M80.2051 34.4431C79.5303 34.2434 78.8555 34.1386 78.1816 34.0687C77.7973 34.0288 77.413 34.0028 77.0287 33.9858C77.1275 33.872 77.2263 33.7592 77.3212 33.6423C77.6146 33.2809 77.8912 32.9025 78.1217 32.4781C77.6975 32.7088 77.3192 32.9853 76.9578 33.2789C76.841 33.3738 76.7272 33.4736 76.6134 33.5725C76.5954 33.188 76.5695 32.8036 76.5296 32.4182C76.4587 31.7432 76.3549 31.0683 76.1562 30.3943C75.9576 31.0693 75.8538 31.7442 75.7829 32.4182C75.743 32.8036 75.717 33.188 75.699 33.5735C75.5852 33.4746 75.4714 33.3748 75.3546 33.2789C74.9933 32.9853 74.6149 32.7088 74.1917 32.4771C74.4223 32.9005 74.6998 33.2789 74.9933 33.6404C75.0891 33.7582 75.1889 33.871 75.2878 33.9848C74.9024 34.0028 74.5181 34.0288 74.1328 34.0687C73.458 34.1396 72.7832 34.2434 72.1094 34.4421C72.7842 34.6408 73.459 34.7447 74.1328 34.8156C74.5181 34.8555 74.9024 34.8815 75.2878 34.8994C75.1889 35.0133 75.0891 35.1271 74.9933 35.2439C74.6998 35.6054 74.4233 35.9838 74.1917 36.4071C74.6159 36.1765 74.9933 35.8989 75.3546 35.6054C75.4714 35.5105 75.5842 35.4107 75.698 35.3118C75.716 35.6962 75.742 36.0816 75.7809 36.4661C75.8508 37.141 75.9556 37.816 76.1552 38.49C76.3549 37.815 76.4597 37.14 76.5296 36.4661C76.5695 36.0816 76.5954 35.6972 76.6124 35.3128C76.7262 35.4117 76.839 35.5105 76.9558 35.6064C77.3172 35.8999 77.6955 36.1765 78.1198 36.4071C77.8892 35.9828 77.6126 35.6044 77.3192 35.2429C77.2243 35.1261 77.1245 35.0133 77.0257 34.8994C77.41 34.8815 77.7943 34.8555 78.1786 34.8166C78.8535 34.7467 79.5283 34.6418 80.2021 34.4421L80.2051 34.4431Z" fill="white"/>
<path d="M74.3893 26.0598L71.1541 29.295L67.9442 26.0598L69.3849 24.6192V12.9928L67.9442 14.4587L65.442 12.0071L71.1541 6.29498L72.9486 8.11477V24.6192L74.3893 26.0598ZM85.5864 24.0126L80.2787 29.295L75.5776 24.6192V11.1983L80.5314 6.26971L85.5864 11.3247V24.0126ZM82.0226 22.4203V13.1192L79.1413 10.2126V23.4818L80.0765 24.3917L82.0226 22.4203Z" fill="white"/>
<path d="M65.9108 19.367C64.7176 19.0219 64.3988 18.7031 64.0537 17.51C64.0421 17.4697 63.985 17.4697 63.9732 17.51C63.6281 18.7031 63.3093 19.0219 62.1162 19.367C62.0759 19.3787 62.0759 19.4358 62.1162 19.4475C63.3093 19.7927 63.6281 20.1114 63.9732 21.3046C63.9849 21.3449 64.042 21.3449 64.0537 21.3046C64.3989 20.1114 64.7176 19.7926 65.9108 19.4475C65.9511 19.4359 65.9511 19.3788 65.9108 19.367Z" fill="white"/>
<path d="M87.8854 5.87436C86.6923 5.52926 86.3734 5.21044 86.0283 4.0173C86.0167 3.97698 85.9596 3.97698 85.9478 4.0173C85.6027 5.21044 85.2839 5.52926 84.0908 5.87436C84.0505 5.886 84.0505 5.94313 84.0908 5.95485C85.2839 6.30003 85.6027 6.61877 85.9478 7.81191C85.9595 7.85223 86.0166 7.85223 86.0283 7.81191C86.3735 6.61877 86.6923 6.29996 87.8854 5.95485C87.9257 5.94321 87.9257 5.88608 87.8854 5.87436Z" fill="white"/>
<mask id="path-6-outside-1_204_8719" maskUnits="userSpaceOnUse" x="101" y="18" width="38" height="8" fill="black">
<rect fill="white" x="101" y="18" width="38" height="8"/>
<path d="M104.743 25V22.588L104.95 23.146L102.241 18.7H103.204L105.481 22.453H104.959L107.245 18.7H108.136L105.436 23.146L105.634 22.588V25H104.743ZM110.418 25V18.7H114.864V19.483H111.318V24.217H114.99V25H110.418ZM111.237 22.183V21.418H114.477V22.183H111.237ZM116.993 25L119.846 18.7H120.737L123.599 25H122.654L120.107 19.204H120.467L117.92 25H116.993ZM118.208 23.425L118.451 22.705H121.997L122.258 23.425H118.208ZM126.039 25V18.7H128.496C129.312 18.7 129.954 18.895 130.422 19.285C130.89 19.669 131.124 20.206 131.124 20.896C131.124 21.352 131.019 21.745 130.809 22.075C130.599 22.399 130.299 22.648 129.909 22.822C129.519 22.996 129.048 23.083 128.496 23.083H126.534L126.939 22.669V25H126.039ZM130.251 25L128.649 22.714H129.612L131.232 25H130.251ZM126.939 22.759L126.534 22.318H128.469C129.045 22.318 129.48 22.195 129.774 21.949C130.074 21.697 130.224 21.346 130.224 20.896C130.224 20.446 130.074 20.098 129.774 19.852C129.48 19.606 129.045 19.483 128.469 19.483H126.534L126.939 19.033V22.759ZM135.914 25.072C135.434 25.072 134.975 25 134.537 24.856C134.099 24.706 133.754 24.514 133.502 24.28L133.835 23.578C134.075 23.788 134.381 23.962 134.753 24.1C135.125 24.238 135.512 24.307 135.914 24.307C136.28 24.307 136.577 24.265 136.805 24.181C137.033 24.097 137.201 23.983 137.309 23.839C137.417 23.689 137.471 23.521 137.471 23.335C137.471 23.119 137.399 22.945 137.255 22.813C137.117 22.681 136.934 22.576 136.706 22.498C136.484 22.414 136.238 22.342 135.968 22.282C135.698 22.222 135.425 22.153 135.149 22.075C134.879 21.991 134.63 21.886 134.402 21.76C134.18 21.634 134 21.466 133.862 21.256C133.724 21.04 133.655 20.764 133.655 20.428C133.655 20.104 133.739 19.807 133.907 19.537C134.081 19.261 134.345 19.042 134.699 18.88C135.059 18.712 135.515 18.628 136.067 18.628C136.433 18.628 136.796 18.676 137.156 18.772C137.516 18.868 137.828 19.006 138.092 19.186L137.795 19.906C137.525 19.726 137.24 19.597 136.94 19.519C136.64 19.435 136.349 19.393 136.067 19.393C135.713 19.393 135.422 19.438 135.194 19.528C134.966 19.618 134.798 19.738 134.69 19.888C134.588 20.038 134.537 20.206 134.537 20.392C134.537 20.614 134.606 20.791 134.744 20.923C134.888 21.055 135.071 21.16 135.293 21.238C135.521 21.316 135.77 21.388 136.04 21.454C136.31 21.514 136.58 21.583 136.85 21.661C137.126 21.739 137.375 21.841 137.597 21.967C137.825 22.093 138.008 22.261 138.146 22.471C138.284 22.681 138.353 22.951 138.353 23.281C138.353 23.599 138.266 23.896 138.092 24.172C137.918 24.442 137.648 24.661 137.282 24.829C136.922 24.991 136.466 25.072 135.914 25.072Z"/>
</mask>
<path d="M104.743 25V22.588L104.95 23.146L102.241 18.7H103.204L105.481 22.453H104.959L107.245 18.7H108.136L105.436 23.146L105.634 22.588V25H104.743ZM110.418 25V18.7H114.864V19.483H111.318V24.217H114.99V25H110.418ZM111.237 22.183V21.418H114.477V22.183H111.237ZM116.993 25L119.846 18.7H120.737L123.599 25H122.654L120.107 19.204H120.467L117.92 25H116.993ZM118.208 23.425L118.451 22.705H121.997L122.258 23.425H118.208ZM126.039 25V18.7H128.496C129.312 18.7 129.954 18.895 130.422 19.285C130.89 19.669 131.124 20.206 131.124 20.896C131.124 21.352 131.019 21.745 130.809 22.075C130.599 22.399 130.299 22.648 129.909 22.822C129.519 22.996 129.048 23.083 128.496 23.083H126.534L126.939 22.669V25H126.039ZM130.251 25L128.649 22.714H129.612L131.232 25H130.251ZM126.939 22.759L126.534 22.318H128.469C129.045 22.318 129.48 22.195 129.774 21.949C130.074 21.697 130.224 21.346 130.224 20.896C130.224 20.446 130.074 20.098 129.774 19.852C129.48 19.606 129.045 19.483 128.469 19.483H126.534L126.939 19.033V22.759ZM135.914 25.072C135.434 25.072 134.975 25 134.537 24.856C134.099 24.706 133.754 24.514 133.502 24.28L133.835 23.578C134.075 23.788 134.381 23.962 134.753 24.1C135.125 24.238 135.512 24.307 135.914 24.307C136.28 24.307 136.577 24.265 136.805 24.181C137.033 24.097 137.201 23.983 137.309 23.839C137.417 23.689 137.471 23.521 137.471 23.335C137.471 23.119 137.399 22.945 137.255 22.813C137.117 22.681 136.934 22.576 136.706 22.498C136.484 22.414 136.238 22.342 135.968 22.282C135.698 22.222 135.425 22.153 135.149 22.075C134.879 21.991 134.63 21.886 134.402 21.76C134.18 21.634 134 21.466 133.862 21.256C133.724 21.04 133.655 20.764 133.655 20.428C133.655 20.104 133.739 19.807 133.907 19.537C134.081 19.261 134.345 19.042 134.699 18.88C135.059 18.712 135.515 18.628 136.067 18.628C136.433 18.628 136.796 18.676 137.156 18.772C137.516 18.868 137.828 19.006 138.092 19.186L137.795 19.906C137.525 19.726 137.24 19.597 136.94 19.519C136.64 19.435 136.349 19.393 136.067 19.393C135.713 19.393 135.422 19.438 135.194 19.528C134.966 19.618 134.798 19.738 134.69 19.888C134.588 20.038 134.537 20.206 134.537 20.392C134.537 20.614 134.606 20.791 134.744 20.923C134.888 21.055 135.071 21.16 135.293 21.238C135.521 21.316 135.77 21.388 136.04 21.454C136.31 21.514 136.58 21.583 136.85 21.661C137.126 21.739 137.375 21.841 137.597 21.967C137.825 22.093 138.008 22.261 138.146 22.471C138.284 22.681 138.353 22.951 138.353 23.281C138.353 23.599 138.266 23.896 138.092 24.172C137.918 24.442 137.648 24.661 137.282 24.829C136.922 24.991 136.466 25.072 135.914 25.072Z" fill="#AC8E64"/>
<path d="M104.743 25H104.573V25.1703H104.743V25ZM104.743 22.588L104.903 22.5288L104.573 22.588H104.743ZM104.95 23.146L104.805 23.2346L105.11 23.0868L104.95 23.146ZM102.241 18.7V18.5297H101.938L102.096 18.7886L102.241 18.7ZM103.204 18.7L103.35 18.6116L103.3 18.5297H103.204V18.7ZM105.481 22.453V22.6233H105.784L105.627 22.3646L105.481 22.453ZM104.959 22.453L104.814 22.3644L104.656 22.6233H104.959V22.453ZM107.245 18.7V18.5297H107.15L107.1 18.6114L107.245 18.7ZM108.136 18.7L108.282 18.7884L108.439 18.5297H108.136V18.7ZM105.436 23.146L105.276 23.089L105.582 23.2344L105.436 23.146ZM105.634 22.588H105.805L105.474 22.531L105.634 22.588ZM105.634 25V25.1703H105.805V25H105.634ZM104.914 25V22.588H104.573V25H104.914ZM104.584 22.6472L104.791 23.2052L105.11 23.0868L104.903 22.5288L104.584 22.6472ZM105.096 23.0574L102.387 18.6114L102.096 18.7886L104.805 23.2346L105.096 23.0574ZM102.241 18.8703H103.204V18.5297H102.241V18.8703ZM103.059 18.7884L105.336 22.5414L105.627 22.3646L103.35 18.6116L103.059 18.7884ZM105.481 22.2827H104.959V22.6233H105.481V22.2827ZM105.105 22.5416L107.391 18.7886L107.1 18.6114L104.814 22.3644L105.105 22.5416ZM107.245 18.8703H108.136V18.5297H107.245V18.8703ZM107.991 18.6116L105.291 23.0576L105.582 23.2344L108.282 18.7884L107.991 18.6116ZM105.597 23.203L105.795 22.645L105.474 22.531L105.276 23.089L105.597 23.203ZM105.464 22.588V25H105.805V22.588H105.464ZM105.634 24.8297H104.743V25.1703H105.634V24.8297ZM110.418 25H110.247V25.1703H110.418V25ZM110.418 18.7V18.5297H110.247V18.7H110.418ZM114.864 18.7H115.034V18.5297H114.864V18.7ZM114.864 19.483V19.6533H115.034V19.483H114.864ZM111.318 19.483V19.3127H111.147V19.483H111.318ZM111.318 24.217H111.147V24.3873H111.318V24.217ZM114.99 24.217H115.16V24.0467H114.99V24.217ZM114.99 25V25.1703H115.16V25H114.99ZM111.237 22.183H111.066V22.3533H111.237V22.183ZM111.237 21.418V21.2477H111.066V21.418H111.237ZM114.477 21.418H114.647V21.2477H114.477V21.418ZM114.477 22.183V22.3533H114.647V22.183H114.477ZM110.588 25V18.7H110.247V25H110.588ZM110.418 18.8703H114.864V18.5297H110.418V18.8703ZM114.693 18.7V19.483H115.034V18.7H114.693ZM114.864 19.3127H111.318V19.6533H114.864V19.3127ZM111.147 19.483V24.217H111.488V19.483H111.147ZM111.318 24.3873H114.99V24.0467H111.318V24.3873ZM114.819 24.217V25H115.16V24.217H114.819ZM114.99 24.8297H110.418V25.1703H114.99V24.8297ZM111.407 22.183V21.418H111.066V22.183H111.407ZM111.237 21.5883H114.477V21.2477H111.237V21.5883ZM114.306 21.418V22.183H114.647V21.418H114.306ZM114.477 22.0127H111.237V22.3533H114.477V22.0127ZM116.993 25L116.838 24.9297L116.729 25.1703H116.993V25ZM119.846 18.7V18.5297H119.736L119.691 18.6297L119.846 18.7ZM120.737 18.7L120.892 18.6295L120.847 18.5297H120.737V18.7ZM123.599 25V25.1703H123.863L123.754 24.9295L123.599 25ZM122.654 25L122.498 25.0685L122.543 25.1703H122.654V25ZM120.107 19.204V19.0337H119.846L119.951 19.2725L120.107 19.204ZM120.467 19.204L120.623 19.2725L120.728 19.0337H120.467V19.204ZM117.92 25V25.1703H118.031L118.076 25.0685L117.92 25ZM118.208 23.425L118.047 23.3705L117.971 23.5953H118.208V23.425ZM118.451 22.705V22.5347H118.329L118.29 22.6505L118.451 22.705ZM121.997 22.705L122.157 22.6469L122.116 22.5347H121.997V22.705ZM122.258 23.425V23.5953H122.501L122.418 23.3669L122.258 23.425ZM117.148 25.0703L120.001 18.7703L119.691 18.6297L116.838 24.9297L117.148 25.0703ZM119.846 18.8703H120.737V18.5297H119.846V18.8703ZM120.582 18.7705L123.444 25.0705L123.754 24.9295L120.892 18.6295L120.582 18.7705ZM123.599 24.8297H122.654V25.1703H123.599V24.8297ZM122.81 24.9315L120.263 19.1355L119.951 19.2725L122.498 25.0685L122.81 24.9315ZM120.107 19.3743H120.467V19.0337H120.107V19.3743ZM120.311 19.1355L117.764 24.9315L118.076 25.0685L120.623 19.2725L120.311 19.1355ZM117.92 24.8297H116.993V25.1703H117.92V24.8297ZM118.369 23.4795L118.612 22.7595L118.29 22.6505L118.047 23.3705L118.369 23.4795ZM118.451 22.8753H121.997V22.5347H118.451V22.8753ZM121.837 22.7631L122.098 23.4831L122.418 23.3669L122.157 22.6469L121.837 22.7631ZM122.258 23.2547H118.208V23.5953H122.258V23.2547ZM126.039 25H125.868V25.1703H126.039V25ZM126.039 18.7V18.5297H125.868V18.7H126.039ZM130.422 19.285L130.313 19.4159L130.314 19.4167L130.422 19.285ZM130.809 22.075L130.952 22.1677L130.952 22.1665L130.809 22.075ZM129.909 22.822L129.978 22.9776L129.978 22.9776L129.909 22.822ZM126.534 23.083L126.412 22.9639L126.129 23.2533H126.534V23.083ZM126.939 22.669H127.109V22.2513L126.817 22.5499L126.939 22.669ZM126.939 25V25.1703H127.109V25H126.939ZM130.251 25L130.111 25.0978L130.162 25.1703H130.251V25ZM128.649 22.714V22.5437H128.321L128.509 22.8118L128.649 22.714ZM129.612 22.714L129.751 22.6155L129.7 22.5437H129.612V22.714ZM131.232 25V25.1703H131.561L131.371 24.9015L131.232 25ZM126.939 22.759L126.813 22.8742L127.109 23.1963V22.759H126.939ZM126.534 22.318V22.1477H126.146L126.408 22.4332L126.534 22.318ZM129.774 21.949L129.883 22.0796L129.883 22.0794L129.774 21.949ZM129.774 19.852L129.664 19.9826L129.666 19.9837L129.774 19.852ZM126.534 19.483L126.407 19.369L126.151 19.6533H126.534V19.483ZM126.939 19.033H127.109V18.5891L126.812 18.919L126.939 19.033ZM126.209 25V18.7H125.868V25H126.209ZM126.039 18.8703H128.496V18.5297H126.039V18.8703ZM128.496 18.8703C129.285 18.8703 129.884 19.0589 130.313 19.4159L130.531 19.1541C130.023 18.7311 129.338 18.5297 128.496 18.5297V18.8703ZM130.314 19.4167C130.736 19.7636 130.953 20.249 130.953 20.896H131.294C131.294 20.163 131.043 19.5744 130.53 19.1533L130.314 19.4167ZM130.953 20.896C130.953 21.3251 130.855 21.6852 130.665 21.9835L130.952 22.1665C131.183 21.8048 131.294 21.3789 131.294 20.896H130.953ZM130.666 21.9824C130.476 22.2758 130.203 22.5044 129.839 22.6664L129.978 22.9776C130.395 22.7916 130.722 22.5222 130.952 22.1676L130.666 21.9824ZM129.839 22.6664C129.477 22.8283 129.031 22.9127 128.496 22.9127V23.2533C129.065 23.2533 129.561 23.1637 129.978 22.9776L129.839 22.6664ZM128.496 22.9127H126.534V23.2533H128.496V22.9127ZM126.656 23.2021L127.061 22.7881L126.817 22.5499L126.412 22.9639L126.656 23.2021ZM126.768 22.669V25H127.109V22.669H126.768ZM126.939 24.8297H126.039V25.1703H126.939V24.8297ZM130.39 24.9022L128.788 22.6162L128.509 22.8118L130.111 25.0978L130.39 24.9022ZM128.649 22.8843H129.612V22.5437H128.649V22.8843ZM129.473 22.8125L131.093 25.0985L131.371 24.9015L129.751 22.6155L129.473 22.8125ZM131.232 24.8297H130.251V25.1703H131.232V24.8297ZM127.064 22.6438L126.659 22.2028L126.408 22.4332L126.813 22.8742L127.064 22.6438ZM126.534 22.4883H128.469V22.1477H126.534V22.4883ZM128.469 22.4883C129.065 22.4883 129.546 22.3614 129.883 22.0796L129.664 21.8184C129.413 22.0286 129.024 22.1477 128.469 22.1477V22.4883ZM129.883 22.0794C130.228 21.7901 130.394 21.388 130.394 20.896H130.053C130.053 21.304 129.92 21.6039 129.664 21.8186L129.883 22.0794ZM130.394 20.896C130.394 20.4041 130.228 20.004 129.882 19.7203L129.666 19.9837C129.92 20.192 130.053 20.4879 130.053 20.896H130.394ZM129.883 19.7214C129.546 19.4396 129.065 19.3127 128.469 19.3127V19.6533C129.024 19.6533 129.413 19.7724 129.664 19.9826L129.883 19.7214ZM128.469 19.3127H126.534V19.6533H128.469V19.3127ZM126.66 19.597L127.065 19.147L126.812 18.919L126.407 19.369L126.66 19.597ZM126.768 19.033V22.759H127.109V19.033H126.768ZM134.537 24.856L134.482 25.0172L134.484 25.0178L134.537 24.856ZM133.502 24.28L133.348 24.207L133.294 24.3198L133.386 24.4048L133.502 24.28ZM133.835 23.578L133.947 23.4498L133.777 23.3015L133.681 23.505L133.835 23.578ZM134.753 24.1L134.694 24.2597L134.694 24.2597L134.753 24.1ZM136.805 24.181L136.864 24.3408L136.864 24.3408L136.805 24.181ZM137.309 23.839L137.445 23.9412L137.447 23.9385L137.309 23.839ZM137.255 22.813L137.137 22.9361L137.14 22.9386L137.255 22.813ZM136.706 22.498L136.645 22.6574L136.651 22.6592L136.706 22.498ZM135.968 22.282L136.005 22.1157L136.005 22.1157L135.968 22.282ZM135.149 22.075L135.098 22.2377L135.102 22.2389L135.149 22.075ZM134.402 21.76L134.318 21.9082L134.319 21.9091L134.402 21.76ZM133.862 21.256L133.718 21.3477L133.719 21.3495L133.862 21.256ZM133.907 19.537L133.763 19.4462L133.762 19.447L133.907 19.537ZM134.699 18.88L134.77 19.0349L134.771 19.0344L134.699 18.88ZM138.092 19.186L138.249 19.251L138.302 19.1231L138.188 19.0453L138.092 19.186ZM137.795 19.906L137.7 20.0477L137.873 20.1629L137.952 19.971L137.795 19.906ZM136.94 19.519L136.894 19.6831L136.897 19.6839L136.94 19.519ZM134.69 19.888L134.552 19.7884L134.549 19.7922L134.69 19.888ZM134.744 20.923L134.626 21.0461L134.629 21.0486L134.744 20.923ZM135.293 21.238L135.236 21.3987L135.238 21.3992L135.293 21.238ZM136.04 21.454L135.999 21.6195L136.003 21.6203L136.04 21.454ZM136.85 21.661L136.803 21.8247L136.803 21.8249L136.85 21.661ZM137.597 21.967L137.513 22.1152L137.514 22.1161L137.597 21.967ZM138.146 22.471L138.288 22.3775L138.288 22.3775L138.146 22.471ZM138.092 24.172L138.235 24.2643L138.236 24.2628L138.092 24.172ZM137.282 24.829L137.352 24.9843L137.353 24.9838L137.282 24.829ZM135.914 24.9017C135.451 24.9017 135.01 24.8323 134.59 24.6942L134.484 25.0178C134.939 25.1677 135.416 25.2423 135.914 25.2423V24.9017ZM134.592 24.6948C134.169 24.55 133.847 24.3684 133.618 24.1552L133.386 24.4048C133.66 24.6596 134.028 24.862 134.482 25.0172L134.592 24.6948ZM133.656 24.353L133.989 23.651L133.681 23.505L133.348 24.207L133.656 24.353ZM133.723 23.7062C133.982 23.9327 134.307 24.1162 134.694 24.2597L134.812 23.9403C134.455 23.8078 134.168 23.6433 133.947 23.4498L133.723 23.7062ZM134.694 24.2597C135.085 24.4048 135.492 24.4773 135.914 24.4773V24.1367C135.532 24.1367 135.165 24.0712 134.812 23.9403L134.694 24.2597ZM135.914 24.4773C136.291 24.4773 136.61 24.4344 136.864 24.3408L136.746 24.0212C136.544 24.0956 136.269 24.1367 135.914 24.1367V24.4773ZM136.864 24.3408C137.112 24.2494 137.312 24.1192 137.445 23.9412L137.173 23.7368C137.09 23.8468 136.954 23.9446 136.746 24.0212L136.864 24.3408ZM137.447 23.9385C137.576 23.7593 137.641 23.5565 137.641 23.335H137.3C137.3 23.4855 137.258 23.6187 137.171 23.7395L137.447 23.9385ZM137.641 23.335C137.641 23.0769 137.553 22.8553 137.37 22.6874L137.14 22.9386C137.245 23.0347 137.3 23.1611 137.3 23.335H137.641ZM137.373 22.6899C137.213 22.537 137.006 22.4208 136.761 22.3368L136.651 22.6592C136.861 22.7312 137.021 22.825 137.137 22.9361L137.373 22.6899ZM136.766 22.3387C136.535 22.2514 136.281 22.1772 136.005 22.1157L135.931 22.4483C136.194 22.5068 136.432 22.5766 136.646 22.6573L136.766 22.3387ZM136.005 22.1157C135.738 22.0564 135.468 21.9882 135.195 21.9111L135.102 22.2389C135.381 22.3178 135.658 22.3876 135.931 22.4483L136.005 22.1157ZM135.199 21.9123C134.94 21.8315 134.701 21.7309 134.484 21.6109L134.319 21.9091C134.558 22.0411 134.818 22.1505 135.098 22.2377L135.199 21.9123ZM134.486 21.6119C134.287 21.499 134.127 21.3495 134.004 21.1625L133.719 21.3495C133.873 21.5825 134.073 21.769 134.318 21.9081L134.486 21.6119ZM134.005 21.1643C133.89 20.983 133.825 20.7414 133.825 20.428H133.484C133.484 20.7866 133.558 21.097 133.718 21.3477L134.005 21.1643ZM133.825 20.428C133.825 20.1352 133.901 19.8695 134.051 19.627L133.762 19.447C133.577 19.7445 133.484 20.0728 133.484 20.428H133.825ZM134.051 19.6278C134.204 19.3849 134.44 19.1858 134.77 19.0349L134.628 18.7251C134.25 18.8982 133.958 19.1371 133.763 19.4462L134.051 19.6278ZM134.771 19.0344C135.101 18.8802 135.531 18.7983 136.067 18.7983V18.4577C135.499 18.4577 135.016 18.5438 134.627 18.7256L134.771 19.0344ZM136.067 18.7983C136.418 18.7983 136.766 18.8443 137.112 18.9366L137.2 18.6074C136.826 18.5077 136.448 18.4577 136.067 18.4577V18.7983ZM137.112 18.9366C137.456 19.0284 137.75 19.1592 137.996 19.3267L138.188 19.0453C137.905 18.8528 137.575 18.7076 137.2 18.6074L137.112 18.9366ZM137.934 19.121L137.637 19.841L137.952 19.971L138.249 19.251L137.934 19.121ZM137.889 19.7643C137.604 19.5742 137.302 19.4371 136.983 19.3541L136.897 19.6839C137.178 19.7569 137.445 19.8778 137.7 20.0477L137.889 19.7643ZM136.986 19.355C136.672 19.2672 136.366 19.2227 136.067 19.2227V19.5633C136.332 19.5633 136.607 19.6028 136.894 19.683L136.986 19.355ZM136.067 19.2227C135.7 19.2227 135.386 19.269 135.131 19.3696L135.256 19.6864C135.458 19.607 135.726 19.5633 136.067 19.5633V19.2227ZM135.131 19.3696C134.883 19.4677 134.684 19.6046 134.552 19.7885L134.828 19.9875C134.912 19.8714 135.049 19.7683 135.256 19.6864L135.131 19.3696ZM134.549 19.7922C134.427 19.9712 134.366 20.1728 134.366 20.392H134.707C134.707 20.2392 134.748 20.1048 134.831 19.9838L134.549 19.7922ZM134.366 20.392C134.366 20.6523 134.449 20.8767 134.626 21.0461L134.862 20.7999C134.763 20.7053 134.707 20.5757 134.707 20.392H134.366ZM134.629 21.0486C134.793 21.199 134.997 21.3146 135.236 21.3987L135.349 21.0773C135.145 21.0054 134.983 20.911 134.859 20.7974L134.629 21.0486ZM135.238 21.3992C135.471 21.4791 135.725 21.5524 135.999 21.6195L136.08 21.2885C135.814 21.2236 135.57 21.1529 135.348 21.0768L135.238 21.3992ZM136.003 21.6203C136.269 21.6795 136.536 21.7476 136.803 21.8247L136.897 21.4973C136.624 21.4184 136.35 21.3485 136.077 21.2877L136.003 21.6203ZM136.803 21.8249C137.068 21.8997 137.304 21.9967 137.513 22.1151L137.681 21.8189C137.446 21.6853 137.184 21.5783 136.896 21.4971L136.803 21.8249ZM137.514 22.1161C137.719 22.2292 137.881 22.3785 138.003 22.5645L138.288 22.3775C138.134 22.1435 137.93 21.9568 137.679 21.8179L137.514 22.1161ZM138.003 22.5645C138.118 22.7393 138.182 22.974 138.182 23.281H138.523C138.523 22.928 138.449 22.6227 138.288 22.3775L138.003 22.5645ZM138.182 23.281C138.182 23.566 138.105 23.8316 137.948 24.0812L138.236 24.2628C138.427 23.9604 138.523 23.632 138.523 23.281H138.182ZM137.949 24.0797C137.796 24.3163 137.555 24.5163 137.211 24.6742L137.353 24.9838C137.741 24.8057 138.039 24.5677 138.235 24.2643L137.949 24.0797ZM137.212 24.6737C136.881 24.8227 136.451 24.9017 135.914 24.9017V25.2423C136.481 25.2423 136.963 25.1593 137.352 24.9843L137.212 24.6737Z" fill="#AC8E64" mask="url(#path-6-outside-1_204_8719)"/>
<mask id="path-8-outside-2_204_8719" maskUnits="userSpaceOnUse" x="13" y="18" width="39" height="8" fill="black">
<rect fill="white" x="13" y="18" width="39" height="8"/>
<path d="M18.5944 25V18.7H19.4944V25H18.5944ZM14.0764 25V18.7H14.9764V25H14.0764ZM14.8864 22.192V21.409H18.6754V22.192H14.8864ZM21.7262 25L24.5792 18.7H25.4702L28.3322 25H27.3872L24.8402 19.204H25.2002L22.6532 25H21.7262ZM22.9412 23.425L23.1842 22.705H26.7302L26.9912 23.425H22.9412ZM30.572 25V18.7H33.029C33.581 18.7 34.052 18.787 34.442 18.961C34.832 19.135 35.132 19.387 35.342 19.717C35.552 20.047 35.657 20.44 35.657 20.896C35.657 21.352 35.552 21.745 35.342 22.075C35.132 22.399 34.832 22.651 34.442 22.831C34.052 23.005 33.581 23.092 33.029 23.092H31.067L31.472 22.669V25H30.572ZM31.472 22.759L31.067 22.309H33.002C33.578 22.309 34.013 22.186 34.307 21.94C34.607 21.694 34.757 21.346 34.757 20.896C34.757 20.446 34.607 20.098 34.307 19.852C34.013 19.606 33.578 19.483 33.002 19.483H31.067L31.472 19.033V22.759ZM38.2792 25V18.7H40.7362C41.2882 18.7 41.7592 18.787 42.1492 18.961C42.5392 19.135 42.8392 19.387 43.0492 19.717C43.2592 20.047 43.3642 20.44 43.3642 20.896C43.3642 21.352 43.2592 21.745 43.0492 22.075C42.8392 22.399 42.5392 22.651 42.1492 22.831C41.7592 23.005 41.2882 23.092 40.7362 23.092H38.7742L39.1792 22.669V25H38.2792ZM39.1792 22.759L38.7742 22.309H40.7092C41.2852 22.309 41.7202 22.186 42.0142 21.94C42.3142 21.694 42.4642 21.346 42.4642 20.896C42.4642 20.446 42.3142 20.098 42.0142 19.852C41.7202 19.606 41.2852 19.483 40.7092 19.483H38.7742L39.1792 19.033V22.759ZM47.5074 25V22.588L47.7144 23.146L45.0054 18.7H45.9684L48.2454 22.453H47.7234L50.0094 18.7H50.9004L48.2004 23.146L48.3984 22.588V25H47.5074Z"/>
</mask>
<path d="M18.5944 25V18.7H19.4944V25H18.5944ZM14.0764 25V18.7H14.9764V25H14.0764ZM14.8864 22.192V21.409H18.6754V22.192H14.8864ZM21.7262 25L24.5792 18.7H25.4702L28.3322 25H27.3872L24.8402 19.204H25.2002L22.6532 25H21.7262ZM22.9412 23.425L23.1842 22.705H26.7302L26.9912 23.425H22.9412ZM30.572 25V18.7H33.029C33.581 18.7 34.052 18.787 34.442 18.961C34.832 19.135 35.132 19.387 35.342 19.717C35.552 20.047 35.657 20.44 35.657 20.896C35.657 21.352 35.552 21.745 35.342 22.075C35.132 22.399 34.832 22.651 34.442 22.831C34.052 23.005 33.581 23.092 33.029 23.092H31.067L31.472 22.669V25H30.572ZM31.472 22.759L31.067 22.309H33.002C33.578 22.309 34.013 22.186 34.307 21.94C34.607 21.694 34.757 21.346 34.757 20.896C34.757 20.446 34.607 20.098 34.307 19.852C34.013 19.606 33.578 19.483 33.002 19.483H31.067L31.472 19.033V22.759ZM38.2792 25V18.7H40.7362C41.2882 18.7 41.7592 18.787 42.1492 18.961C42.5392 19.135 42.8392 19.387 43.0492 19.717C43.2592 20.047 43.3642 20.44 43.3642 20.896C43.3642 21.352 43.2592 21.745 43.0492 22.075C42.8392 22.399 42.5392 22.651 42.1492 22.831C41.7592 23.005 41.2882 23.092 40.7362 23.092H38.7742L39.1792 22.669V25H38.2792ZM39.1792 22.759L38.7742 22.309H40.7092C41.2852 22.309 41.7202 22.186 42.0142 21.94C42.3142 21.694 42.4642 21.346 42.4642 20.896C42.4642 20.446 42.3142 20.098 42.0142 19.852C41.7202 19.606 41.2852 19.483 40.7092 19.483H38.7742L39.1792 19.033V22.759ZM47.5074 25V22.588L47.7144 23.146L45.0054 18.7H45.9684L48.2454 22.453H47.7234L50.0094 18.7H50.9004L48.2004 23.146L48.3984 22.588V25H47.5074Z" fill="#AC8E64"/>
<path d="M18.5944 25H18.4241V25.1703H18.5944V25ZM18.5944 18.7V18.5297H18.4241V18.7H18.5944ZM19.4944 18.7H19.6648V18.5297H19.4944V18.7ZM19.4944 25V25.1703H19.6648V25H19.4944ZM14.0764 25H13.9061V25.1703H14.0764V25ZM14.0764 18.7V18.5297H13.9061V18.7H14.0764ZM14.9764 18.7H15.1468V18.5297H14.9764V18.7ZM14.9764 25V25.1703H15.1468V25H14.9764ZM14.8864 22.192H14.7161V22.3623H14.8864V22.192ZM14.8864 21.409V21.2387H14.7161V21.409H14.8864ZM18.6754 21.409H18.8458V21.2387H18.6754V21.409ZM18.6754 22.192V22.3623H18.8458V22.192H18.6754ZM18.7648 25V18.7H18.4241V25H18.7648ZM18.5944 18.8703H19.4944V18.5297H18.5944V18.8703ZM19.3241 18.7V25H19.6648V18.7H19.3241ZM19.4944 24.8297H18.5944V25.1703H19.4944V24.8297ZM14.2468 25V18.7H13.9061V25H14.2468ZM14.0764 18.8703H14.9764V18.5297H14.0764V18.8703ZM14.8061 18.7V25H15.1468V18.7H14.8061ZM14.9764 24.8297H14.0764V25.1703H14.9764V24.8297ZM15.0568 22.192V21.409H14.7161V22.192H15.0568ZM14.8864 21.5793H18.6754V21.2387H14.8864V21.5793ZM18.5051 21.409V22.192H18.8458V21.409H18.5051ZM18.6754 22.0217H14.8864V22.3623H18.6754V22.0217ZM21.7262 25L21.571 24.9297L21.462 25.1703H21.7262V25ZM24.5792 18.7V18.5297H24.4693L24.424 18.6297L24.5792 18.7ZM25.4702 18.7L25.6252 18.6295L25.5799 18.5297H25.4702V18.7ZM28.3322 25V25.1703H28.5966L28.4872 24.9295L28.3322 25ZM27.3872 25L27.2312 25.0685L27.2759 25.1703H27.3872V25ZM24.8402 19.204V19.0337H24.5792L24.6842 19.2725L24.8402 19.204ZM25.2002 19.204L25.3561 19.2725L25.4611 19.0337H25.2002V19.204ZM22.6532 25V25.1703H22.7644L22.8091 25.0685L22.6532 25ZM22.9412 23.425L22.7798 23.3705L22.7039 23.5953H22.9412V23.425ZM23.1842 22.705V22.5347H23.0619L23.0228 22.6505L23.1842 22.705ZM26.7302 22.705L26.8903 22.6469L26.8496 22.5347H26.7302V22.705ZM26.9912 23.425V23.5953H27.2341L27.1513 23.3669L26.9912 23.425ZM21.8813 25.0703L24.7343 18.7703L24.424 18.6297L21.571 24.9297L21.8813 25.0703ZM24.5792 18.8703H25.4702V18.5297H24.5792V18.8703ZM25.3151 18.7705L28.1771 25.0705L28.4872 24.9295L25.6252 18.6295L25.3151 18.7705ZM28.3322 24.8297H27.3872V25.1703H28.3322V24.8297ZM27.5431 24.9315L24.9961 19.1355L24.6842 19.2725L27.2312 25.0685L27.5431 24.9315ZM24.8402 19.3743H25.2002V19.0337H24.8402V19.3743ZM25.0442 19.1355L22.4972 24.9315L22.8091 25.0685L25.3561 19.2725L25.0442 19.1355ZM22.6532 24.8297H21.7262V25.1703H22.6532V24.8297ZM23.1026 23.4795L23.3456 22.7595L23.0228 22.6505L22.7798 23.3705L23.1026 23.4795ZM23.1842 22.8753H26.7302V22.5347H23.1842V22.8753ZM26.57 22.7631L26.831 23.4831L27.1513 23.3669L26.8903 22.6469L26.57 22.7631ZM26.9912 23.2547H22.9412V23.5953H26.9912V23.2547ZM30.572 25H30.4016V25.1703H30.572V25ZM30.572 18.7V18.5297H30.4016V18.7H30.572ZM34.442 18.961L34.3725 19.1166L34.3725 19.1166L34.442 18.961ZM35.342 19.717L35.4857 19.6255L35.4857 19.6255L35.342 19.717ZM35.342 22.075L35.4849 22.1677L35.4857 22.1665L35.342 22.075ZM34.442 22.831L34.5114 22.9866L34.5133 22.9857L34.442 22.831ZM31.067 23.092L30.9439 22.9742L30.668 23.2623H31.067V23.092ZM31.472 22.669H31.6423V22.2448L31.3489 22.5512L31.472 22.669ZM31.472 25V25.1703H31.6423V25H31.472ZM31.472 22.759L31.3453 22.873L31.6423 23.2029V22.759H31.472ZM31.067 22.309V22.1387H30.6845L30.9403 22.423L31.067 22.309ZM34.307 21.94L34.1989 21.8083L34.1976 21.8094L34.307 21.94ZM34.307 19.852L34.1976 19.9826L34.1989 19.9837L34.307 19.852ZM31.067 19.483L30.9403 19.369L30.6845 19.6533H31.067V19.483ZM31.472 19.033H31.6423V18.5891L31.3453 18.919L31.472 19.033ZM30.7423 25V18.7H30.4016V25H30.7423ZM30.572 18.8703H33.029V18.5297H30.572V18.8703ZM33.029 18.8703C33.5637 18.8703 34.0098 18.9547 34.3725 19.1166L34.5114 18.8054C34.0941 18.6193 33.5982 18.5297 33.029 18.5297V18.8703ZM34.3725 19.1166C34.7349 19.2782 35.0078 19.5092 35.1982 19.8085L35.4857 19.6255C35.2561 19.2648 34.929 18.9918 34.5114 18.8054L34.3725 19.1166ZM35.1982 19.8085C35.3881 20.1068 35.4866 20.4669 35.4866 20.896H35.8273C35.8273 20.4131 35.7158 19.9872 35.4857 19.6255L35.1982 19.8085ZM35.4866 20.896C35.4866 21.3251 35.3881 21.6852 35.1982 21.9835L35.4857 22.1665C35.7158 21.8048 35.8273 21.3789 35.8273 20.896H35.4866ZM35.199 21.9824C35.0085 22.2764 34.7347 22.5083 34.3706 22.6763L34.5133 22.9857C34.9292 22.7937 35.2555 22.5216 35.4849 22.1676L35.199 21.9824ZM34.3725 22.6754C34.0098 22.8373 33.5637 22.9217 33.029 22.9217V23.2623C33.5982 23.2623 34.0941 23.1727 34.5114 22.9866L34.3725 22.6754ZM33.029 22.9217H31.067V23.2623H33.029V22.9217ZM31.19 23.2098L31.595 22.7868L31.3489 22.5512L30.9439 22.9742L31.19 23.2098ZM31.3016 22.669V25H31.6423V22.669H31.3016ZM31.472 24.8297H30.572V25.1703H31.472V24.8297ZM31.5986 22.645L31.1936 22.195L30.9403 22.423L31.3453 22.873L31.5986 22.645ZM31.067 22.4793H33.002V22.1387H31.067V22.4793ZM33.002 22.4793C33.5986 22.4793 34.0795 22.3524 34.4163 22.0706L34.1976 21.8094C33.9464 22.0196 33.5573 22.1387 33.002 22.1387V22.4793ZM34.415 22.0717C34.761 21.788 34.9273 21.3879 34.9273 20.896H34.5866C34.5866 21.3041 34.4529 21.6 34.1989 21.8083L34.415 22.0717ZM34.9273 20.896C34.9273 20.4041 34.761 20.004 34.415 19.7203L34.1989 19.9837C34.4529 20.192 34.5866 20.4879 34.5866 20.896H34.9273ZM34.4163 19.7214C34.0795 19.4396 33.5986 19.3127 33.002 19.3127V19.6533C33.5573 19.6533 33.9464 19.7724 34.1976 19.9826L34.4163 19.7214ZM33.002 19.3127H31.067V19.6533H33.002V19.3127ZM31.1936 19.597L31.5986 19.147L31.3453 18.919L30.9403 19.369L31.1936 19.597ZM31.3016 19.033V22.759H31.6423V19.033H31.3016ZM38.2792 25H38.1088V25.1703H38.2792V25ZM38.2792 18.7V18.5297H38.1088V18.7H38.2792ZM42.1492 18.961L42.0798 19.1166L42.0798 19.1166L42.1492 18.961ZM43.0492 19.717L43.1929 19.6255L43.1929 19.6255L43.0492 19.717ZM43.0492 22.075L43.1921 22.1677L43.1929 22.1665L43.0492 22.075ZM42.1492 22.831L42.2186 22.9866L42.2206 22.9857L42.1492 22.831ZM38.7742 23.092L38.6511 22.9742L38.3753 23.2623H38.7742V23.092ZM39.1792 22.669H39.3495V22.2448L39.0561 22.5512L39.1792 22.669ZM39.1792 25V25.1703H39.3495V25H39.1792ZM39.1792 22.759L39.0526 22.873L39.3495 23.2029V22.759H39.1792ZM38.7742 22.309V22.1387H38.3917L38.6476 22.423L38.7742 22.309ZM42.0142 21.94L41.9062 21.8083L41.9049 21.8094L42.0142 21.94ZM42.0142 19.852L41.9049 19.9826L41.9062 19.9837L42.0142 19.852ZM38.7742 19.483L38.6476 19.369L38.3917 19.6533H38.7742V19.483ZM39.1792 19.033H39.3495V18.5891L39.0526 18.919L39.1792 19.033ZM38.4495 25V18.7H38.1088V25H38.4495ZM38.2792 18.8703H40.7362V18.5297H38.2792V18.8703ZM40.7362 18.8703C41.271 18.8703 41.717 18.9547 42.0798 19.1166L42.2186 18.8054C41.8013 18.6193 41.3054 18.5297 40.7362 18.5297V18.8703ZM42.0798 19.1166C42.4422 19.2782 42.7151 19.5092 42.9055 19.8085L43.1929 19.6255C42.9633 19.2648 42.6362 18.9918 42.2186 18.8054L42.0798 19.1166ZM42.9055 19.8085C43.0954 20.1068 43.1938 20.4669 43.1938 20.896H43.5345C43.5345 20.4131 43.423 19.9872 43.1929 19.6255L42.9055 19.8085ZM43.1938 20.896C43.1938 21.3251 43.0954 21.6852 42.9055 21.9835L43.1929 22.1665C43.423 21.8048 43.5345 21.3789 43.5345 20.896H43.1938ZM42.9062 21.9824C42.7157 22.2764 42.442 22.5083 42.0778 22.6763L42.2206 22.9857C42.6364 22.7937 42.9627 22.5216 43.1921 22.1676L42.9062 21.9824ZM42.0798 22.6754C41.717 22.8373 41.271 22.9217 40.7362 22.9217V23.2623C41.3054 23.2623 41.8013 23.1727 42.2186 22.9866L42.0798 22.6754ZM40.7362 22.9217H38.7742V23.2623H40.7362V22.9217ZM38.8972 23.2098L39.3022 22.7868L39.0561 22.5512L38.6511 22.9742L38.8972 23.2098ZM39.0088 22.669V25H39.3495V22.669H39.0088ZM39.1792 24.8297H38.2792V25.1703H39.1792V24.8297ZM39.3058 22.645L38.9008 22.195L38.6476 22.423L39.0526 22.873L39.3058 22.645ZM38.7742 22.4793H40.7092V22.1387H38.7742V22.4793ZM40.7092 22.4793C41.3058 22.4793 41.7867 22.3524 42.1235 22.0706L41.9049 21.8094C41.6536 22.0196 41.2646 22.1387 40.7092 22.1387V22.4793ZM42.1222 22.0717C42.4682 21.788 42.6345 21.3879 42.6345 20.896H42.2938C42.2938 21.3041 42.1602 21.6 41.9062 21.8083L42.1222 22.0717ZM42.6345 20.896C42.6345 20.4041 42.4682 20.004 42.1222 19.7203L41.9062 19.9837C42.1602 20.192 42.2938 20.4879 42.2938 20.896H42.6345ZM42.1235 19.7214C41.7867 19.4396 41.3058 19.3127 40.7092 19.3127V19.6533C41.2646 19.6533 41.6536 19.7724 41.9049 19.9826L42.1235 19.7214ZM40.7092 19.3127H38.7742V19.6533H40.7092V19.3127ZM38.9008 19.597L39.3058 19.147L39.0526 18.919L38.6476 19.369L38.9008 19.597ZM39.0088 19.033V22.759H39.3495V19.033H39.0088ZM47.5074 25H47.3371V25.1703H47.5074V25ZM47.5074 22.588L47.6671 22.5288L47.3371 22.588H47.5074ZM47.7144 23.146L47.5689 23.2346L47.8741 23.0868L47.7144 23.146ZM45.0054 18.7V18.5297H44.7021L44.8599 18.7886L45.0054 18.7ZM45.9684 18.7L46.114 18.6116L46.0643 18.5297H45.9684V18.7ZM48.2454 22.453V22.6233H48.548L48.391 22.3646L48.2454 22.453ZM47.7234 22.453L47.5779 22.3644L47.4202 22.6233H47.7234V22.453ZM50.0094 18.7V18.5297H49.9137L49.8639 18.6114L50.0094 18.7ZM50.9004 18.7L51.046 18.7884L51.2031 18.5297H50.9004V18.7ZM48.2004 23.146L48.0399 23.089L48.346 23.2344L48.2004 23.146ZM48.3984 22.588H48.5687L48.2379 22.531L48.3984 22.588ZM48.3984 25V25.1703H48.5687V25H48.3984ZM47.6777 25V22.588H47.3371V25H47.6777ZM47.3477 22.6472L47.5547 23.2052L47.8741 23.0868L47.6671 22.5288L47.3477 22.6472ZM47.8599 23.0574L45.1509 18.6114L44.8599 18.7886L47.5689 23.2346L47.8599 23.0574ZM45.0054 18.8703H45.9684V18.5297H45.0054V18.8703ZM45.8228 18.7884L48.0998 22.5414L48.391 22.3646L46.114 18.6116L45.8228 18.7884ZM48.2454 22.2827H47.7234V22.6233H48.2454V22.2827ZM47.8689 22.5416L50.1549 18.7886L49.8639 18.6114L47.5779 22.3644L47.8689 22.5416ZM50.0094 18.8703H50.9004V18.5297H50.0094V18.8703ZM50.7548 18.6116L48.0548 23.0576L48.346 23.2344L51.046 18.7884L50.7548 18.6116ZM48.3609 23.203L48.5589 22.645L48.2379 22.531L48.0399 23.089L48.3609 23.203ZM48.2281 22.588V25H48.5687V22.588H48.2281ZM48.3984 24.8297H47.5074V25.1703H48.3984V24.8297Z" fill="#AC8E64" mask="url(#path-8-outside-2_204_8719)"/>
<path d="M98 11H142.472C143.432 11 144.334 11.4593 144.899 12.2355L150.717 20.2355C151.482 21.2874 151.482 22.7126 150.717 23.7645L144.899 31.7645C144.334 32.5407 143.432 33 142.472 33H91" stroke="#AC8E64" stroke-width="0.75" stroke-linecap="round"/>
<path d="M61 33L9.52766 33C8.56785 33 7.66599 32.5407 7.10146 31.7645L1.28328 23.7645C0.518222 22.7126 0.518222 21.2874 1.28328 20.2355L7.10146 12.2355C7.66599 11.4593 8.56786 11 9.52767 11L54 11" stroke="#AC8E64" stroke-width="0.75" stroke-linecap="round"/>
</svg>
