<svg id="Layer_1" width="75" height="87" data-name="Layer 1" xmlns="http://www.w3.org/2000/svg" viewBox="0 0 95 110"><defs><style>.cls-1{fill:#fff;}.cls-2{fill:none;stroke:#ececec;stroke-width:8px;}.cls-3{fill:#da653f;}.cls-4{fill:#ececec;}.cls-5{fill:#6dbfb0;}</style></defs><title>Artboard 12</title><g id="Group_174" data-name="Group 174"><g id="Ellipse_72" data-name="Ellipse 72"><ellipse class="cls-1" cx="47.5" cy="47" rx="47.5" ry="47"/><ellipse class="cls-2" cx="47.5" cy="47" rx="43.5" ry="43"/></g><g id="Group_170" data-name="Group 170"><path id="Intersection_8" data-name="Intersection 8" class="cls-3" d="M47.43,53c0-.25,0-.5,0-.75A15.37,15.37,0,0,1,62.92,37H63c0,.25,0,.5,0,.75A15.38,15.38,0,0,1,47.5,53ZM32,37.75c0-.25,0-.5,0-.75a15.38,15.38,0,0,1,15.4,15.25c0,.25,0,.5,0,.75A15.38,15.38,0,0,1,32,37.75Z"/><path id="Intersection_9" data-name="Intersection 9" class="cls-3" d="M47.43,67c0-.25,0-.5,0-.75A15.37,15.37,0,0,1,62.92,51H63c0,.25,0,.5,0,.75A15.38,15.38,0,0,1,47.5,67ZM32,51.75c0-.25,0-.5,0-.75a15.38,15.38,0,0,1,15.4,15.25c0,.25,0,.5,0,.75A15.38,15.38,0,0,1,32,51.75Z"/><circle id="Ellipse_71" data-name="Ellipse 71" class="cls-3" cx="48" cy="33" r="6"/></g><path id="Rectangle_520" data-name="Rectangle 520" class="cls-4" d="M48,79h0a8,8,0,0,1,8,8v15a8,8,0,0,1-8,8h0a8,8,0,0,1-8-8V87A8,8,0,0,1,48,79Z"/><circle id="Ellipse_73" data-name="Ellipse 73" class="cls-3" cx="48" cy="89" r="4"/><path id="Rectangle_525" data-name="Rectangle 525" class="cls-5" d="M48,3h0a3,3,0,0,1,3,3V16a3,3,0,0,1-3,3h0a3,3,0,0,1-3-3V6A3,3,0,0,1,48,3Z"/></g></svg>
