<svg id="Layer_1" width="75" height="75" data-name="Layer 1" xmlns="http://www.w3.org/2000/svg" viewBox="0 0 101 101"><defs><style>.cls-1{fill:#fff;}.cls-2,.cls-3{fill:none;}.cls-2{stroke:#ececec;stroke-width:8px;}.cls-3{stroke:#6dbfb0;}.cls-4{fill:#da653f;}</style></defs><title>Artboard 11</title><g id="Group_173" data-name="Group 173"><g id="Ellipse_47" data-name="Ellipse 47"><ellipse class="cls-1" cx="50.5" cy="51" rx="47.5" ry="47"/><ellipse class="cls-2" cx="50.5" cy="51" rx="43.5" ry="43"/></g><g id="Ellipse_60" data-name="Ellipse 60"><circle class="cls-1" cx="2" cy="50" r="2"/><circle class="cls-3" cx="2" cy="50" r="1.5"/></g><g id="Ellipse_62" data-name="Ellipse 62"><circle class="cls-1" cx="51" cy="99" r="2"/><circle class="cls-3" cx="51" cy="99" r="1.5"/></g><g id="Ellipse_61" data-name="Ellipse 61"><circle class="cls-1" cx="99" cy="50" r="2"/><circle class="cls-3" cx="99" cy="50" r="1.5"/></g><path id="Subtraction_13" data-name="Subtraction 13" class="cls-4" d="M65.45,63.4h-29a2.63,2.63,0,0,1-1-.2,2.41,2.41,0,0,1-.79-.54,2.24,2.24,0,0,1-.53-.79,2.44,2.44,0,0,1-.2-1V50.4H46.78v3a1,1,0,0,0,1,1h6.61a1,1,0,0,0,1-1v-3H67.93V60.9a2.43,2.43,0,0,1-.19,1,2.55,2.55,0,0,1-.53.79,2.64,2.64,0,0,1-.79.54A2.71,2.71,0,0,1,65.45,63.4Zm2.48-15.52H34V42a2.51,2.51,0,0,1,.2-1,2.61,2.61,0,0,1,.53-.79,2.81,2.81,0,0,1,.79-.53,2.51,2.51,0,0,1,1-.2h6V34.91a1.92,1.92,0,0,1,.56-1.35A1.88,1.88,0,0,1,44.44,33H57.66a1.91,1.91,0,0,1,1.91,1.91v4.58h5.88a2.51,2.51,0,0,1,1,.2,2.44,2.44,0,0,1,.79.53,2.34,2.34,0,0,1,.53.79,2.27,2.27,0,0,1,.19,1ZM46.78,37.12v2.37h8.53V37.12Z"/><path id="Path_35" data-name="Path 35" class="cls-3" d="M24.5,4.5h53"/><circle id="Ellipse_59" data-name="Ellipse 59" class="cls-4" cx="51" cy="4" r="4"/><circle id="Ellipse_63" data-name="Ellipse 63" class="cls-4" cx="24.5" cy="4.5" r="1.5"/><circle id="Ellipse_64" data-name="Ellipse 64" class="cls-4" cx="76.5" cy="4.5" r="1.5"/></g></svg>
