<svg id="Layer_1" width="75" height="74" data-name="Layer 1" xmlns="http://www.w3.org/2000/svg" viewBox="0 0 101 99"><defs><style>.cls-1{fill:#fff;}.cls-2{fill:none;stroke:#ececec;stroke-width:8px;}.cls-3{fill:#ececec;}.cls-4{fill:#6dbfb0;}.cls-5{fill:#da653f;}</style></defs><title>Artboard 10</title><g id="Group_172" data-name="Group 172"><g id="Group_169" data-name="Group 169"><g id="Ellipse_47" data-name="Ellipse 47"><ellipse class="cls-1" cx="53.5" cy="52" rx="47.5" ry="47"/><ellipse class="cls-2" cx="53.5" cy="52" rx="43.5" ry="43"/></g><g id="Ellipse_49" data-name="Ellipse 49"><circle class="cls-1" cx="19" cy="19" r="19"/><circle class="cls-2" cx="19" cy="19" r="15"/></g><circle id="Ellipse_50" data-name="Ellipse 50" class="cls-3" cx="85" cy="84" r="12"/><circle id="Ellipse_58" data-name="Ellipse 58" class="cls-4" cx="19" cy="19" r="6"/></g><g id="Group_168" data-name="Group 168"><g id="Group_167" data-name="Group 167"><path id="Rectangle_512" data-name="Rectangle 512" class="cls-5" d="M61.52,29.84h0a2,2,0,0,1,.73,2.74L57.38,41a2,2,0,0,1-2.74.73h0A2,2,0,0,1,53.91,39l4.87-8.44A2,2,0,0,1,61.52,29.84Z"/><path id="Rectangle_516" data-name="Rectangle 516" class="cls-5" d="M69.45,34.42h0a2,2,0,0,1,.74,2.74l-4.87,8.43a2,2,0,0,1-2.74.74h0a2,2,0,0,1-.73-2.74l4.87-8.43A2,2,0,0,1,69.45,34.42Z"/><path id="Rectangle_517" data-name="Rectangle 517" class="cls-5" d="M49.45,59.91h0a2,2,0,0,1,.73,2.74l-4.87,8.43a2,2,0,0,1-2.73.73h0a2,2,0,0,1-.74-2.74l4.87-8.43A2,2,0,0,1,49.45,59.91Z"/></g><path id="Union_6" data-name="Union 6" class="cls-5" d="M45.9,46h0l6-10.45,17.36,10L63.26,56h0c-2.59,4.33-8.49,5.63-13.24,2.89S43.45,50.42,45.9,46Z"/></g></g></svg>
