<svg width="37" height="61" viewBox="0 0 37 61" fill="none" xmlns="http://www.w3.org/2000/svg">
<path d="M18.2338 50.95C13.8782 50.95 8.27555 42.5752 6.66211 40.0084C-2.44716 25.8737 -5.24339 9.15715 18.2341 9C41.7114 9.15895 38.9151 25.8727 29.8052 40.0083C28.1921 42.5752 22.5894 50.95 18.2338 50.95Z" fill="#AC8E64"/>
<path d="M22.2051 43.4431C21.5303 43.2434 20.8555 43.1386 20.1816 43.0687C19.7973 43.0288 19.413 43.0028 19.0287 42.9858C19.1275 42.872 19.2263 42.7592 19.3212 42.6423C19.6146 42.2809 19.8912 41.9025 20.1217 41.4781C19.6975 41.7088 19.3192 41.9853 18.9578 42.2789C18.841 42.3738 18.7272 42.4736 18.6134 42.5725C18.5954 42.188 18.5695 41.8036 18.5296 41.4182C18.4587 40.7432 18.3549 40.0683 18.1562 39.3943C17.9576 40.0693 17.8538 40.7442 17.7829 41.4182C17.743 41.8036 17.717 42.188 17.699 42.5735C17.5852 42.4746 17.4714 42.3748 17.3546 42.2789C16.9933 41.9853 16.6149 41.7088 16.1917 41.4771C16.4223 41.9005 16.6998 42.2789 16.9933 42.6404C17.0891 42.7582 17.1889 42.871 17.2878 42.9848C16.9024 43.0028 16.5181 43.0288 16.1328 43.0687C15.458 43.1396 14.7832 43.2434 14.1094 43.4421C14.7842 43.6408 15.459 43.7447 16.1328 43.8156C16.5181 43.8555 16.9024 43.8815 17.2878 43.8994C17.1889 44.0133 17.0891 44.1271 16.9933 44.2439C16.6998 44.6054 16.4233 44.9838 16.1917 45.4071C16.6159 45.1765 16.9933 44.8989 17.3546 44.6054C17.4714 44.5105 17.5842 44.4107 17.698 44.3118C17.716 44.6962 17.742 45.0816 17.7809 45.4661C17.8508 46.141 17.9556 46.816 18.1552 47.49C18.3549 46.815 18.4597 46.14 18.5296 45.4661C18.5695 45.0816 18.5954 44.6972 18.6124 44.3128C18.7262 44.4117 18.839 44.5105 18.9558 44.6064C19.3172 44.8999 19.6955 45.1765 20.1198 45.4071C19.8892 44.9828 19.6126 44.6044 19.3192 44.2429C19.2243 44.1261 19.1245 44.0133 19.0257 43.8994C19.41 43.8815 19.7943 43.8555 20.1786 43.8166C20.8535 43.7467 21.5283 43.6418 22.2021 43.4421L22.2051 43.4431Z" fill="white"/>
<path d="M16.3895 35.0598L13.1543 38.295L9.94445 35.0598L11.3851 33.6192V21.9928L9.94445 23.4587L7.44225 21.0071L13.1543 15.295L14.9488 17.1148V33.6192L16.3895 35.0598ZM27.5866 33.0126L22.2789 38.295L17.5778 33.6192V20.1983L22.5317 15.2697L27.5866 20.3247V33.0126ZM24.0229 31.4203V22.1192L21.1416 19.2126V32.4818L22.0767 33.3917L24.0229 31.4203Z" fill="white"/>
<path d="M7.91079 28.367C6.71765 28.0219 6.39883 27.7031 6.05373 26.51C6.04209 26.4697 5.98496 26.4697 5.97324 26.51C5.62813 27.7031 5.30932 28.0219 4.11618 28.367C4.07586 28.3787 4.07586 28.4358 4.11618 28.4475C5.30932 28.7927 5.62813 29.1114 5.97324 30.3046C5.98488 30.3449 6.04201 30.3449 6.05373 30.3046C6.39891 29.1114 6.71765 28.7926 7.91079 28.4475C7.95111 28.4359 7.95111 28.3788 7.91079 28.367Z" fill="white"/>
<path d="M29.8854 14.8744C28.6923 14.5293 28.3734 14.2104 28.0283 13.0173C28.0167 12.977 27.9596 12.977 27.9478 13.0173C27.6027 14.2104 27.2839 14.5293 26.0908 14.8744C26.0505 14.886 26.0505 14.9431 26.0908 14.9549C27.2839 15.3 27.6027 15.6188 27.9478 16.8119C27.9595 16.8522 28.0166 16.8522 28.0283 16.8119C28.3735 15.6188 28.6923 15.3 29.8854 14.9549C29.9257 14.9432 29.9257 14.8861 29.8854 14.8744Z" fill="white"/>
<path d="M1.99434 8.29166C1.34079 6.71633 0.686022 5.13978 0.03125 3.56445C0.373295 3.42312 0.717783 3.28545 1.06227 3.15265C1.67917 4.74382 2.29608 6.33377 2.91298 7.92493C2.60636 8.04311 2.29974 8.16617 1.99434 8.29166ZM2.04565 5.90856C1.94792 5.65636 1.84897 5.40416 1.75125 5.15196C2.71875 4.77671 3.69602 4.43679 4.68062 4.13099C4.76124 4.38928 4.84187 4.64757 4.92249 4.90586C3.95499 5.20557 2.99605 5.54062 2.04565 5.90856ZM5.50275 7.02213C4.99212 5.39442 4.48028 3.7667 3.96965 2.13898C4.31781 2.03055 4.66718 1.92577 5.01778 1.82465C5.49053 3.46333 5.96329 5.10323 6.43604 6.74191C6.12454 6.83085 5.81303 6.92467 5.50275 7.02092V7.02213Z" fill="#AC8E64"/>
<path d="M8.55078 6.19485C8.93314 4.35514 9.41444 2.51543 9.9947 0.685462C10.349 0.624544 10.7032 0.567282 11.0587 0.514893C12.1875 2.07073 13.2246 3.66677 14.1664 5.29327C13.8256 5.32494 13.486 5.36028 13.1464 5.39926C12.2986 3.95064 11.3775 2.52517 10.3856 1.13138C10.5285 1.10823 10.6702 1.08508 10.8132 1.06315C10.3086 2.69818 9.87987 4.3393 9.52805 5.98285C9.20189 6.04986 8.87695 6.12175 8.552 6.19607L8.55078 6.19485ZM9.37658 4.80349C9.41689 4.54154 9.45964 4.2796 9.50362 4.01765C10.4723 3.82637 11.4459 3.66799 12.422 3.54371C12.5442 3.77886 12.6651 4.014 12.7848 4.25036C11.6438 4.38925 10.5065 4.57444 9.37658 4.80471V4.80349Z" fill="#AC8E64"/>
<path d="M16.3217 5.15081C16.2533 3.44634 16.1849 1.74186 16.1152 0.03739C16.9203 0.00571289 17.7265 -0.00647063 18.5315 0.00327619C19.0519 0.00936794 19.4966 0.0946525 19.8606 0.253038C20.2247 0.411424 20.4983 0.635601 20.6791 0.918258C20.8611 1.20213 20.9368 1.53474 20.9124 1.91365C20.888 2.28769 20.7707 2.60446 20.5655 2.86275C20.3603 3.12226 20.083 3.31719 19.7324 3.45121C19.3818 3.58645 18.9689 3.64858 18.4888 3.64249C17.9342 3.6364 17.3796 3.64006 16.825 3.65589C16.9679 3.50604 17.1121 3.35618 17.2586 3.20754C17.2696 3.84596 17.2806 4.48437 17.2916 5.12279C16.9679 5.12766 16.6442 5.13741 16.3205 5.15081H16.3217ZM17.2623 3.30988C17.1108 3.15637 16.9594 3.00408 16.8054 2.85178C17.3539 2.83716 17.9036 2.83229 18.4534 2.83838C18.9053 2.84325 19.2474 2.76406 19.4832 2.59349C19.7189 2.42414 19.8447 2.17925 19.8594 1.85761C19.8728 1.53596 19.7653 1.28133 19.5332 1.09614C19.3011 0.910948 18.9469 0.811043 18.4741 0.80617C17.9 0.800078 17.3246 0.80617 16.7505 0.82079C16.9032 0.661186 17.0571 0.501582 17.2122 0.343196C17.2293 1.3325 17.2452 2.3218 17.2623 3.3111V3.30988Z" fill="#AC8E64"/>
<path d="M23.1582 5.43453C23.3695 3.74224 23.5797 2.04874 23.791 0.356445C24.5923 0.455132 25.3913 0.575749 26.1865 0.715859C26.7008 0.807235 27.1271 0.964403 27.4631 1.18005C27.7978 1.3957 28.0323 1.6613 28.1667 1.97076C28.3011 2.28144 28.3219 2.62136 28.2351 2.99174C28.1496 3.35724 27.981 3.64965 27.7367 3.87139C27.4912 4.09313 27.1833 4.23933 26.8144 4.31487C26.4443 4.39041 26.0253 4.38432 25.5513 4.30025C25.0028 4.204 24.4531 4.1175 23.9034 4.04196C24.0695 3.91769 24.2369 3.79341 24.4054 3.67036C24.3114 4.30147 24.2185 4.93379 24.1245 5.5649C23.8032 5.51738 23.4819 5.47352 23.1594 5.43332L23.1582 5.43453ZM24.3896 3.7727C24.265 3.59726 24.1391 3.42182 24.0121 3.24638C24.5569 3.32069 25.1018 3.40598 25.6441 3.50101C26.0912 3.57898 26.4418 3.55827 26.7045 3.42791C26.9659 3.29876 27.132 3.07824 27.1968 2.76391C27.2627 2.44957 27.198 2.18032 26.9989 1.95858C26.7998 1.73806 26.465 1.58211 25.9972 1.49926C25.4291 1.39935 24.8599 1.31041 24.2894 1.23244C24.4665 1.09964 24.6449 0.966839 24.8245 0.836476C24.6791 1.81481 24.5337 2.79437 24.3883 3.7727H24.3896Z" fill="#AC8E64"/>
<path d="M31.1285 7.22546C31.3411 6.58461 31.5536 5.94376 31.7662 5.30291C31.7808 5.51003 31.7943 5.71836 31.8077 5.92548C31.4437 4.5122 31.0112 3.10013 30.5079 1.69171C30.883 1.79527 31.258 1.9037 31.6306 2.01701C32.0093 3.16226 32.3415 4.31117 32.6286 5.45885C32.4332 5.39063 32.2377 5.3224 32.041 5.25661C32.9731 4.52803 33.943 3.8287 34.9509 3.15861C35.2905 3.29019 35.6288 3.42543 35.966 3.56432C34.6955 4.36356 33.4813 5.21153 32.3257 6.10336C32.4613 5.9462 32.5969 5.79025 32.7349 5.63552C32.5077 6.27149 32.2805 6.90747 32.052 7.54224C31.7454 7.43258 31.4363 7.32781 31.1273 7.22546H31.1285Z" fill="#AC8E64"/>
<path d="M2.96599 57.5715C3.19199 56.9355 3.41798 56.2996 3.64398 55.6636C3.65619 55.8719 3.66963 56.0815 3.68551 56.2898C3.29338 54.8583 2.97332 53.4267 2.72656 52C3.05151 52.134 3.37645 52.2632 3.70383 52.3887C3.93227 53.5327 4.20713 54.6804 4.52963 55.8268C4.32929 55.7598 4.12773 55.6928 3.92861 55.6234C4.88267 54.9094 5.79764 54.1662 6.67107 53.395C6.98014 53.4864 7.29042 53.5741 7.60192 53.6582C6.54281 54.6389 5.42017 55.5807 4.23645 56.4762C4.37326 56.3191 4.50886 56.1607 4.64446 56.0023C4.43434 56.6444 4.22301 57.2852 4.0129 57.9261C3.66352 57.8115 3.31537 57.6934 2.96844 57.5703L2.96599 57.5715Z" fill="#AC8E64"/>
<path d="M8.49414 59.1419C8.85695 57.4752 9.22099 55.8085 9.5838 54.1418C10.8371 54.4135 12.1003 54.6255 13.3683 54.7753C13.3365 55.0409 13.3048 55.3077 13.273 55.5733C12.3079 55.4588 11.3466 55.309 10.39 55.1262C10.1689 56.2751 9.94783 57.424 9.72672 58.5717C10.8029 58.7776 11.8865 58.9445 12.9725 59.0712C12.9419 59.3381 12.9102 59.6037 12.8784 59.8705C11.4089 59.6999 9.94539 59.4562 8.49414 59.1419ZM9.91241 57.1791C9.96249 56.9233 10.0126 56.6674 10.0614 56.4116C10.963 56.5858 11.8694 56.7308 12.7783 56.8465C12.7453 57.1048 12.7123 57.3643 12.6793 57.6226C11.7533 57.5044 10.831 57.357 9.91241 57.1791Z" fill="#AC8E64"/>
<path d="M14.9473 60.0643C15.9526 58.4256 16.8591 56.7528 17.6653 55.0569C17.9854 55.0605 18.3042 55.0605 18.6242 55.0569C19.4329 56.7528 20.343 58.4256 21.3508 60.0643C20.966 60.0911 20.5812 60.1143 20.1952 60.1313C19.367 58.6291 18.6145 57.1049 17.9402 55.5649C18.0721 55.5649 18.2028 55.5649 18.3347 55.5649C17.6567 57.1062 16.9018 58.6291 16.0687 60.1301C15.6949 60.113 15.3211 60.0911 14.9473 60.0655V60.0643ZM16.2214 58.9507C16.3313 58.7071 16.4388 58.4622 16.5451 58.2173C17.5602 58.2551 18.5766 58.2563 19.5917 58.2222C19.6944 58.467 19.7982 58.7119 19.9045 58.9568C18.678 59.0056 17.4491 59.0031 16.2226 58.9495L16.2214 58.9507Z" fill="#AC8E64"/>
<path d="M23.7829 59.8265C23.5704 58.1343 23.359 56.442 23.1465 54.7485C23.8587 54.6595 24.5684 54.5523 25.2769 54.4244C25.9671 54.3001 26.5364 54.3452 27.0018 54.5742C27.466 54.8033 27.7702 55.1858 27.9021 55.7365C27.9889 56.102 27.9718 56.4371 27.8435 56.7417C27.7152 57.0463 27.4892 57.3094 27.1667 57.5275C26.843 57.7456 26.4289 57.9028 25.928 57.9917C25.3502 58.0953 24.77 58.1879 24.1897 58.2683C24.3241 58.1075 24.4572 57.9454 24.5892 57.7822C24.6845 58.4133 24.7785 59.0444 24.8738 59.6767C24.511 59.7303 24.1482 59.7803 23.7842 59.8265H23.7829ZM24.6038 57.8845C24.4279 57.7554 24.2545 57.625 24.0822 57.4946C24.6368 57.4179 25.1902 57.3301 25.7424 57.2315C26.1968 57.1498 26.5217 56.9939 26.7123 56.7709C26.9041 56.548 26.9639 56.2775 26.8968 55.9632C26.8296 55.6488 26.6659 55.4283 26.4118 55.2979C26.1565 55.1688 25.8157 55.1456 25.3832 55.2224C24.8579 55.3162 24.3302 55.3991 23.8025 55.4722C23.9246 55.2979 24.0456 55.1225 24.1653 54.9471C24.3119 55.9254 24.4585 56.9037 24.6063 57.8821L24.6038 57.8845ZM27.6077 59.1833C26.9884 58.6813 26.3886 58.1684 25.8071 57.6433C26.1772 57.5775 26.5474 57.5068 26.9163 57.4313C27.5137 57.9405 28.1306 58.4376 28.7658 58.9225C28.3798 59.0151 27.9937 59.1028 27.6065 59.1845L27.6077 59.1833Z" fill="#AC8E64"/>
<path d="M33.2863 57.6642C32.8441 57.8201 32.4019 57.9066 31.9633 57.9274C31.5248 57.9468 31.1583 57.903 30.8651 57.8019C30.9164 57.5302 30.9653 57.2585 31.0129 56.9868C31.2817 57.0733 31.5981 57.1159 31.9609 57.1098C32.3237 57.105 32.6792 57.0416 33.0237 56.9198C33.3144 56.8174 33.5404 56.7041 33.6992 56.5823C33.858 56.4617 33.9606 56.3374 34.0083 56.2119C34.0559 56.0864 34.0559 55.9646 34.0107 55.8464C33.9545 55.7014 33.8495 55.6064 33.698 55.5625C33.5465 55.5187 33.3669 55.5053 33.1605 55.5211C32.954 55.537 32.7293 55.5638 32.4849 55.6003C32.2418 55.6369 31.9939 55.66 31.7447 55.671C31.4942 55.6819 31.2585 55.6673 31.0374 55.6271C30.8163 55.5869 30.6232 55.4992 30.4571 55.3664C30.2922 55.2336 30.1713 55.035 30.0931 54.773C30.0137 54.5074 30.0161 54.2406 30.0992 53.9738C30.181 53.707 30.352 53.4609 30.611 53.2306C30.87 53.0016 31.2255 52.8091 31.6824 52.6458C31.9829 52.5386 32.2919 52.4655 32.6144 52.4265C32.9369 52.3863 33.2338 52.3887 33.5074 52.435C33.5037 52.7031 33.4976 52.9699 33.4891 53.2391C33.2106 53.2026 32.9394 53.2002 32.6731 53.2294C32.408 53.2586 32.1637 53.3135 31.9413 53.3927C31.6836 53.484 31.482 53.5864 31.3366 53.7033C31.1913 53.8191 31.096 53.9397 31.052 54.064C31.008 54.1882 31.0056 54.3113 31.0447 54.4319C31.0936 54.5805 31.1876 54.6817 31.3305 54.7341C31.4735 54.7877 31.6445 54.8084 31.8461 54.7962C32.0464 54.784 32.2687 54.7609 32.5118 54.7255C32.7549 54.6902 32.998 54.6622 33.2423 54.6402C33.4866 54.6183 33.7212 54.6195 33.946 54.6427C34.1707 54.667 34.3723 54.7353 34.5519 54.8486C34.7314 54.9619 34.8731 55.1422 34.9758 55.3895C35.0808 55.6417 35.0991 55.9073 35.0271 56.1863C34.955 56.4653 34.7779 56.737 34.4932 56.9953C34.2086 57.2536 33.8055 57.4802 33.2875 57.6618L33.2863 57.6642Z" fill="#AC8E64"/>
</svg>
