<svg width="240" height="121" viewBox="0 0 240 121" fill="none" xmlns="http://www.w3.org/2000/svg">
<rect x="0.872559" width="238.854" height="120.382" rx="9.55414" fill="#0E214B"/>
<mask id="mask0_2085_3963" style="mask-type:luminance" maskUnits="userSpaceOnUse" x="45" y="44" width="150" height="31">
<path d="M194.822 44.9045H45.7771V74.904H194.822V44.9045Z" fill="white"/>
</mask>
<g mask="url(#mask0_2085_3963)">
<path d="M67.0507 71.6935H51.2807C48.2467 71.6935 45.7771 69.2239 45.7771 66.1781V50.4081C45.7771 47.3741 48.2467 44.9045 51.2807 44.9045H67.0507C70.0965 44.9045 72.5543 47.3741 72.5543 50.4081V66.1781C72.5661 69.2239 70.0965 71.6935 67.0507 71.6935Z" fill="#FDDB32"/>
<path d="M53.9597 66.4843V63.8853C53.9597 63.6736 53.795 63.509 53.5834 63.509H50.9845C50.7728 63.509 50.6082 63.6736 50.6082 63.8853V66.4843C50.6082 66.696 50.7728 66.8606 50.9845 66.8606H53.5834C53.795 66.8606 53.9597 66.696 53.9597 66.4843Z" fill="#191E3B"/>
<path d="M67.7335 64.2495V51.4431C67.7335 50.4905 66.9691 49.7261 66.0165 49.7261H53.21C52.9513 49.7261 52.7984 49.8202 52.6338 49.9848L50.0819 52.5602C49.8937 52.7484 50.0231 53.0306 50.3053 53.0306H61.8888L54.7035 60.2159C54.5742 60.3452 54.5154 60.4746 54.5154 60.6863V62.5797C54.5154 62.8031 54.6683 62.956 54.8917 62.956H56.785C57.0084 62.956 57.1378 62.8972 57.2554 62.7678L64.4407 55.5825V67.1659C64.4407 67.4482 64.7229 67.5776 64.9111 67.3894L67.4865 64.8258C67.6394 64.6611 67.7335 64.5083 67.7335 64.2495Z" fill="#191E3B"/>
<path d="M106.612 60.9451L111.857 53.7011C112.009 53.4776 111.892 53.2542 111.633 53.2542H108.775C108.623 53.2542 108.423 53.313 108.329 53.4776L104.871 58.5226L101.331 53.4776C101.237 53.3247 101.049 53.2542 100.885 53.2542H97.8388C97.6859 53.2542 97.5801 53.3835 97.5801 53.5129C97.5801 53.5717 97.5801 53.6422 97.6388 53.7011L102.896 60.9687L97.0979 68.9419C96.945 69.1653 97.0626 69.3887 97.2861 69.3887H100.167C100.32 69.3887 100.52 69.3299 100.614 69.1653L104.624 63.3912L108.693 69.1653C108.787 69.3299 108.975 69.3887 109.14 69.3887H112.209C112.362 69.3887 112.468 69.2594 112.468 69.13C112.468 69.0712 112.433 69.0006 112.409 68.9419L106.612 60.9451Z" fill="white"/>
<path d="M94.8981 47.1975C95.1215 47.1975 95.2744 47.3504 95.2744 47.5738V49.7259C95.2744 49.9493 95.1215 50.1022 94.8981 50.1022H84.6552V56.4995H93.8515C94.0749 56.4995 94.2278 56.6524 94.2278 56.8759V59.0161C94.2278 59.2396 94.0749 59.3925 93.8515 59.3925H84.6552V66.4014H94.8981C95.1215 66.4014 95.2744 66.5542 95.2744 66.7777V69.0003C95.2744 69.2238 95.1215 69.3766 94.8981 69.3766H82.9147C81.9975 69.3766 81.3037 68.6828 81.3037 67.7655V48.8086C81.3037 47.8913 81.9975 47.1975 82.9147 47.1975H94.8981Z" fill="white"/>
<path d="M123.262 52.7485C120.158 52.7485 118.511 54.1126 117.558 55.3827V53.6305C117.558 53.407 117.406 53.2542 117.182 53.2542H114.677C114.454 53.2542 114.301 53.4188 114.301 53.6305V74.516C114.301 74.7395 114.454 74.8924 114.677 74.8924H117.217C117.441 74.8924 117.594 74.7395 117.594 74.516V67.319C118.511 68.589 120.158 69.8591 123.262 69.8591C128.307 69.8591 131.247 66.0607 131.247 61.2979C131.247 56.5352 128.307 52.7485 123.262 52.7485ZM122.697 67.1308C119.593 67.1308 117.465 65.0376 117.465 61.3332C117.465 57.6289 119.593 55.465 122.697 55.465C125.802 55.465 127.896 57.6171 127.896 61.3332C127.896 65.0376 125.802 67.1308 122.697 67.1308Z" fill="white"/>
<path d="M141.243 52.7485C136.833 52.7485 133.317 55.9237 133.317 61.1804C133.317 66.5663 136.421 69.8709 141.654 69.8709C144.665 69.8709 147.17 68.542 148.722 66.6957C148.816 66.6016 148.851 66.5076 148.851 66.4134C148.851 66.3194 148.816 66.2253 148.722 66.1313L147.264 64.6965C147.17 64.6024 147.075 64.5672 146.982 64.5672C146.888 64.5672 146.793 64.626 146.7 64.7201C145.5 66.0254 143.936 67.1308 141.69 67.1308C138.408 67.1308 136.833 65.1082 136.586 62.1917H148.757C148.98 62.1917 149.134 62.027 149.134 61.8154V61.1804C149.134 56.3587 146.217 52.7485 141.243 52.7485ZM136.703 59.7221C137.08 57.0761 138.467 55.3474 141.22 55.3474C144.042 55.3474 145.535 56.9585 145.746 59.7221H136.703Z" fill="white"/>
<path d="M194.456 53.2538H191.952C191.728 53.2538 191.575 53.4068 191.575 53.6302V55.4059C190.623 54.1358 188.976 52.7717 185.801 52.7717C180.827 52.7717 177.875 56.5702 177.875 61.3329C177.875 66.0957 180.827 69.8941 185.801 69.8941C188.976 69.8941 190.623 68.5299 191.575 67.2599V69.0003C191.575 69.2237 191.728 69.3767 191.952 69.3767H194.456C194.68 69.3767 194.833 69.2237 194.833 69.0003V53.6302C194.844 53.4068 194.68 53.2538 194.456 53.2538ZM186.436 67.1658C183.332 67.1658 181.238 65.0138 181.238 61.2976C181.238 57.5933 183.332 55.5 186.436 55.5C189.541 55.5 191.669 57.5933 191.669 61.2976C191.669 65.0138 189.541 67.1658 186.436 67.1658Z" fill="white"/>
<path d="M167.776 47.1975H165.235C165.012 47.1975 164.86 47.3504 164.86 47.5738V55.4059C163.906 54.1358 162.296 52.7717 159.121 52.7717C154.146 52.7717 151.195 56.5701 151.195 61.3328C151.195 66.0956 154.146 69.894 159.121 69.894C162.296 69.894 163.942 68.5299 164.894 67.2598V69.0003C164.894 69.2238 165.047 69.3766 165.271 69.3766H167.776C167.999 69.3766 168.152 69.2238 168.152 69.0003V47.5738C168.152 47.3504 167.999 47.1975 167.776 47.1975ZM159.755 67.1658C156.651 67.1658 154.558 65.0137 154.558 61.2976C154.558 57.5932 156.651 55.5 159.755 55.5C162.86 55.5 164.989 57.5932 164.989 61.2976C164.989 65.0137 162.86 67.1658 159.755 67.1658Z" fill="white"/>
<path d="M174.678 47.1975C174.902 47.1975 175.054 47.3504 175.054 47.5738V50.1728C175.054 50.3962 174.902 50.5491 174.678 50.5491H172.079C171.856 50.5491 171.703 50.3962 171.703 50.1728V47.5738C171.703 47.3504 171.856 47.1975 172.079 47.1975H174.678Z" fill="white"/>
<path d="M174.653 53.2539C174.876 53.2539 175.028 53.4068 175.028 53.6303V69.0004C175.028 69.2238 174.876 69.3767 174.653 69.3767H172.112C171.889 69.3767 171.736 69.2238 171.736 69.0004V53.6303C171.736 53.4068 171.889 53.2539 172.112 53.2539H174.653Z" fill="white"/>
</g>
</svg>
