<svg width="239" height="121" viewBox="0 0 239 121" fill="none" xmlns="http://www.w3.org/2000/svg">
<rect x="0.560497" y="0.414013" width="238.025" height="119.554" rx="9.14013" fill="white" stroke="#D9D9D9" stroke-width="0.828026"/>
<path d="M24.1562 73.6452H46.3683V45.1423H24.1562V73.6452ZM30.5354 56.054V72.4613H28.5298V52.8556L30.5354 56.0452V56.054ZM31.7193 66.4709H38.8141V68.4765H31.7105V66.4709H31.7193ZM38.8141 65.2869H31.7105V63.2813H38.8053V65.2869H38.8141ZM38.8141 62.0974H36.1988L38.8141 57.9359V62.0974ZM31.7193 62.0974V57.9359L34.3346 62.0974H31.7193ZM31.7193 69.6516H38.8141V72.4613H31.7105V69.6516H31.7193ZM39.998 56.0452L42.0037 52.8556V72.4613H39.998V56.0452ZM38.8318 55.6741H38.8141V55.7006L35.2623 61.3464L31.7105 55.7006V55.6741H31.6928L25.8173 46.3263H28.3L35.2623 57.4058L42.2246 46.3263H44.7073L38.8229 55.6829L38.8318 55.6741ZM35.2623 51.2034L38.3282 46.3174H40.8286L35.2623 55.1793L29.696 46.3263H32.1964L35.2623 51.2122V51.2034ZM33.5924 46.3174H36.9322L35.2623 48.9769L33.5924 46.3174ZM25.3402 47.7841L27.3458 50.9737V72.4613H25.3402V47.7841ZM43.1788 72.4613V50.9737L45.1844 47.7841V72.4613H43.1788Z" fill="#F79565"/>
<path d="M137.743 57.1675C136.772 58.051 135.596 58.2896 134.801 58.2896C132.928 58.2896 131.727 57.2823 131.727 55.7362C131.727 54.19 133.061 53.3683 134.236 52.8382C133.335 51.7868 132.813 50.9209 132.813 49.9667C132.813 48.3763 134.147 47.4751 135.755 47.4751C137.081 47.4751 138.229 48.2438 138.229 49.4984C138.229 50.3378 137.752 51.3008 135.994 52.0341L138.786 55.4269C139.007 55.0382 139.369 54.3755 139.555 53.8631C139.793 53.0855 139.555 52.5378 138.132 52.3611V52.1225H141.658V52.3611C140.456 52.5113 140.279 52.9 139.979 53.6775C139.661 54.5522 139.307 55.2237 139.016 55.692L140.235 57.1763C140.562 57.5827 140.853 57.7948 141.304 57.8832V58.1217H138.592L137.77 57.1498L137.743 57.1675ZM134.439 53.0855C133.988 53.5362 133.573 54.4639 133.573 55.4269C133.573 56.7964 134.298 57.6976 135.508 57.6976C136.18 57.6976 136.948 57.4414 137.523 56.9024L134.448 53.0944L134.439 53.0855ZM135.897 47.8639C135.128 47.8639 134.695 48.5972 134.695 49.304C134.695 50.2759 135.04 50.8767 135.791 51.7956C136.78 51.1064 137.143 50.2494 137.143 49.4984C137.143 48.5265 136.772 47.8639 135.897 47.8639Z" fill="#231F20"/>
<path d="M56.741 47.6338H59.1088V52.0161H63.8711V47.6338H66.239V58.139H63.8711V53.9952H59.1088V58.139H56.741V47.6338Z" fill="#231F20"/>
<path d="M79.3153 48.1731C80.1724 48.6414 80.8527 49.2952 81.3475 50.1169C81.8422 50.9386 82.0896 51.8574 82.0896 52.8735C82.0896 53.8896 81.8422 54.8084 81.3475 55.639C80.8527 56.4695 80.1724 57.1233 79.3153 57.6004C78.4583 58.0775 77.4953 58.3161 76.4438 58.3161C75.3924 58.3161 74.4382 58.0775 73.5812 57.6004C72.7242 57.1233 72.0438 56.4783 71.5491 55.6478C71.0543 54.8261 70.8069 53.8984 70.8069 52.8823C70.8069 51.8663 71.0543 50.9562 71.5491 50.1257C72.0438 49.2952 72.7242 48.6502 73.5724 48.1819C74.4294 47.7137 75.3836 47.4751 76.4438 47.4751C77.5041 47.4751 78.4495 47.7137 79.3153 48.1819M74.8535 49.9932C74.3499 50.2847 73.9611 50.6912 73.6695 51.2036C73.378 51.7161 73.2366 52.2727 73.2366 52.8823C73.2366 53.492 73.3868 54.0663 73.6784 54.5787C73.9699 55.0912 74.3675 55.4976 74.8623 55.798C75.3571 56.0984 75.8961 56.2486 76.4792 56.2486C77.0623 56.2486 77.5924 56.0984 78.0784 55.8068C78.5643 55.5153 78.9531 55.1088 79.2358 54.5876C79.5185 54.0751 79.6599 53.5008 79.6599 52.8823C79.6599 52.2639 79.5185 51.7072 79.2358 51.2036C78.9531 50.6912 78.5643 50.2936 78.0784 49.9932C77.5924 49.7016 77.0623 49.5514 76.4792 49.5514C75.8961 49.5514 75.3571 49.7016 74.8623 49.9932" fill="#231F20"/>
<path d="M86.6575 47.6338H89.2992L92.5683 54.0924L95.8109 47.6338H98.4438V58.139H96.3057V51.0442L93.3193 57.0788H91.7908L88.7868 51.0442V58.139H86.6575V47.6338Z" fill="#231F20"/>
<path d="M103.771 47.6338H111.776V49.5952H106.139V51.8836H111.202V53.845H106.139V56.1776H111.935V58.139H103.771V47.6338Z" fill="#231F20"/>
<path d="M122.008 49.772C121.398 49.5776 120.886 49.4804 120.453 49.4804C120.02 49.4804 119.719 49.5511 119.481 49.7013C119.242 49.8515 119.119 50.0724 119.119 50.364C119.119 50.735 119.295 51.0178 119.64 51.2122C119.984 51.4065 120.515 51.6097 121.239 51.8218C121.964 52.0338 122.556 52.2459 123.015 52.4491C123.483 52.6611 123.881 52.9704 124.208 53.3945C124.535 53.8186 124.702 54.3664 124.702 55.0644C124.702 55.7624 124.526 56.3102 124.172 56.7961C123.819 57.282 123.324 57.6531 122.706 57.9005C122.087 58.1479 121.38 58.2716 120.585 58.2716C119.737 58.2716 118.898 58.1214 118.076 57.821C117.254 57.5206 116.547 57.1053 115.947 56.5929L116.892 54.6579C117.422 55.135 118.032 55.5238 118.721 55.8154C119.41 56.1069 120.046 56.2483 120.612 56.2483C121.098 56.2483 121.486 56.16 121.76 55.9744C122.034 55.7977 122.176 55.5326 122.176 55.1969C122.176 54.923 122.087 54.7021 121.902 54.5254C121.716 54.3487 121.478 54.2073 121.195 54.1013C120.912 53.9953 120.515 53.8628 120.02 53.7302C119.295 53.527 118.712 53.3326 118.253 53.1294C117.793 52.9262 117.404 52.6258 117.078 52.2105C116.751 51.8041 116.583 51.2563 116.583 50.576C116.583 49.9487 116.751 49.3921 117.095 48.915C117.44 48.4378 117.908 48.0756 118.518 47.8194C119.127 47.5631 119.843 47.4395 120.647 47.4395C121.372 47.4395 122.078 47.5455 122.776 47.7575C123.474 47.9696 124.102 48.2523 124.641 48.5969L123.722 50.5672C123.183 50.2403 122.609 49.9752 121.999 49.7808" fill="#231F20"/>
<path d="M147.109 47.6338H149.662L152.534 55.5591L155.414 47.6338H157.862L153.683 58.139H151.235L147.109 47.6338Z" fill="#231F20"/>
<path d="M164.488 47.6338H162.12V58.139H164.488V47.6338Z" fill="#231F20"/>
<path d="M169.931 47.6338H172.299V56.0716H176.805V58.139H169.931V47.6338Z" fill="#231F20"/>
<path d="M181.319 47.6338H183.696V56.0716H188.202V58.139H181.319V47.6338Z" fill="#231F20"/>
<path d="M200.536 58.139L199.715 56.0981H194.846L194.025 58.139H191.577L196.145 47.6338H198.593L203.081 58.139H200.545H200.536ZM195.624 54.1896H198.946L197.294 50.1077L195.624 54.1896Z" fill="#231F20"/>
<path d="M212.42 49.772C211.81 49.5776 211.298 49.4804 210.865 49.4804C210.432 49.4804 210.132 49.5511 209.893 49.7013C209.654 49.8515 209.531 50.0724 209.531 50.364C209.531 50.735 209.707 51.0178 210.052 51.2122C210.397 51.4065 210.927 51.6097 211.651 51.8218C212.376 52.0338 212.968 52.2459 213.427 52.4491C213.895 52.6611 214.293 52.9704 214.62 53.3945C214.947 53.8186 215.115 54.3664 215.115 55.0644C215.115 55.7624 214.938 56.3102 214.585 56.7961C214.231 57.282 213.736 57.6531 213.118 57.9005C212.499 58.1479 211.793 58.2716 210.997 58.2716C210.149 58.2716 209.31 58.1214 208.488 57.821C207.667 57.5206 206.96 57.1053 206.359 56.5929L207.304 54.6579C207.834 55.135 208.444 55.5238 209.133 55.8154C209.822 56.1069 210.458 56.2483 211.024 56.2483C211.51 56.2483 211.899 56.16 212.173 55.9744C212.446 55.7977 212.588 55.5326 212.588 55.1969C212.588 54.923 212.499 54.7021 212.314 54.5254C212.128 54.3487 211.89 54.2073 211.607 54.1013C211.324 53.9953 210.927 53.8628 210.432 53.7302C209.707 53.527 209.124 53.3326 208.665 53.1294C208.205 52.9262 207.817 52.6258 207.49 52.2105C207.163 51.8041 206.995 51.2563 206.995 50.576C206.995 49.9487 207.163 49.3921 207.507 48.915C207.852 48.4378 208.32 48.0756 208.93 47.8194C209.54 47.5631 210.255 47.4395 211.059 47.4395C211.784 47.4395 212.491 47.5455 213.189 47.7575C213.887 47.9696 214.514 48.2523 215.053 48.5969L214.134 50.5672C213.595 50.2403 213.021 49.9752 212.411 49.7808" fill="#231F20"/>
<path d="M111.794 71.4363C110.469 71.4363 109.4 70.3584 109.4 69.0419C109.4 67.7255 110.478 66.6476 111.794 66.6476C113.111 66.6476 114.189 67.7255 114.189 69.0419C114.189 70.3584 113.111 71.4363 111.794 71.4363ZM111.794 65.4636C109.824 65.4636 108.225 67.0628 108.225 69.0331C108.225 71.0034 109.824 72.6026 111.794 72.6026C113.765 72.6026 115.364 71.0034 115.364 69.0331C115.364 67.0628 113.765 65.4636 111.794 65.4636Z" fill="#231F20"/>
<path d="M174.331 65.605L172.334 68.45L170.337 65.605H168.968L171.733 69.5102V72.4701H172.935V69.5102H172.944L175.7 65.605H174.331Z" fill="#231F20"/>
<path d="M134.466 66.6034H136.489C137.046 66.6034 137.505 67.0098 137.505 67.5135C137.505 68.0171 137.046 68.4235 136.489 68.4235H134.466V66.6034ZM138.15 68.9006L138.053 68.8299L138.132 68.7504C138.459 68.4058 138.645 67.9641 138.645 67.5135C138.645 66.4532 137.673 65.5962 136.48 65.5962H133.255V72.4701H136.666C137.929 72.4701 138.954 71.5601 138.954 70.4468C138.954 69.8548 138.662 69.2894 138.141 68.9006M136.657 71.4629H134.448V69.4219H136.657C137.284 69.4219 137.805 69.8813 137.805 70.4468C137.805 71.0123 137.293 71.4629 136.657 71.4629Z" fill="#231F20"/>
<path d="M159.01 70.1817L157.022 65.605H155.706L158.736 72.4701H159.293L162.324 65.605H160.998L159.01 70.1817Z" fill="#231F20"/>
<path d="M143.752 71.4363C142.426 71.4363 141.357 70.3584 141.357 69.0419C141.357 67.7255 142.435 66.6476 143.752 66.6476C145.068 66.6476 146.146 67.7255 146.146 69.0419C146.146 70.3584 145.068 71.4363 143.752 71.4363ZM143.752 65.4636C141.781 65.4636 140.182 67.0628 140.182 69.0331C140.182 71.0034 141.781 72.6026 143.752 72.6026C145.722 72.6026 147.321 71.0034 147.321 69.0331C147.321 67.0628 145.722 65.4636 143.752 65.4636Z" fill="#231F20"/>
<path d="M153.259 70.0315L149.353 65.605H148.761V72.4701H149.954V68.0435L153.859 72.4701H154.46V65.605H153.259V70.0315Z" fill="#231F20"/>
<path d="M168.791 71.4717H162.756V72.4789H168.791V71.4717Z" fill="#231F20"/>
<path d="M165.769 69.2452C165.01 69.2452 164.391 68.6267 164.391 67.8668C164.391 67.107 165.01 66.4885 165.769 66.4885C166.529 66.4885 167.148 67.107 167.148 67.8668C167.148 68.6267 166.529 69.2452 165.769 69.2452ZM165.769 65.4636C164.444 65.4636 163.375 66.5415 163.375 67.858C163.375 69.1745 164.453 70.2524 165.769 70.2524C167.086 70.2524 168.164 69.1745 168.164 67.858C168.164 66.5415 167.086 65.4636 165.769 65.4636Z" fill="#231F20"/>
<path d="M72.5652 72.4701V65.605H73.9435L76.117 69.5102L78.2993 65.605H79.6688V72.4701H78.476V67.6106L76.5588 71.1359H75.6841L73.7668 67.6106V72.4701H72.5652Z" fill="#231F20"/>
<path d="M83.6358 70.1111L84.7314 67.752L85.827 70.1111H83.6358ZM85.0141 65.5962H84.4487L81.2679 72.4701H82.5491L83.1675 71.1271H86.3041L86.9226 72.4701H88.2037L85.023 65.5962H85.0141Z" fill="#231F20"/>
<path d="M90.9604 66.6034H93.1692C93.8054 66.6034 94.3178 67.0629 94.3178 67.6195C94.3178 68.1761 93.8054 68.6444 93.1692 68.6444H90.9604V66.6034ZM93.4961 69.6251C94.6006 69.4837 95.4576 68.6444 95.4576 67.6195C95.4576 66.5062 94.4327 65.5962 93.1692 65.5962H89.7588V72.4701H90.9604V69.6516H92.1443L94.0881 72.4701H95.4576L93.4961 69.6251Z" fill="#231F20"/>
<path d="M98.6383 66.6034H100.847C101.483 66.6034 101.996 67.0629 101.996 67.6195C101.996 68.1761 101.483 68.6444 100.847 68.6444H98.6383V66.6034ZM101.174 69.6251C102.278 69.4837 103.135 68.6444 103.135 67.6195C103.135 66.5062 102.111 65.5962 100.847 65.5962H97.4366V72.4613H98.6383V69.6428H99.8222L101.766 72.4613H103.135L101.174 69.6163V69.6251Z" fill="#231F20"/>
<path d="M106.369 65.605H105.168V72.4789H106.369V65.605Z" fill="#231F20"/>
<path d="M121.54 65.605H116.229V66.7006H118.288V72.4701H119.49V66.7006H121.54V65.605Z" fill="#231F20"/>
<path d="M128.042 65.605H122.732V66.7006H124.791V72.4701H125.984V66.7006H128.042V65.605Z" fill="#231F20"/>
<path d="M176.778 66.9913C176.681 66.9913 176.592 66.9736 176.504 66.9383C176.416 66.903 176.345 66.85 176.283 66.7882C176.221 66.7264 176.168 66.6557 176.133 66.5674C176.098 66.4792 176.08 66.3909 176.08 66.2937C176.08 66.1966 176.098 66.1083 176.133 66.02C176.168 65.9317 176.221 65.8611 176.283 65.7993C176.345 65.7375 176.416 65.6845 176.504 65.6492C176.592 65.6139 176.681 65.5962 176.778 65.5962C176.875 65.5962 176.963 65.6139 177.051 65.6492C177.14 65.6845 177.21 65.7375 177.272 65.7993C177.334 65.8611 177.387 65.9317 177.422 66.02C177.458 66.1083 177.475 66.1966 177.475 66.2937C177.475 66.3909 177.458 66.4792 177.422 66.5674C177.387 66.6557 177.334 66.7264 177.272 66.7882C177.21 66.85 177.131 66.903 177.051 66.9383C176.972 66.9736 176.875 66.9913 176.778 66.9913ZM176.778 66.8588C176.857 66.8588 176.928 66.8412 176.998 66.8147C177.069 66.7882 177.122 66.744 177.175 66.6911C177.228 66.6381 177.263 66.5763 177.29 66.5145C177.316 66.4438 177.334 66.3732 177.334 66.2937C177.334 66.2143 177.325 66.1436 177.29 66.073C177.263 66.0024 177.228 65.9405 177.175 65.8964C177.131 65.8434 177.069 65.8081 176.998 65.7728C176.937 65.7463 176.857 65.7286 176.787 65.7286C176.716 65.7286 176.636 65.7463 176.566 65.7728C176.495 65.7993 176.442 65.8434 176.389 65.8964C176.336 65.9494 176.301 66.0112 176.274 66.073C176.248 66.1436 176.23 66.2143 176.23 66.2937C176.23 66.3732 176.239 66.4438 176.274 66.5145C176.301 66.5851 176.336 66.6469 176.389 66.6911C176.442 66.744 176.495 66.7794 176.566 66.8147C176.636 66.8412 176.707 66.8588 176.787 66.8588M176.548 65.9405H176.822C176.822 65.9405 176.901 65.9405 176.937 65.9582C176.963 65.967 176.99 65.9847 177.016 66.0112C177.034 66.0288 177.051 66.0553 177.06 66.0818C177.069 66.1083 177.078 66.126 177.078 66.1525C177.078 66.1966 177.069 66.2408 177.043 66.2761C177.016 66.3114 176.981 66.3379 176.937 66.3555L177.113 66.6469H176.963L176.804 66.3732H176.689V66.6469H176.557V65.9405H176.548ZM176.813 66.2672C176.813 66.2672 176.884 66.2584 176.901 66.2408C176.919 66.2231 176.928 66.1966 176.928 66.1613C176.928 66.126 176.919 66.0995 176.901 66.0818C176.884 66.0642 176.848 66.0553 176.804 66.0553H176.681V66.2672H176.813Z" fill="#231F20"/>
<path d="M57.7924 71.9488V72.4612H56.7322V65.605H57.8631V68.1319C58.1282 67.858 58.676 67.6018 59.3209 67.6018C60.5756 67.6018 61.6446 68.5825 61.6446 70.0845C61.6446 71.5865 60.5667 72.5672 59.2768 72.5672C58.5434 72.5672 58.084 72.2933 57.8013 71.9576L57.7924 71.9488ZM60.5137 70.0757C60.5137 69.2275 59.9129 68.662 59.1531 68.662C58.3932 68.662 57.7924 69.2186 57.7924 70.0757C57.7924 70.9327 58.3932 71.4893 59.1531 71.4893C59.9129 71.4893 60.5137 70.9327 60.5137 70.0757Z" fill="#231F20"/>
<path d="M64.3836 71.8516L62.4575 67.699H63.7298L65.0198 70.5705L66.3981 67.699H67.6262L64.3041 74.4757H63.0848L64.3748 71.8516H64.3836Z" fill="#231F20"/>
</svg>
