<svg width="239" height="121" viewBox="0 0 239 121" fill="none" xmlns="http://www.w3.org/2000/svg">
<rect width="238.854" height="120.382" rx="9.55414" fill="#0F214B"/>
<path d="M129.477 32.9702C131.779 32.9702 133.5 34.5466 133.5 36.7573C133.5 38.2069 132.811 39.3665 131.235 40.8524L127.72 44.1321H133.663V45.6179H125.364V44.3133L130.329 39.6565C131.434 38.6055 131.887 37.7539 131.887 36.8298C131.887 35.4889 130.818 34.4742 129.477 34.4742C127.992 34.4742 127.031 35.7426 127.013 37.2465H125.455C125.455 34.746 127.067 32.9702 129.477 32.9702ZM140.638 45.8172C137.25 45.8172 135.619 42.755 135.619 39.4028C135.619 36.0325 137.25 32.9702 140.638 32.9702C144.027 32.9702 145.657 36.0325 145.657 39.4028C145.657 42.755 144.027 45.8172 140.638 45.8172ZM140.638 44.3133C142.994 44.3133 144.045 41.9396 144.045 39.4028C144.045 36.866 142.994 34.4742 140.638 34.4742C138.283 34.4742 137.232 36.866 137.232 39.4028C137.232 41.9396 138.283 44.3133 140.638 44.3133ZM151.587 32.9702C153.888 32.9702 155.61 34.5466 155.61 36.7573C155.61 38.2069 154.921 39.3665 153.345 40.8524L149.83 44.1321H155.773V45.6179H147.474V44.3133L152.439 39.6565C153.544 38.6055 153.997 37.7539 153.997 36.8298C153.997 35.4889 152.928 34.4742 151.587 34.4742C150.101 34.4742 149.141 35.7426 149.123 37.2465H147.565C147.565 34.746 149.177 32.9702 151.587 32.9702ZM159.251 40.0732L157.838 39.7652L158.725 33.1695H165.394V34.6372H159.994L159.487 38.3156C160.103 37.7176 161.154 37.2646 162.241 37.2646C164.578 37.2646 166.282 39.1129 166.282 41.4141C166.282 43.9146 164.361 45.8172 161.878 45.8172C159.378 45.8172 157.548 44.1864 157.53 41.9215H159.142C159.16 43.1899 160.32 44.3133 161.86 44.3133C163.437 44.3133 164.669 43.063 164.669 41.4866C164.669 39.892 163.419 38.6961 161.824 38.6961C160.737 38.6961 159.776 39.2759 159.251 40.0732ZM126.198 65.6179V52.934H133.246V54.4198H127.81V58.2975H132.866V59.7652H127.81V64.1321H133.283V65.6179H126.198ZM135.912 52.934H137.471V65.6179H135.912V52.934ZM142.383 54.2024C142.383 54.7822 141.912 55.2533 141.332 55.2533C140.752 55.2533 140.281 54.7822 140.281 54.2024C140.281 53.6225 140.752 53.1514 141.332 53.1514C141.912 53.1514 142.383 53.6225 142.383 54.2024ZM140.553 56.8116H142.111V65.6179H140.553V56.8116ZM145.537 54.1661H147.096V56.8116H149.56V58.2069H147.096V62.8637C147.096 63.8965 147.549 64.3676 148.563 64.3676C148.908 64.3676 149.288 64.277 149.56 64.0958V65.5454C149.252 65.7085 148.799 65.8172 148.201 65.8172C146.534 65.8172 145.537 64.7844 145.537 63.0811V58.2069H144.178V56.8116H145.537V54.1661ZM155.587 65.8172C152.977 65.8172 151.093 63.8965 151.093 61.2148C151.093 58.5874 152.977 56.6123 155.478 56.6123C157.96 56.6123 159.754 58.6418 159.754 61.1423C159.754 61.4866 159.736 61.704 159.736 61.704H152.651C152.76 63.2623 154.083 64.422 155.605 64.422C156.927 64.422 157.598 63.7878 158.16 62.9181L159.428 63.5704C158.703 64.8931 157.362 65.8172 155.587 65.8172ZM152.687 60.4175H158.178C158.015 59.0223 156.891 57.9713 155.442 57.9713C154.01 57.9713 152.832 59.2216 152.687 60.4175ZM130.13 72.934C132.54 72.934 134.225 74.2748 134.225 76.5942C134.225 78.9135 132.54 80.2363 130.13 80.2363H127.81V85.6179H126.198V72.934H130.13ZM127.81 74.4198V78.7505H130.13C131.579 78.7505 132.594 77.9532 132.594 76.5942C132.594 75.199 131.579 74.4198 130.13 74.4198H127.81ZM142.869 76.8116H144.409V85.6179H142.869V84.2046C142.235 85.183 141.039 85.8172 139.753 85.8172C137.252 85.8172 135.331 83.824 135.331 81.2148C135.331 78.6236 137.252 76.6123 139.753 76.6123C141.039 76.6123 142.217 77.174 142.869 78.1525V76.8116ZM142.96 81.2148C142.96 79.439 141.655 78.0438 139.934 78.0438C138.212 78.0438 136.908 79.439 136.908 81.2148C136.908 82.9905 138.212 84.3858 139.934 84.3858C141.655 84.3858 142.96 82.9905 142.96 81.2148ZM152.092 76.7029V78.2612C152.092 78.2612 151.929 78.225 151.657 78.225C150.026 78.225 149.029 79.5296 149.029 81.4322V85.6179H147.489V76.8116H149.011V78.37C149.41 77.3552 150.552 76.6667 151.711 76.6667C151.929 76.6667 152.092 76.7029 152.092 76.7029ZM154.721 74.1661H156.28V76.8116H158.744V78.2069H156.28V82.8637C156.28 83.8965 156.733 84.3676 157.747 84.3676C158.092 84.3676 158.472 84.277 158.744 84.0958V85.5454C158.436 85.7085 157.983 85.8172 157.385 85.8172C155.718 85.8172 154.721 84.7844 154.721 83.0811V78.2069H153.362V76.8116H154.721V74.1661ZM162.558 81.0155V85.6179H160.999V76.8116H162.558V78.08C163.101 77.2103 164.043 76.6123 165.366 76.6123C167.613 76.6123 168.918 78.1163 168.918 80.4537V85.6179H167.359V80.6349C167.359 79.0585 166.544 78.0619 165.04 78.0619C163.536 78.0619 162.558 79.2216 162.558 81.0155ZM175.728 85.8172C173.119 85.8172 171.234 83.8965 171.234 81.2148C171.234 78.5874 173.119 76.6123 175.619 76.6123C178.102 76.6123 179.896 78.6418 179.896 81.1423C179.896 81.4866 179.877 81.704 179.877 81.704H172.792C172.901 83.2623 174.224 84.422 175.746 84.422C177.069 84.422 177.739 83.7878 178.301 82.9181L179.569 83.5704C178.845 84.8931 177.504 85.8172 175.728 85.8172ZM172.829 80.4175H178.319C178.156 79.0223 177.033 77.9713 175.583 77.9713C174.151 77.9713 172.974 79.2216 172.829 80.4175ZM186.862 76.7029V78.2612C186.862 78.2612 186.699 78.225 186.427 78.225C184.797 78.225 183.8 79.5296 183.8 81.4322V85.6179H182.26V76.8116H183.782V78.37C184.18 77.3552 185.322 76.6667 186.482 76.6667C186.699 76.6667 186.862 76.7029 186.862 76.7029Z" fill="white"/>
<path d="M131.235 40.8524L131.32 40.9438L131.321 40.9433L131.235 40.8524ZM127.72 44.1321L127.634 44.0407L127.403 44.2571H127.72V44.1321ZM133.663 44.1321H133.788V44.0071H133.663V44.1321ZM133.663 45.6179V45.7429H133.788V45.6179H133.663ZM125.364 45.6179H125.239V45.7429H125.364V45.6179ZM125.364 44.3133L125.279 44.2221L125.239 44.2591V44.3133H125.364ZM130.329 39.6565L130.415 39.7476L130.415 39.7471L130.329 39.6565ZM127.013 37.2465V37.3715H127.137L127.138 37.248L127.013 37.2465ZM125.455 37.2465H125.33V37.3715H125.455V37.2465ZM129.477 33.0952C131.718 33.0952 133.375 34.6236 133.375 36.7573H133.625C133.625 34.4697 131.839 32.8452 129.477 32.8452V33.0952ZM133.375 36.7573C133.375 38.1558 132.716 39.2846 131.149 40.7614L131.321 40.9433C132.907 39.4485 133.625 38.258 133.625 36.7573H133.375ZM131.15 40.761L127.634 44.0407L127.805 44.2235L131.32 40.9438L131.15 40.761ZM127.72 44.2571H133.663V44.0071H127.72V44.2571ZM133.538 44.1321V45.6179H133.788V44.1321H133.538ZM133.663 45.4929H125.364V45.7429H133.663V45.4929ZM125.489 45.6179V44.3133H125.239V45.6179H125.489ZM125.45 44.4045L130.415 39.7476L130.244 39.5653L125.279 44.2221L125.45 44.4045ZM130.415 39.7471C131.531 38.6857 132.012 37.8034 132.012 36.8298H131.762C131.762 37.7043 131.337 38.5253 130.243 39.5659L130.415 39.7471ZM132.012 36.8298C132.012 35.4161 130.884 34.3492 129.477 34.3492V34.5992C130.753 34.5992 131.762 35.5616 131.762 36.8298H132.012ZM129.477 34.3492C127.903 34.3492 126.907 35.6942 126.888 37.245L127.138 37.248C127.156 35.7909 128.08 34.5992 129.477 34.5992V34.3492ZM127.013 37.1215H125.455V37.3715H127.013V37.1215ZM125.58 37.2465C125.58 36.0232 125.974 34.986 126.654 34.2558C127.333 33.5265 128.305 33.0952 129.477 33.0952V32.8452C128.24 32.8452 127.201 33.3018 126.471 34.0855C125.742 34.8683 125.33 35.9693 125.33 37.2465H125.58ZM140.638 45.6922C138.988 45.6922 137.77 44.9489 136.96 43.7953C136.148 42.6372 135.744 41.0608 135.744 39.4028H135.494C135.494 41.097 135.906 42.7278 136.756 43.9389C137.609 45.1545 138.901 45.9422 140.638 45.9422V45.6922ZM135.744 39.4028C135.744 37.7356 136.148 36.1547 136.96 34.9943C137.77 33.8385 138.988 33.0952 140.638 33.0952V32.8452C138.9 32.8452 137.609 33.633 136.756 34.8509C135.906 36.0643 135.494 37.6997 135.494 39.4028H135.744ZM140.638 33.0952C142.289 33.0952 143.507 33.8385 144.316 34.9943C145.129 36.1547 145.532 37.7356 145.532 39.4028H145.782C145.782 37.6997 145.371 36.0643 144.521 34.8509C143.668 33.633 142.376 32.8452 140.638 32.8452V33.0952ZM145.532 39.4028C145.532 41.0608 145.129 42.6372 144.316 43.7953C143.507 44.9489 142.289 45.6922 140.638 45.6922V45.9422C142.376 45.9422 143.668 45.1545 144.521 43.9389C145.371 42.7278 145.782 41.097 145.782 39.4028H145.532ZM140.638 44.4383C141.866 44.4383 142.755 43.816 143.332 42.8746C143.904 41.9383 144.17 40.6858 144.17 39.4028H143.92C143.92 40.6566 143.66 41.8593 143.118 42.7441C142.58 43.6237 141.766 44.1883 140.638 44.1883V44.4383ZM144.17 39.4028C144.17 38.1198 143.904 36.8629 143.332 35.9222C142.756 34.9764 141.867 34.3492 140.638 34.3492V34.5992C141.765 34.5992 142.58 35.1679 143.118 36.0522C143.66 36.9416 143.92 38.149 143.92 39.4028H144.17ZM140.638 34.3492C139.41 34.3492 138.521 34.9764 137.945 35.9222C137.372 36.8629 137.107 38.1198 137.107 39.4028H137.357C137.357 38.149 137.617 36.9416 138.158 36.0522C138.697 35.1679 139.511 34.5992 140.638 34.5992V34.3492ZM137.107 39.4028C137.107 40.6858 137.372 41.9383 137.945 42.8746C138.521 43.816 139.41 44.4383 140.638 44.4383V44.1883C139.511 44.1883 138.697 43.6237 138.158 42.7441C137.617 41.8593 137.357 40.6566 137.357 39.4028H137.107ZM153.345 40.8524L153.43 40.9438L153.431 40.9433L153.345 40.8524ZM149.83 44.1321L149.744 44.0407L149.512 44.2571H149.83V44.1321ZM155.773 44.1321H155.898V44.0071H155.773V44.1321ZM155.773 45.6179V45.7429H155.898V45.6179H155.773ZM147.474 45.6179H147.349V45.7429H147.474V45.6179ZM147.474 44.3133L147.388 44.2221L147.349 44.2591V44.3133H147.474ZM152.439 39.6565L152.524 39.7476L152.525 39.7471L152.439 39.6565ZM149.123 37.2465V37.3715H149.246L149.248 37.248L149.123 37.2465ZM147.565 37.2465H147.44V37.3715H147.565V37.2465ZM151.587 33.0952C153.828 33.0952 155.485 34.6236 155.485 36.7573H155.735C155.735 34.4697 153.949 32.8452 151.587 32.8452V33.0952ZM155.485 36.7573C155.485 38.1558 154.826 39.2846 153.259 40.7614L153.431 40.9433C155.017 39.4485 155.735 38.258 155.735 36.7573H155.485ZM153.26 40.761L149.744 44.0407L149.915 44.2235L153.43 40.9438L153.26 40.761ZM149.83 44.2571H155.773V44.0071H149.83V44.2571ZM155.648 44.1321V45.6179H155.898V44.1321H155.648ZM155.773 45.4929H147.474V45.7429H155.773V45.4929ZM147.599 45.6179V44.3133H147.349V45.6179H147.599ZM147.56 44.4045L152.524 39.7476L152.353 39.5653L147.388 44.2221L147.56 44.4045ZM152.525 39.7471C153.641 38.6857 154.122 37.8034 154.122 36.8298H153.872C153.872 37.7043 153.447 38.5253 152.353 39.5659L152.525 39.7471ZM154.122 36.8298C154.122 35.4161 152.993 34.3492 151.587 34.3492V34.5992C152.863 34.5992 153.872 35.5616 153.872 36.8298H154.122ZM151.587 34.3492C150.013 34.3492 149.017 35.6942 148.998 37.245L149.248 37.248C149.265 35.7909 150.19 34.5992 151.587 34.5992V34.3492ZM149.123 37.1215H147.565V37.3715H149.123V37.1215ZM147.69 37.2465C147.69 36.0232 148.084 34.986 148.764 34.2558C149.443 33.5265 150.414 33.0952 151.587 33.0952V32.8452C150.35 32.8452 149.31 33.3018 148.581 34.0855C147.852 34.8683 147.44 35.9693 147.44 37.2465H147.69ZM159.251 40.0732L159.224 40.1954L159.308 40.2136L159.355 40.142L159.251 40.0732ZM157.838 39.7652L157.714 39.7485L157.698 39.8628L157.811 39.8873L157.838 39.7652ZM158.725 33.1695V33.0445H158.616L158.602 33.1529L158.725 33.1695ZM165.394 33.1695H165.519V33.0445H165.394V33.1695ZM165.394 34.6372V34.7622H165.519V34.6372H165.394ZM159.994 34.6372V34.5122H159.885L159.87 34.6202L159.994 34.6372ZM159.487 38.3156L159.363 38.2985L159.313 38.6581L159.574 38.4053L159.487 38.3156ZM157.53 41.9215V41.7965H157.404L157.405 41.9225L157.53 41.9215ZM159.142 41.9215L159.267 41.9197L159.265 41.7965H159.142V41.9215ZM159.278 39.9511L157.864 39.6431L157.811 39.8873L159.224 40.1954L159.278 39.9511ZM157.962 39.7819L158.849 33.1862L158.602 33.1529L157.714 39.7485L157.962 39.7819ZM158.725 33.2945H165.394V33.0445H158.725V33.2945ZM165.269 33.1695V34.6372H165.519V33.1695H165.269ZM165.394 34.5122H159.994V34.7622H165.394V34.5122ZM159.87 34.6202L159.363 38.2985L159.61 38.3327L160.118 34.6543L159.87 34.6202ZM159.574 38.4053C160.165 37.8311 161.184 37.3896 162.241 37.3896V37.1396C161.123 37.1396 160.04 37.6042 159.399 38.2259L159.574 38.4053ZM162.241 37.3896C164.504 37.3896 166.157 39.1768 166.157 41.4141H166.407C166.407 39.049 164.652 37.1396 162.241 37.1396V37.3896ZM166.157 41.4141C166.157 43.8453 164.292 45.6922 161.878 45.6922V45.9422C164.429 45.9422 166.407 43.984 166.407 41.4141H166.157ZM161.878 45.6922C159.434 45.6922 157.672 44.105 157.655 41.9205L157.405 41.9225C157.423 44.2679 159.322 45.9422 161.878 45.9422V45.6922ZM157.53 42.0465H159.142V41.7965H157.53V42.0465ZM159.017 41.9232C159.036 43.2695 160.262 44.4383 161.86 44.4383V44.1883C160.378 44.1883 159.284 43.1102 159.267 41.9197L159.017 41.9232ZM161.86 44.4383C163.507 44.4383 164.794 43.131 164.794 41.4866H164.544C164.544 42.995 163.367 44.1883 161.86 44.1883V44.4383ZM164.794 41.4866C164.794 39.8198 163.484 38.5711 161.824 38.5711V38.8211C163.353 38.8211 164.544 39.9642 164.544 41.4866H164.794ZM161.824 38.5711C160.693 38.5711 159.694 39.1739 159.147 40.0044L159.355 40.142C159.859 39.3779 160.781 38.8211 161.824 38.8211V38.5711ZM126.198 65.6179H126.073V65.7429H126.198V65.6179ZM126.198 52.934V52.809H126.073V52.934H126.198ZM133.246 52.934H133.371V52.809H133.246V52.934ZM133.246 54.4198V54.5448H133.371V54.4198H133.246ZM127.81 54.4198V54.2948H127.685V54.4198H127.81ZM127.81 58.2975H127.685V58.4225H127.81V58.2975ZM132.866 58.2975H132.991V58.1725H132.866V58.2975ZM132.866 59.7652V59.8902H132.991V59.7652H132.866ZM127.81 59.7652V59.6402H127.685V59.7652H127.81ZM127.81 64.1321H127.685V64.2571H127.81V64.1321ZM133.283 64.1321H133.408V64.0071H133.283V64.1321ZM133.283 65.6179V65.7429H133.408V65.6179H133.283ZM126.323 65.6179V52.934H126.073V65.6179H126.323ZM126.198 53.059H133.246V52.809H126.198V53.059ZM133.121 52.934V54.4198H133.371V52.934H133.121ZM133.246 54.2948H127.81V54.5448H133.246V54.2948ZM127.685 54.4198V58.2975H127.935V54.4198H127.685ZM127.81 58.4225H132.866V58.1725H127.81V58.4225ZM132.741 58.2975V59.7652H132.991V58.2975H132.741ZM132.866 59.6402H127.81V59.8902H132.866V59.6402ZM127.685 59.7652V64.1321H127.935V59.7652H127.685ZM127.81 64.2571H133.283V64.0071H127.81V64.2571ZM133.158 64.1321V65.6179H133.408V64.1321H133.158ZM133.283 65.4929H126.198V65.7429H133.283V65.4929ZM135.912 52.934V52.809H135.787V52.934H135.912ZM137.471 52.934H137.596V52.809H137.471V52.934ZM137.471 65.6179V65.7429H137.596V65.6179H137.471ZM135.912 65.6179H135.787V65.7429H135.912V65.6179ZM135.912 53.059H137.471V52.809H135.912V53.059ZM137.346 52.934V65.6179H137.596V52.934H137.346ZM137.471 65.4929H135.912V65.7429H137.471V65.4929ZM136.037 65.6179V52.934H135.787V65.6179H136.037ZM140.553 56.8116V56.6866H140.428V56.8116H140.553ZM142.111 56.8116H142.236V56.6866H142.111V56.8116ZM142.111 65.6179V65.7429H142.236V65.6179H142.111ZM140.553 65.6179H140.428V65.7429H140.553V65.6179ZM142.258 54.2024C142.258 54.7132 141.843 55.1283 141.332 55.1283V55.3783C141.981 55.3783 142.508 54.8512 142.508 54.2024H142.258ZM141.332 55.1283C140.821 55.1283 140.406 54.7132 140.406 54.2024H140.156C140.156 54.8512 140.683 55.3783 141.332 55.3783V55.1283ZM140.406 54.2024C140.406 53.6916 140.821 53.2764 141.332 53.2764V53.0264C140.683 53.0264 140.156 53.5535 140.156 54.2024H140.406ZM141.332 53.2764C141.843 53.2764 142.258 53.6916 142.258 54.2024H142.508C142.508 53.5535 141.981 53.0264 141.332 53.0264V53.2764ZM140.553 56.9366H142.111V56.6866H140.553V56.9366ZM141.986 56.8116V65.6179H142.236V56.8116H141.986ZM142.111 65.4929H140.553V65.7429H142.111V65.4929ZM140.678 65.6179V56.8116H140.428V65.6179H140.678ZM145.537 54.1661V54.0411H145.412V54.1661H145.537ZM147.096 54.1661H147.221V54.0411H147.096V54.1661ZM147.096 56.8116H146.971V56.9366H147.096V56.8116ZM149.56 56.8116H149.685V56.6866H149.56V56.8116ZM149.56 58.2069V58.3319H149.685V58.2069H149.56ZM147.096 58.2069V58.0819H146.971V58.2069H147.096ZM149.56 64.0958H149.685V63.8623L149.491 63.9918L149.56 64.0958ZM149.56 65.5454L149.619 65.6559L149.685 65.6207V65.5454H149.56ZM145.537 58.2069H145.662V58.0819H145.537V58.2069ZM144.178 58.2069H144.053V58.3319H144.178V58.2069ZM144.178 56.8116V56.6866H144.053V56.8116H144.178ZM145.537 56.8116V56.9366H145.662V56.8116H145.537ZM145.537 54.2911H147.096V54.0411H145.537V54.2911ZM146.971 54.1661V56.8116H147.221V54.1661H146.971ZM147.096 56.9366H149.56V56.6866H147.096V56.9366ZM149.435 56.8116V58.2069H149.685V56.8116H149.435ZM149.56 58.0819H147.096V58.3319H149.56V58.0819ZM146.971 58.2069V62.8637H147.221V58.2069H146.971ZM146.971 62.8637C146.971 63.3953 147.087 63.8099 147.359 64.0901C147.633 64.3711 148.039 64.4926 148.563 64.4926V64.2426C148.073 64.2426 147.746 64.1286 147.539 63.9158C147.331 63.7023 147.221 63.3649 147.221 62.8637H146.971ZM148.563 64.4926C148.926 64.4926 149.332 64.3981 149.629 64.1999L149.491 63.9918C149.244 64.156 148.89 64.2426 148.563 64.2426V64.4926ZM149.435 64.0958V65.5454H149.685V64.0958H149.435ZM149.502 65.435C149.217 65.5858 148.785 65.6922 148.201 65.6922V65.9422C148.813 65.9422 149.287 65.8312 149.619 65.6559L149.502 65.435ZM148.201 65.6922C147.394 65.6922 146.763 65.4428 146.334 65.0008C145.904 64.5584 145.662 63.9086 145.662 63.0811H145.412C145.412 63.9569 145.669 64.6752 146.154 65.175C146.64 65.6753 147.341 65.9422 148.201 65.9422V65.6922ZM145.662 63.0811V58.2069H145.412V63.0811H145.662ZM145.537 58.0819H144.178V58.3319H145.537V58.0819ZM144.303 58.2069V56.8116H144.053V58.2069H144.303ZM144.178 56.9366H145.537V56.6866H144.178V56.9366ZM145.662 56.8116V54.1661H145.412V56.8116H145.662ZM159.736 61.704V61.829H159.851L159.861 61.7144L159.736 61.704ZM152.651 61.704V61.579H152.517L152.526 61.7127L152.651 61.704ZM158.16 62.9181L158.217 62.8069L158.116 62.7551L158.055 62.8502L158.16 62.9181ZM159.428 63.5704L159.538 63.6304L159.599 63.5179L159.485 63.4592L159.428 63.5704ZM152.687 60.4175L152.563 60.4025L152.546 60.5425H152.687V60.4175ZM158.178 60.4175V60.5425H158.318L158.302 60.403L158.178 60.4175ZM155.587 65.6922C153.049 65.6922 151.218 63.8302 151.218 61.2148H150.968C150.968 63.9629 152.906 65.9422 155.587 65.9422V65.6922ZM151.218 61.2148C151.218 58.6507 153.052 56.7373 155.478 56.7373V56.4873C152.903 56.4873 150.968 58.5241 150.968 61.2148H151.218ZM155.478 56.7373C157.882 56.7373 159.629 58.7015 159.629 61.1423H159.879C159.879 58.582 158.038 56.4873 155.478 56.4873V56.7373ZM159.629 61.1423C159.629 61.3123 159.625 61.4507 159.62 61.5465C159.618 61.5943 159.616 61.6314 159.614 61.6564C159.613 61.6689 159.613 61.6784 159.612 61.6847C159.612 61.6878 159.612 61.6901 159.612 61.6916C159.611 61.6924 159.611 61.6929 159.611 61.6933C159.611 61.6934 159.611 61.6935 159.611 61.6936C159.611 61.6936 159.611 61.6937 159.611 61.6937C159.611 61.6937 159.611 61.6937 159.611 61.6937C159.611 61.6937 159.611 61.6937 159.611 61.6936C159.611 61.6936 159.611 61.6936 159.736 61.704C159.861 61.7144 159.861 61.7144 159.861 61.7144C159.861 61.7144 159.861 61.7144 159.861 61.7144C159.861 61.7143 159.861 61.7143 159.861 61.7143C159.861 61.7142 159.861 61.7142 159.861 61.7141C159.861 61.714 159.861 61.7138 159.861 61.7135C159.861 61.713 159.861 61.7123 159.861 61.7114C159.861 61.7095 159.861 61.7068 159.861 61.7033C159.862 61.6964 159.863 61.6861 159.864 61.6729C159.865 61.6464 159.868 61.6076 159.87 61.5581C159.874 61.459 159.879 61.3166 159.879 61.1423H159.629ZM159.736 61.579H152.651V61.829H159.736V61.579ZM152.526 61.7127C152.64 63.3397 154.02 64.547 155.605 64.547V64.297C154.145 64.297 152.88 63.185 152.776 61.6953L152.526 61.7127ZM155.605 64.547C156.288 64.547 156.811 64.3828 157.237 64.1004C157.66 63.8195 157.979 63.4272 158.265 62.9859L158.055 62.8502C157.778 63.2786 157.481 63.6384 157.098 63.892C156.718 64.1442 156.244 64.297 155.605 64.297V64.547ZM158.102 63.0292L159.371 63.6815L159.485 63.4592L158.217 62.8069L158.102 63.0292ZM159.318 63.5103C158.614 64.7955 157.314 65.6922 155.587 65.6922V65.9422C157.411 65.9422 158.792 64.9908 159.538 63.6304L159.318 63.5103ZM152.687 60.5425H158.178V60.2925H152.687V60.5425ZM158.302 60.403C158.132 58.9468 156.957 57.8463 155.442 57.8463V58.0963C156.826 58.0963 157.898 59.0978 158.053 60.432L158.302 60.403ZM155.442 57.8463C154.689 57.8463 154.007 58.175 153.496 58.6549C152.987 59.134 152.64 59.7713 152.563 60.4025L152.811 60.4325C152.88 59.8678 153.194 59.282 153.668 58.837C154.14 58.3928 154.763 58.0963 155.442 58.0963V57.8463ZM127.81 80.2363V80.1113H127.685V80.2363H127.81ZM127.81 85.6179V85.7429H127.935V85.6179H127.81ZM126.198 85.6179H126.073V85.7429H126.198V85.6179ZM126.198 72.934V72.809H126.073V72.934H126.198ZM127.81 74.4198V74.2948H127.685V74.4198H127.81ZM127.81 78.7505H127.685V78.8755H127.81V78.7505ZM130.13 73.059C131.312 73.059 132.305 73.3879 132.999 73.9889C133.692 74.5879 134.1 75.467 134.1 76.5942H134.35C134.35 75.402 133.915 74.451 133.163 73.7998C132.412 73.1504 131.357 72.809 130.13 72.809V73.059ZM134.1 76.5942C134.1 77.7213 133.692 78.5957 133 79.1902C132.305 79.7866 131.313 80.1113 130.13 80.1113V80.3613C131.357 80.3613 132.412 80.0246 133.162 79.3798C133.915 78.7331 134.35 77.7865 134.35 76.5942H134.1ZM130.13 80.1113H127.81V80.3613H130.13V80.1113ZM127.685 80.2363V85.6179H127.935V80.2363H127.685ZM127.81 85.4929H126.198V85.7429H127.81V85.4929ZM126.323 85.6179V72.934H126.073V85.6179H126.323ZM126.198 73.059H130.13V72.809H126.198V73.059ZM127.685 74.4198V78.7505H127.935V74.4198H127.685ZM127.81 78.8755H130.13V78.6255H127.81V78.8755ZM130.13 78.8755C130.876 78.8755 131.524 78.6701 131.986 78.2772C132.451 77.8824 132.719 77.3073 132.719 76.5942H132.469C132.469 77.2401 132.229 77.7431 131.825 78.0867C131.418 78.4322 130.833 78.6255 130.13 78.6255V78.8755ZM132.719 76.5942C132.719 75.8638 132.452 75.2839 131.986 74.8885C131.523 74.4953 130.876 74.2948 130.13 74.2948V74.5448C130.833 74.5448 131.418 74.7339 131.825 75.0791C132.229 75.4221 132.469 75.9293 132.469 76.5942H132.719ZM130.13 74.2948H127.81V74.5448H130.13V74.2948ZM142.869 76.8116V76.6866H142.744V76.8116H142.869ZM144.409 76.8116H144.534V76.6866H144.409V76.8116ZM144.409 85.6179V85.7429H144.534V85.6179H144.409ZM142.869 85.6179H142.744V85.7429H142.869V85.6179ZM142.869 84.2046H142.994V83.7819L142.764 84.1366L142.869 84.2046ZM142.869 78.1525L142.765 78.2218L142.994 78.5654V78.1525H142.869ZM142.869 76.9366H144.409V76.6866H142.869V76.9366ZM144.284 76.8116V85.6179H144.534V76.8116H144.284ZM144.409 85.4929H142.869V85.7429H144.409V85.4929ZM142.994 85.6179V84.2046H142.744V85.6179H142.994ZM142.764 84.1366C142.155 85.0768 141 85.6922 139.753 85.6922V85.9422C141.078 85.9422 142.315 85.2893 142.974 84.2726L142.764 84.1366ZM139.753 85.6922C137.326 85.6922 135.456 83.7597 135.456 81.2148H135.206C135.206 83.8884 137.178 85.9422 139.753 85.9422V85.6922ZM135.456 81.2148C135.456 78.6877 137.326 76.7373 139.753 76.7373V76.4873C137.178 76.4873 135.206 78.5596 135.206 81.2148H135.456ZM139.753 76.7373C141.004 76.7373 142.14 77.2837 142.765 78.2218L142.973 78.0832C142.294 77.0644 141.074 76.4873 139.753 76.4873V76.7373ZM142.994 78.1525V76.8116H142.744V78.1525H142.994ZM143.085 81.2148C143.085 79.3763 141.73 77.9188 139.934 77.9188V78.1688C141.58 78.1688 142.835 79.5017 142.835 81.2148H143.085ZM139.934 77.9188C138.137 77.9188 136.783 79.3763 136.783 81.2148H137.033C137.033 79.5017 138.288 78.1688 139.934 78.1688V77.9188ZM136.783 81.2148C136.783 83.0532 138.137 84.5108 139.934 84.5108V84.2608C138.288 84.2608 137.033 82.9278 137.033 81.2148H136.783ZM139.934 84.5108C141.73 84.5108 143.085 83.0532 143.085 81.2148H142.835C142.835 82.9278 141.58 84.2608 139.934 84.2608V84.5108ZM152.092 76.7029H152.217V76.6026L152.119 76.5809L152.092 76.7029ZM152.092 78.2612L152.065 78.3833L152.217 78.4171V78.2612H152.092ZM149.029 85.6179V85.7429H149.154V85.6179H149.029ZM147.489 85.6179H147.364V85.7429H147.489V85.6179ZM147.489 76.8116V76.6866H147.364V76.8116H147.489ZM149.011 76.8116H149.136V76.6866H149.011V76.8116ZM149.011 78.37H148.886L149.128 78.4157L149.011 78.37ZM151.967 76.7029V78.2612H152.217V76.7029H151.967ZM152.092 78.2612C152.119 78.1392 152.119 78.1392 152.119 78.1392C152.119 78.1392 152.119 78.1392 152.119 78.1392C152.119 78.1392 152.119 78.1392 152.119 78.1392C152.119 78.1391 152.119 78.1391 152.118 78.1391C152.118 78.1391 152.118 78.139 152.118 78.139C152.117 78.1388 152.116 78.1387 152.116 78.1385C152.114 78.1381 152.112 78.1377 152.109 78.1371C152.103 78.1359 152.094 78.1343 152.083 78.1324C152.062 78.1287 152.031 78.1238 151.991 78.119C151.912 78.1094 151.798 78.1 151.657 78.1V78.35C151.787 78.35 151.891 78.3587 151.961 78.3672C151.996 78.3715 152.023 78.3757 152.041 78.3787C152.049 78.3802 152.056 78.3815 152.06 78.3823C152.062 78.3827 152.063 78.383 152.064 78.3831C152.065 78.3832 152.065 78.3833 152.065 78.3833C152.065 78.3833 152.065 78.3833 152.065 78.3833C152.065 78.3833 152.065 78.3833 152.065 78.3833C152.065 78.3833 152.065 78.3833 152.065 78.3833C152.065 78.3833 152.065 78.3833 152.065 78.3833C152.065 78.3833 152.065 78.3833 152.092 78.2612ZM151.657 78.1C150.805 78.1 150.112 78.4424 149.634 79.0369C149.159 79.6285 148.904 80.4604 148.904 81.4322H149.154C149.154 80.5015 149.398 79.7297 149.829 79.1934C150.258 78.6599 150.878 78.35 151.657 78.35V78.1ZM148.904 81.4322V85.6179H149.154V81.4322H148.904ZM149.029 85.4929H147.489V85.7429H149.029V85.4929ZM147.614 85.6179V76.8116H147.364V85.6179H147.614ZM147.489 76.9366H149.011V76.6866H147.489V76.9366ZM148.886 76.8116V78.37H149.136V76.8116H148.886ZM149.128 78.4157C149.505 77.4563 150.594 76.7917 151.711 76.7917V76.5417C150.509 76.5417 149.315 77.2542 148.895 78.3242L149.128 78.4157ZM151.711 76.7917C151.813 76.7917 151.903 76.8002 151.967 76.8087C151.998 76.8129 152.024 76.8172 152.041 76.8202C152.049 76.8218 152.055 76.823 152.059 76.8239C152.062 76.8243 152.063 76.8246 152.064 76.8248C152.064 76.8249 152.065 76.8249 152.065 76.825C152.065 76.825 152.065 76.825 152.065 76.825C152.065 76.825 152.065 76.825 152.065 76.825C152.065 76.825 152.065 76.825 152.065 76.825C152.065 76.825 152.065 76.825 152.065 76.8249C152.065 76.8249 152.065 76.8249 152.092 76.7029C152.119 76.5809 152.119 76.5809 152.119 76.5809C152.119 76.5809 152.119 76.5809 152.119 76.5809C152.119 76.5809 152.119 76.5809 152.119 76.5809C152.119 76.5808 152.119 76.5808 152.118 76.5808C152.118 76.5808 152.118 76.5807 152.118 76.5807C152.117 76.5806 152.117 76.5804 152.116 76.5802C152.114 76.5799 152.112 76.5794 152.109 76.5789C152.104 76.5777 152.095 76.5761 152.085 76.5743C152.065 76.5706 152.036 76.5657 152 76.5609C151.927 76.5513 151.827 76.5417 151.711 76.5417V76.7917ZM154.721 74.1661V74.0411H154.596V74.1661H154.721ZM156.28 74.1661H156.405V74.0411H156.28V74.1661ZM156.28 76.8116H156.155V76.9366H156.28V76.8116ZM158.744 76.8116H158.869V76.6866H158.744V76.8116ZM158.744 78.2069V78.3319H158.869V78.2069H158.744ZM156.28 78.2069V78.0819H156.155V78.2069H156.28ZM158.744 84.0958H158.869V83.8623L158.675 83.9918L158.744 84.0958ZM158.744 85.5454L158.802 85.6559L158.869 85.6207V85.5454H158.744ZM154.721 78.2069H154.846V78.0819H154.721V78.2069ZM153.362 78.2069H153.237V78.3319H153.362V78.2069ZM153.362 76.8116V76.6866H153.237V76.8116H153.362ZM154.721 76.8116V76.9366H154.846V76.8116H154.721ZM154.721 74.2911H156.28V74.0411H154.721V74.2911ZM156.155 74.1661V76.8116H156.405V74.1661H156.155ZM156.28 76.9366H158.744V76.6866H156.28V76.9366ZM158.619 76.8116V78.2069H158.869V76.8116H158.619ZM158.744 78.0819H156.28V78.3319H158.744V78.0819ZM156.155 78.2069V82.8637H156.405V78.2069H156.155ZM156.155 82.8637C156.155 83.3953 156.271 83.8099 156.543 84.0901C156.817 84.3711 157.223 84.4926 157.747 84.4926V84.2426C157.257 84.2426 156.929 84.1286 156.723 83.9158C156.515 83.7023 156.405 83.3649 156.405 82.8637H156.155ZM157.747 84.4926C158.109 84.4926 158.516 84.3981 158.813 84.1999L158.675 83.9918C158.428 84.156 158.074 84.2426 157.747 84.2426V84.4926ZM158.619 84.0958V85.5454H158.869V84.0958H158.619ZM158.685 85.435C158.401 85.5858 157.969 85.6922 157.385 85.6922V85.9422C157.997 85.9422 158.471 85.8312 158.802 85.6559L158.685 85.435ZM157.385 85.6922C156.578 85.6922 155.947 85.4428 155.518 85.0008C155.088 84.5584 154.846 83.9086 154.846 83.0811H154.596C154.596 83.9569 154.853 84.6752 155.338 85.175C155.824 85.6753 156.525 85.9422 157.385 85.9422V85.6922ZM154.846 83.0811V78.2069H154.596V83.0811H154.846ZM154.721 78.0819H153.362V78.3319H154.721V78.0819ZM153.487 78.2069V76.8116H153.237V78.2069H153.487ZM153.362 76.9366H154.721V76.6866H153.362V76.9366ZM154.846 76.8116V74.1661H154.596V76.8116H154.846ZM162.558 85.6179V85.7429H162.683V85.6179H162.558ZM160.999 85.6179H160.874V85.7429H160.999V85.6179ZM160.999 76.8116V76.6866H160.874V76.8116H160.999ZM162.558 76.8116H162.683V76.6866H162.558V76.8116ZM162.558 78.08H162.433V78.5159L162.664 78.1463L162.558 78.08ZM168.918 85.6179V85.7429H169.043V85.6179H168.918ZM167.359 85.6179H167.234V85.7429H167.359V85.6179ZM162.433 81.0155V85.6179H162.683V81.0155H162.433ZM162.558 85.4929H160.999V85.7429H162.558V85.4929ZM161.124 85.6179V76.8116H160.874V85.6179H161.124ZM160.999 76.9366H162.558V76.6866H160.999V76.9366ZM162.433 76.8116V78.08H162.683V76.8116H162.433ZM162.664 78.1463C163.184 77.3135 164.086 76.7373 165.366 76.7373V76.4873C164.001 76.4873 163.018 77.107 162.452 78.0138L162.664 78.1463ZM165.366 76.7373C166.46 76.7373 167.312 77.1026 167.892 77.7405C168.473 78.3801 168.793 79.3075 168.793 80.4537H169.043C169.043 79.2625 168.71 78.2692 168.077 77.5724C167.443 76.874 166.519 76.4873 165.366 76.4873V76.7373ZM168.793 80.4537V85.6179H169.043V80.4537H168.793ZM168.918 85.4929H167.359V85.7429H168.918V85.4929ZM167.484 85.6179V80.6349H167.234V85.6179H167.484ZM167.484 80.6349C167.484 79.8265 167.275 79.1504 166.858 78.6748C166.438 78.1968 165.821 77.9369 165.04 77.9369V78.1869C165.763 78.1869 166.306 78.4253 166.67 78.8397C167.036 79.2565 167.234 79.8669 167.234 80.6349H167.484ZM165.04 77.9369C164.253 77.9369 163.597 78.2415 163.139 78.7855C162.683 79.3274 162.433 80.0967 162.433 81.0155H162.683C162.683 80.1403 162.921 79.4329 163.33 78.9465C163.738 78.4622 164.323 78.1869 165.04 78.1869V77.9369ZM179.877 81.704V81.829H179.992L180.002 81.7144L179.877 81.704ZM172.792 81.704V81.579H172.658L172.668 81.7127L172.792 81.704ZM178.301 82.9181L178.358 82.8069L178.257 82.7551L178.196 82.8502L178.301 82.9181ZM179.569 83.5704L179.679 83.6304L179.741 83.5179L179.627 83.4592L179.569 83.5704ZM172.829 80.4175L172.705 80.4025L172.688 80.5425H172.829V80.4175ZM178.319 80.4175V80.5425H178.46L178.443 80.403L178.319 80.4175ZM175.728 85.6922C173.19 85.6922 171.359 83.8302 171.359 81.2148H171.109C171.109 83.9629 173.047 85.9422 175.728 85.9422V85.6922ZM171.359 81.2148C171.359 78.6507 173.193 76.7373 175.619 76.7373V76.4873C173.044 76.4873 171.109 78.5241 171.109 81.2148H171.359ZM175.619 76.7373C178.024 76.7373 179.771 78.7015 179.771 81.1423H180.021C180.021 78.582 178.18 76.4873 175.619 76.4873V76.7373ZM179.771 81.1423C179.771 81.3123 179.766 81.4507 179.762 81.5465C179.759 81.5943 179.757 81.6314 179.755 81.6564C179.755 81.6689 179.754 81.6784 179.754 81.6847C179.753 81.6878 179.753 81.6901 179.753 81.6916C179.753 81.6924 179.753 81.6929 179.753 81.6933C179.753 81.6934 179.753 81.6935 179.753 81.6936C179.753 81.6936 179.753 81.6937 179.753 81.6937C179.753 81.6937 179.753 81.6937 179.753 81.6937C179.753 81.6937 179.753 81.6937 179.753 81.6936C179.753 81.6936 179.753 81.6936 179.877 81.704C180.002 81.7144 180.002 81.7144 180.002 81.7144C180.002 81.7144 180.002 81.7144 180.002 81.7144C180.002 81.7143 180.002 81.7143 180.002 81.7143C180.002 81.7142 180.002 81.7142 180.002 81.7141C180.002 81.714 180.002 81.7138 180.002 81.7135C180.002 81.713 180.002 81.7123 180.002 81.7114C180.002 81.7095 180.003 81.7068 180.003 81.7033C180.003 81.6964 180.004 81.6861 180.005 81.6729C180.007 81.6464 180.009 81.6076 180.011 81.5581C180.016 81.459 180.021 81.3166 180.021 81.1423H179.771ZM179.877 81.579H172.792V81.829H179.877V81.579ZM172.668 81.7127C172.781 83.3397 174.162 84.547 175.746 84.547V84.297C174.286 84.297 173.021 83.185 172.917 81.6953L172.668 81.7127ZM175.746 84.547C176.429 84.547 176.952 84.3828 177.378 84.1004C177.802 83.8195 178.121 83.4272 178.406 82.9859L178.196 82.8502C177.919 83.2786 177.622 83.6384 177.24 83.892C176.859 84.1442 176.386 84.297 175.746 84.297V84.547ZM178.244 83.0292L179.512 83.6815L179.627 83.4592L178.358 82.8069L178.244 83.0292ZM179.46 83.5103C178.756 84.7955 177.455 85.6922 175.728 85.6922V85.9422C177.552 85.9422 178.934 84.9908 179.679 83.6304L179.46 83.5103ZM172.829 80.5425H178.319V80.2925H172.829V80.5425ZM178.443 80.403C178.273 78.9468 177.098 77.8463 175.583 77.8463V78.0963C176.967 78.0963 178.039 79.0978 178.195 80.432L178.443 80.403ZM175.583 77.8463C174.83 77.8463 174.148 78.175 173.638 78.6549C173.128 79.134 172.781 79.7713 172.705 80.4025L172.953 80.4325C173.021 79.8678 173.336 79.282 173.809 78.837C174.282 78.3928 174.904 78.0963 175.583 78.0963V77.8463ZM186.862 76.7029H186.987V76.6026L186.889 76.5809L186.862 76.7029ZM186.862 78.2612L186.835 78.3833L186.987 78.4171V78.2612H186.862ZM183.8 85.6179V85.7429H183.925V85.6179H183.8ZM182.26 85.6179H182.135V85.7429H182.26V85.6179ZM182.26 76.8116V76.6866H182.135V76.8116H182.26ZM183.782 76.8116H183.907V76.6866H183.782V76.8116ZM183.782 78.37H183.657L183.898 78.4157L183.782 78.37ZM186.737 76.7029V78.2612H186.987V76.7029H186.737ZM186.862 78.2612C186.889 78.1392 186.889 78.1392 186.889 78.1392C186.889 78.1392 186.889 78.1392 186.889 78.1392C186.889 78.1392 186.889 78.1392 186.889 78.1392C186.889 78.1391 186.889 78.1391 186.889 78.1391C186.889 78.1391 186.888 78.139 186.888 78.139C186.888 78.1388 186.887 78.1387 186.886 78.1385C186.884 78.1381 186.882 78.1377 186.879 78.1371C186.873 78.1359 186.865 78.1343 186.854 78.1324C186.832 78.1287 186.801 78.1238 186.762 78.119C186.683 78.1094 186.569 78.1 186.427 78.1V78.35C186.558 78.35 186.661 78.3587 186.732 78.3672C186.767 78.3715 186.794 78.3757 186.811 78.3787C186.82 78.3802 186.826 78.3815 186.83 78.3823C186.832 78.3827 186.834 78.383 186.835 78.3831C186.835 78.3832 186.835 78.3833 186.835 78.3833C186.835 78.3833 186.835 78.3833 186.835 78.3833C186.835 78.3833 186.835 78.3833 186.835 78.3833C186.835 78.3833 186.835 78.3833 186.835 78.3833C186.835 78.3833 186.835 78.3833 186.835 78.3833C186.835 78.3833 186.835 78.3833 186.862 78.2612ZM186.427 78.1C185.575 78.1 184.882 78.4424 184.405 79.0369C183.929 79.6285 183.675 80.4604 183.675 81.4322H183.925C183.925 80.5015 184.169 79.7297 184.6 79.1934C185.028 78.6599 185.649 78.35 186.427 78.35V78.1ZM183.675 81.4322V85.6179H183.925V81.4322H183.675ZM183.8 85.4929H182.26V85.7429H183.8V85.4929ZM182.385 85.6179V76.8116H182.135V85.6179H182.385ZM182.26 76.9366H183.782V76.6866H182.26V76.9366ZM183.657 76.8116V78.37H183.907V76.8116H183.657ZM183.898 78.4157C184.275 77.4563 185.365 76.7917 186.482 76.7917V76.5417C185.279 76.5417 184.086 77.2542 183.665 78.3242L183.898 78.4157ZM186.482 76.7917C186.584 76.7917 186.673 76.8002 186.737 76.8087C186.769 76.8129 186.794 76.8172 186.811 76.8202C186.819 76.8218 186.826 76.823 186.83 76.8239C186.832 76.8243 186.833 76.8246 186.834 76.8248C186.835 76.8249 186.835 76.8249 186.835 76.825C186.835 76.825 186.835 76.825 186.835 76.825C186.835 76.825 186.835 76.825 186.835 76.825C186.835 76.825 186.835 76.825 186.835 76.825C186.835 76.825 186.835 76.825 186.835 76.8249C186.835 76.8249 186.835 76.8249 186.862 76.7029C186.889 76.5809 186.889 76.5809 186.889 76.5809C186.889 76.5809 186.889 76.5809 186.889 76.5809C186.889 76.5809 186.889 76.5809 186.889 76.5809C186.889 76.5808 186.889 76.5808 186.889 76.5808C186.889 76.5808 186.889 76.5807 186.888 76.5807C186.888 76.5806 186.887 76.5804 186.886 76.5802C186.885 76.5799 186.882 76.5794 186.88 76.5789C186.874 76.5777 186.866 76.5761 186.856 76.5743C186.835 76.5706 186.806 76.5657 186.77 76.5609C186.698 76.5513 186.597 76.5417 186.482 76.5417V76.7917Z" fill="white"/>
<path d="M54.8733 31.5439H51V31.6419C54.5513 33.0669 56.2923 35.8013 57.6866 42.1723L67.2335 86.9428H69.3955L59.7941 41.8129C58.1324 34.0873 56.3889 32.6572 54.8733 31.5439ZM62.1344 31.5439H58.5038V31.6419C60.1334 33.6248 60.6014 36.0803 61.8917 41.4435L71.5897 86.9428H73.7517L64.0388 41.2876C63.2197 38.0802 62.5871 34.8267 62.1443 31.5439M75.2376 83.7988L76.674 80.7678L68.6055 42.1547C67.184 36.1607 67.5084 33.4087 68.0879 31.5414H64.9576C64.9207 34.7841 65.3376 38.0156 66.1959 41.1394L75.2376 83.7988ZM78.1277 77.6741L79.5789 74.5928L73.0905 42.8283C71.8795 36.6533 72.3971 33.4439 74.4129 31.6268V31.5288H70.9607C69.8958 33.8209 69.5738 36.1305 70.7997 42.22L78.1277 77.6741ZM81.0302 71.5343L82.4814 68.4405L77.5606 43.0067C76.2035 35.8515 77.8355 32.7251 83.3705 31.6419V31.5439H78.2416C76.7557 32.2803 73.6254 34.5598 75.3862 43.0394L81.0302 71.5343ZM90.6638 51.2626L90.8074 51.3606C94.2448 39.7822 95.3419 34.6578 92.3082 31.5288H88.0164V31.6268C92.8085 33.3609 93.8907 38.3271 90.6638 51.2626ZM90.9536 51.4561L91.0997 51.5541C96.5059 38.5683 97.9076 35.0146 100.136 31.6243V31.5288H95.7456V31.6595C96.1963 36.8518 94.438 41.6144 90.9536 51.4561ZM104.267 31.5464C99.7006 34.2481 96.9888 39.2746 91.2433 51.6522L91.3894 51.7502C97.972 39.2218 101.731 34.228 110.236 31.6444V31.5439L104.267 31.5464Z" fill="white"/>
</svg>
