<svg width="239" height="121" viewBox="0 0 239 121" fill="none" xmlns="http://www.w3.org/2000/svg">
<rect x="0.414013" y="0.414013" width="238.025" height="119.554" rx="9.14013" fill="white" stroke="#D9D9D9" stroke-width="0.828026"/>
<g clip-path="url(#clip0_1013_106)">
<path fill-rule="evenodd" clip-rule="evenodd" d="M134.875 45.0352V49.7251H136.129V45.0352H137.765V44.0209H136.129V43.6827C136.129 43.3265 136.205 43.0538 136.358 42.8647C136.511 42.6684 136.743 42.5703 137.056 42.5703C137.172 42.5703 137.289 42.5884 137.405 42.6248C137.529 42.6539 137.638 42.6938 137.732 42.7447L138.016 41.7849C137.87 41.705 137.703 41.6395 137.514 41.5886C137.332 41.5305 137.129 41.5014 136.903 41.5014C136.511 41.5014 136.162 41.5923 135.856 41.774C135.551 41.9486 135.311 42.1958 135.136 42.5157C134.962 42.8284 134.875 43.1956 134.875 43.6173V44.0209H133.871V45.0352H134.875ZM161.962 49.8888C161.584 49.8888 161.231 49.8125 160.905 49.6598C160.584 49.5071 160.304 49.2962 160.064 49.0272C159.824 48.7581 159.636 48.4419 159.498 48.0783C159.367 47.7148 159.301 47.3221 159.301 46.9004C159.301 46.4714 159.37 46.0715 159.508 45.7007C159.647 45.3298 159.839 45.0062 160.087 44.7299C160.333 44.4536 160.621 44.2391 160.948 44.0864C161.282 43.9337 161.642 43.8574 162.028 43.8574C162.406 43.8574 162.751 43.9374 163.064 44.0974C163.377 44.2573 163.635 44.4827 163.838 44.7735V41.6106H165.093V49.7252H163.947L163.893 48.809C163.689 49.1435 163.42 49.4089 163.086 49.6052C162.751 49.7943 162.377 49.8888 161.962 49.8888ZM162.224 48.7545C162.537 48.7545 162.817 48.6746 163.064 48.5146C163.311 48.3473 163.504 48.1219 163.642 47.8384C163.787 47.5548 163.86 47.2348 163.86 46.8786C163.86 46.515 163.787 46.1914 163.642 45.9079C163.504 45.6243 163.311 45.4025 163.064 45.2425C162.817 45.0753 162.537 44.9917 162.224 44.9917C161.911 44.9917 161.631 45.0753 161.384 45.2425C161.137 45.4025 160.941 45.6243 160.795 45.9079C160.657 46.1914 160.588 46.515 160.588 46.8786C160.588 47.2348 160.657 47.5548 160.795 47.8384C160.941 48.1219 161.137 48.3473 161.384 48.5146C161.631 48.6746 161.911 48.7545 162.224 48.7545ZM130.934 57.8073V62.4972H132.188V57.8073H133.824V56.793H132.188V56.4549C132.188 56.0986 132.264 55.8259 132.417 55.6369C132.57 55.4405 132.803 55.3424 133.115 55.3424C133.232 55.3424 133.348 55.3606 133.464 55.3969C133.588 55.426 133.697 55.466 133.791 55.5169L134.075 54.5571C133.929 54.4771 133.762 54.4117 133.573 54.3608C133.392 54.3026 133.188 54.2735 132.962 54.2735C132.57 54.2735 132.221 54.3644 131.915 54.5462C131.61 54.7207 131.37 54.9679 131.196 55.2878C131.021 55.6005 130.934 55.9677 130.934 56.3894V56.793H129.93V57.8073H130.934ZM167.17 54.7533V62.4971H168.478V59.7595C168.66 59.7813 168.831 59.7995 168.991 59.814C169.158 59.8286 169.315 59.8358 169.46 59.8358C170.071 59.8358 170.602 59.734 171.052 59.5304C171.503 59.3196 171.852 59.0251 172.1 58.647C172.346 58.2616 172.47 57.8144 172.47 57.3055C172.47 56.7674 172.35 56.3093 172.11 55.9312C171.877 55.5531 171.539 55.2622 171.096 55.0587C170.66 54.8551 170.133 54.7533 169.515 54.7533H167.17ZM168.478 58.6034V55.9094H169.493C170.009 55.9094 170.409 56.033 170.693 56.2802C170.976 56.5202 171.118 56.8583 171.118 57.2946C171.118 57.7381 170.969 58.0798 170.67 58.3198C170.38 58.5597 169.958 58.6797 169.405 58.6797C169.267 58.6797 169.118 58.6724 168.958 58.6579C168.798 58.6434 168.638 58.6252 168.478 58.6034ZM186.107 62.6608C185.533 62.6608 185.082 62.4972 184.755 62.17C184.427 61.8355 184.264 61.3593 184.264 60.7412V57.8073H183.261V56.793H184.264V54.8625H185.518V56.793H187.176V57.8073H185.518V60.6103C185.518 60.9157 185.58 61.1521 185.704 61.3193C185.834 61.4792 186.023 61.5592 186.271 61.5592C186.402 61.5592 186.543 61.5411 186.696 61.5047C186.849 61.4611 186.991 61.4029 187.121 61.3302L187.405 62.2791C187.238 62.3954 187.041 62.4863 186.816 62.5518C186.598 62.6245 186.362 62.6608 186.107 62.6608ZM197.447 62.6608C197.025 62.6608 196.636 62.5881 196.28 62.4427C195.931 62.29 195.625 62.0791 195.364 61.8101C195.102 61.5411 194.898 61.2247 194.753 60.8612C194.615 60.4904 194.546 60.0832 194.546 59.6396C194.546 59.2106 194.615 58.8144 194.753 58.4508C194.898 58.0872 195.095 57.771 195.342 57.5019C195.596 57.2256 195.894 57.0111 196.236 56.8584C196.578 56.7057 196.949 56.6294 197.349 56.6294C197.749 56.6294 198.112 56.7021 198.439 56.8475C198.774 56.9856 199.061 57.1856 199.301 57.4474C199.548 57.7092 199.737 58.0218 199.868 58.3854C199.999 58.7416 200.064 59.1379 200.064 59.5742V59.945H195.844C195.88 60.2795 195.967 60.5703 196.105 60.8176C196.251 61.0575 196.436 61.2429 196.662 61.3738C196.887 61.5047 197.149 61.5701 197.447 61.5701C198.043 61.5701 198.509 61.3047 198.843 60.7739L199.944 61.1993C199.813 61.4974 199.621 61.7592 199.367 61.9846C199.119 62.2027 198.829 62.37 198.494 62.4863C198.167 62.6027 197.817 62.6608 197.447 62.6608ZM197.349 57.6437C197.094 57.6437 196.865 57.7019 196.662 57.8182C196.465 57.9345 196.298 58.0981 196.16 58.309C196.022 58.5199 195.927 58.7671 195.876 59.0507H198.755C198.712 58.7671 198.629 58.5199 198.505 58.309C198.381 58.0981 198.218 57.9345 198.014 57.8182C197.817 57.7019 197.596 57.6437 197.349 57.6437ZM201.134 56.793V62.4973H202.388V59.607C202.388 59.0907 202.512 58.6872 202.759 58.3963C203.006 58.1055 203.348 57.96 203.784 57.96C203.872 57.96 203.959 57.9673 204.046 57.9819C204.133 57.9891 204.217 58.0073 204.297 58.0364L204.439 56.8149C204.359 56.7785 204.268 56.753 204.166 56.7385C204.064 56.724 203.959 56.7167 203.85 56.7167C203.501 56.7167 203.195 56.8076 202.934 56.9893C202.679 57.1639 202.479 57.4111 202.334 57.731L202.279 56.793H201.134ZM117.446 75.5809V74.8393C117.94 74.432 118.402 74.036 118.83 73.6505C119.267 73.258 119.648 72.8942 119.976 72.5599C120.317 72.2109 120.586 71.9053 120.783 71.6436C120.986 71.3819 121.132 71.142 121.219 70.9238C121.306 70.6982 121.35 70.4691 121.35 70.2366C121.35 69.9314 121.288 69.6658 121.165 69.4407C121.041 69.2077 120.87 69.0295 120.652 68.906C120.441 68.7752 120.19 68.7096 119.899 68.7096C119.507 68.7096 119.169 68.8295 118.885 69.0695C118.602 69.3094 118.398 69.6441 118.274 70.0731L117.446 69.8658C117.54 69.4659 117.707 69.1203 117.947 68.8295C118.187 68.5318 118.474 68.3027 118.809 68.1427C119.151 67.9754 119.522 67.8915 119.921 67.8915C120.256 67.8915 120.565 67.9497 120.848 68.0662C121.132 68.1753 121.379 68.3314 121.59 68.5353C121.801 68.7387 121.964 68.9786 122.081 69.2551C122.204 69.5315 122.266 69.8293 122.266 70.1492C122.266 70.6147 122.128 71.0872 121.852 71.5671C121.583 72.04 121.154 72.5634 120.565 73.138C120.427 73.2688 120.26 73.4214 120.063 73.5962C119.874 73.7705 119.667 73.9561 119.442 74.1521C119.223 74.3486 118.998 74.5446 118.765 74.7411H122.397V75.5809H117.446ZM124.835 75.2757C125.249 75.5883 125.74 75.7447 126.307 75.7447C126.874 75.7447 127.365 75.5883 127.779 75.2757C128.194 74.9558 128.514 74.5011 128.739 73.9122C128.964 73.3232 129.077 72.6251 129.077 71.8183C129.077 71.0112 128.964 70.3131 128.739 69.7241C128.521 69.1351 128.205 68.6843 127.79 68.3714C127.383 68.0515 126.896 67.8915 126.329 67.8915C125.762 67.8915 125.271 68.0515 124.856 68.3714C124.442 68.6843 124.122 69.1351 123.897 69.7241C123.671 70.3131 123.558 71.0112 123.558 71.8183C123.558 72.6251 123.667 73.3232 123.886 73.9122C124.111 74.5011 124.427 74.9558 124.835 75.2757ZM127.31 74.5668C127.041 74.8067 126.711 74.9267 126.318 74.9267C125.925 74.9267 125.591 74.8067 125.314 74.5668C125.045 74.3195 124.838 73.963 124.693 73.4979C124.547 73.0324 124.475 72.4725 124.475 71.8183C124.475 71.1563 124.547 70.5965 124.693 70.1383C124.838 69.6732 125.045 69.3203 125.314 69.0803C125.591 68.8334 125.925 68.7096 126.318 68.7096C126.711 68.7096 127.041 68.8334 127.31 69.0803C127.586 69.3203 127.798 69.6732 127.943 70.1383C128.088 70.5965 128.161 71.1563 128.161 71.8183C128.161 72.4725 128.088 73.0324 127.943 73.4979C127.798 73.963 127.586 74.3195 127.31 74.5668ZM130.056 75.5809V74.8393C130.551 74.432 131.013 74.036 131.442 73.6505C131.878 73.258 132.26 72.8942 132.587 72.5599C132.929 72.2109 133.198 71.9053 133.394 71.6436C133.598 71.3819 133.743 71.142 133.83 70.9238C133.917 70.6982 133.961 70.4691 133.961 70.2366C133.961 69.9314 133.899 69.6658 133.776 69.4407C133.652 69.2077 133.481 69.0295 133.263 68.906C133.052 68.7752 132.801 68.7096 132.51 68.7096C132.118 68.7096 131.78 68.8295 131.496 69.0695C131.212 69.3094 131.009 69.6441 130.885 70.0731L130.056 69.8658C130.151 69.4659 130.318 69.1203 130.558 68.8295C130.798 68.5318 131.085 68.3027 131.42 68.1427C131.761 67.9754 132.132 67.8915 132.532 67.8915C132.867 67.8915 133.176 67.9497 133.459 68.0662C133.743 68.1753 133.99 68.3314 134.201 68.5353C134.412 68.7387 134.576 68.9786 134.692 69.2551C134.816 69.5315 134.877 69.8293 134.877 70.1492C134.877 70.6147 134.739 71.0872 134.463 71.5671C134.193 72.04 133.764 72.5634 133.176 73.138C133.038 73.2688 132.87 73.4214 132.674 73.5962C132.485 73.7705 132.278 73.9561 132.052 74.1521C131.834 74.3486 131.609 74.5446 131.376 74.7411H135.008V75.5809H130.056ZM138.656 75.7447C138.242 75.7447 137.856 75.6682 137.5 75.5157C137.151 75.3557 136.849 75.134 136.595 74.8502C136.348 74.5668 136.166 74.2286 136.05 73.8361L136.889 73.6396C136.976 73.9087 137.108 74.1412 137.282 74.3377C137.457 74.5268 137.66 74.672 137.893 74.7741C138.125 74.8758 138.38 74.9267 138.656 74.9267C138.976 74.9267 139.26 74.8541 139.507 74.7085C139.754 74.5629 139.95 74.3629 140.096 74.1086C140.241 73.8539 140.314 73.567 140.314 73.2471C140.314 72.9272 140.241 72.6434 140.096 72.3965C139.958 72.1491 139.761 71.9566 139.507 71.8183C139.26 71.6727 138.972 71.6001 138.645 71.6001C138.478 71.6001 138.303 71.6253 138.122 71.6762C137.947 71.7275 137.78 71.8001 137.62 71.8944C137.467 71.9818 137.337 72.0835 137.228 72.2L136.496 72.1017V68.0554H140.685V68.8952H137.337V71.3054C137.707 70.9564 138.194 70.7821 138.798 70.7821C139.147 70.7821 139.467 70.8438 139.758 70.9677C140.056 71.0911 140.314 71.2654 140.532 71.491C140.757 71.7092 140.928 71.9709 141.045 72.2765C141.168 72.5742 141.23 72.8981 141.23 73.2471C141.23 73.6031 141.165 73.9343 141.034 74.2395C140.903 74.5377 140.717 74.7993 140.478 75.0249C140.245 75.2501 139.972 75.4283 139.66 75.5591C139.354 75.683 139.02 75.7447 138.656 75.7447ZM188.395 56.793V62.4972H189.65V59.1816C189.65 58.9052 189.708 58.6617 189.824 58.4508C189.94 58.2399 190.1 58.0727 190.304 57.9491C190.515 57.8255 190.751 57.7637 191.013 57.7637C191.383 57.7637 191.671 57.8945 191.875 58.1563C192.085 58.4181 192.191 58.7816 192.191 59.247V62.4972H193.445V59.1052C193.445 58.6035 193.358 58.1672 193.183 57.7964C193.009 57.4256 192.761 57.1383 192.441 56.9348C192.129 56.7312 191.758 56.6294 191.329 56.6294C190.937 56.6294 190.588 56.7166 190.282 56.8911C189.984 57.0584 189.751 57.2874 189.584 57.5783L189.54 56.793H188.395ZM179.353 56.793V62.4973H180.607V59.607C180.607 59.0907 180.73 58.6872 180.977 58.3963C181.225 58.1055 181.566 57.96 182.003 57.96C182.09 57.96 182.177 57.9673 182.264 57.9819C182.352 57.9891 182.435 58.0073 182.515 58.0364L182.657 56.8149C182.577 56.7785 182.486 56.753 182.384 56.7385C182.283 56.724 182.177 56.7167 182.068 56.7167C181.719 56.7167 181.414 56.8076 181.152 56.9893C180.897 57.1639 180.697 57.4111 180.552 57.731L180.497 56.793H179.353ZM175.058 62.6608C174.768 62.6608 174.499 62.6172 174.251 62.5299C174.011 62.4427 173.8 62.3191 173.619 62.1591C173.437 61.9991 173.295 61.8101 173.193 61.592C173.092 61.3738 173.041 61.1339 173.041 60.8721C173.041 60.5085 173.135 60.1923 173.324 59.9232C173.521 59.6469 173.793 59.4324 174.142 59.2797C174.491 59.127 174.898 59.0507 175.364 59.0507C175.618 59.0507 175.862 59.0761 176.094 59.127C176.327 59.1707 176.549 59.2361 176.76 59.3234V58.9634C176.76 58.7089 176.712 58.4872 176.618 58.2981C176.523 58.1018 176.389 57.9491 176.214 57.84C176.04 57.731 175.829 57.6764 175.582 57.6764C175.32 57.6764 175.084 57.7455 174.873 57.8836C174.662 58.0218 174.506 58.2145 174.404 58.4617L173.248 58.1999C173.335 57.88 173.491 57.6037 173.717 57.371C173.95 57.1383 174.226 56.9566 174.546 56.8257C174.873 56.6948 175.225 56.6294 175.603 56.6294C175.96 56.6294 176.283 56.6875 176.574 56.8039C176.872 56.9202 177.127 57.0838 177.338 57.2947C177.549 57.5056 177.712 57.7564 177.829 58.0472C177.945 58.3381 178.003 58.6617 178.003 59.018V62.4972H176.858L176.814 61.7447C176.661 62.0209 176.432 62.2427 176.127 62.41C175.822 62.5772 175.465 62.6608 175.058 62.6608ZM174.306 60.8176C174.306 60.9775 174.349 61.1229 174.436 61.2538C174.524 61.3774 174.644 61.4756 174.796 61.5483C174.956 61.621 175.142 61.6574 175.353 61.6574C175.622 61.6574 175.862 61.5992 176.073 61.4829C176.283 61.3665 176.451 61.2102 176.574 61.0139C176.698 60.8103 176.76 60.5813 176.76 60.3268V60.1959C176.571 60.1159 176.374 60.0541 176.171 60.0105C175.974 59.9596 175.771 59.9341 175.56 59.9341C175.182 59.9341 174.876 60.0141 174.644 60.1741C174.419 60.334 174.306 60.5485 174.306 60.8176ZM161.073 62.6608C160.652 62.6608 160.263 62.5881 159.906 62.4427C159.557 62.29 159.252 62.0791 158.99 61.8101C158.728 61.5411 158.525 61.2247 158.379 60.8612C158.241 60.4904 158.172 60.0832 158.172 59.6396C158.172 59.2106 158.241 58.8144 158.379 58.4508C158.525 58.0872 158.721 57.771 158.968 57.5019C159.223 57.2256 159.521 57.0111 159.863 56.8584C160.204 56.7057 160.575 56.6294 160.975 56.6294C161.375 56.6294 161.739 56.7021 162.066 56.8475C162.4 56.9856 162.688 57.1856 162.928 57.4474C163.174 57.7092 163.364 58.0218 163.494 58.3854C163.625 58.7416 163.691 59.1379 163.691 59.5742V59.945H159.47C159.506 60.2795 159.594 60.5703 159.732 60.8176C159.877 61.0575 160.063 61.2429 160.288 61.3738C160.513 61.5047 160.775 61.5701 161.073 61.5701C161.67 61.5701 162.135 61.3047 162.469 60.7739L163.571 61.1993C163.44 61.4974 163.247 61.7592 162.993 61.9846C162.745 62.2027 162.455 62.37 162.12 62.4863C161.793 62.6027 161.444 62.6608 161.073 62.6608ZM160.975 57.6437C160.721 57.6437 160.492 57.7019 160.288 57.8182C160.092 57.9345 159.924 58.0981 159.786 58.309C159.648 58.5199 159.554 58.7671 159.503 59.0507H162.382C162.339 58.7671 162.255 58.5199 162.131 58.309C162.008 58.0981 161.844 57.9345 161.64 57.8182C161.444 57.7019 161.222 57.6437 160.975 57.6437ZM154.365 56.793V62.4973H155.619V59.607C155.619 59.0907 155.743 58.6872 155.99 58.3963C156.237 58.1055 156.579 57.96 157.015 57.96C157.103 57.96 157.19 57.9673 157.277 57.9819C157.364 57.9891 157.448 58.0073 157.528 58.0364L157.67 56.8149C157.59 56.7785 157.498 56.753 157.397 56.7385C157.295 56.724 157.19 56.7167 157.081 56.7167C156.732 56.7167 156.426 56.8076 156.164 56.9893C155.91 57.1639 155.71 57.4111 155.565 57.731L155.51 56.793H154.365ZM150.071 62.6608C149.78 62.6608 149.511 62.6172 149.264 62.5299C149.024 62.4427 148.813 62.3191 148.631 62.1591C148.449 61.9991 148.307 61.8101 148.206 61.592C148.104 61.3738 148.053 61.1339 148.053 60.8721C148.053 60.5085 148.147 60.1923 148.336 59.9232C148.533 59.6469 148.805 59.4324 149.155 59.2797C149.504 59.127 149.911 59.0507 150.376 59.0507C150.631 59.0507 150.874 59.0761 151.107 59.127C151.34 59.1707 151.561 59.2361 151.772 59.3234V58.9634C151.772 58.7089 151.725 58.4872 151.63 58.2981C151.536 58.1018 151.401 57.9491 151.227 57.84C151.052 57.731 150.841 57.6764 150.594 57.6764C150.332 57.6764 150.096 57.7455 149.885 57.8836C149.674 58.0218 149.518 58.2145 149.416 58.4617L148.26 58.1999C148.347 57.88 148.504 57.6037 148.729 57.371C148.962 57.1383 149.238 56.9566 149.558 56.8257C149.885 56.6948 150.238 56.6294 150.616 56.6294C150.972 56.6294 151.296 56.6875 151.587 56.8039C151.885 56.9202 152.139 57.0838 152.35 57.2947C152.561 57.5056 152.725 57.7564 152.841 58.0472C152.957 58.3381 153.016 58.6617 153.016 59.018V62.4972H151.87L151.827 61.7447C151.674 62.0209 151.445 62.2427 151.14 62.41C150.834 62.5772 150.478 62.6608 150.071 62.6608ZM149.318 60.8176C149.318 60.9775 149.362 61.1229 149.449 61.2538C149.536 61.3774 149.656 61.4756 149.809 61.5483C149.969 61.621 150.154 61.6574 150.365 61.6574C150.634 61.6574 150.874 61.5992 151.085 61.4829C151.296 61.3665 151.463 61.2102 151.587 61.0139C151.71 60.8103 151.772 60.5813 151.772 60.3268V60.1959C151.583 60.1159 151.387 60.0541 151.183 60.0105C150.987 59.9596 150.783 59.9341 150.572 59.9341C150.194 59.9341 149.889 60.0141 149.656 60.1741C149.431 60.334 149.318 60.5485 149.318 60.8176ZM138.983 56.793L140.881 62.4973H142.059L143.324 58.3527L144.578 62.4973H145.756L147.665 56.793H146.4L145.167 60.9594L143.902 56.793H142.779L141.503 60.9594L140.292 56.793H138.983ZM137.218 62.6608C136.644 62.6608 136.193 62.4972 135.866 62.17C135.539 61.8355 135.375 61.3593 135.375 60.7412V57.8073H134.372V56.793H135.375V54.8625H136.629V56.793H138.287V57.8073H136.629V60.6103C136.629 60.9157 136.691 61.1521 136.815 61.3193C136.946 61.4792 137.135 61.5592 137.382 61.5592C137.513 61.5592 137.655 61.5411 137.807 61.5047C137.96 61.4611 138.102 61.4029 138.233 61.3302L138.516 62.2791C138.349 62.3954 138.153 62.4863 137.927 62.5518C137.709 62.6245 137.473 62.6608 137.218 62.6608ZM126.521 62.6608C126.106 62.6608 125.721 62.5881 125.365 62.4427C125.016 62.29 124.711 62.0791 124.449 61.8101C124.187 61.5338 123.983 61.2138 123.838 60.8503C123.693 60.4795 123.62 60.0759 123.62 59.6396C123.62 59.2106 123.693 58.8144 123.838 58.4508C123.983 58.08 124.187 57.7601 124.449 57.491C124.718 57.2147 125.031 57.0039 125.387 56.8584C125.75 56.7057 126.143 56.6294 126.565 56.6294C126.979 56.6294 127.361 56.7057 127.71 56.8584C128.066 57.0039 128.375 57.2147 128.637 57.491C128.899 57.7601 129.102 58.0763 129.248 58.4399C129.393 58.8034 129.466 59.2034 129.466 59.6396C129.466 60.0759 129.393 60.4795 129.248 60.8503C129.102 61.2138 128.895 61.5338 128.626 61.8101C128.364 62.0791 128.052 62.29 127.688 62.4427C127.332 62.5881 126.943 62.6608 126.521 62.6608ZM126.543 61.5265C126.855 61.5265 127.135 61.4465 127.383 61.2866C127.63 61.1193 127.822 60.8939 127.961 60.6103C128.106 60.3268 128.179 60.0032 128.179 59.6396C128.179 59.2761 128.106 58.9561 127.961 58.6798C127.822 58.3963 127.63 58.1745 127.383 58.0145C127.135 57.8473 126.855 57.7637 126.543 57.7637C126.23 57.7637 125.95 57.8473 125.703 58.0145C125.456 58.1745 125.26 58.3963 125.114 58.6798C124.976 58.9561 124.907 59.2761 124.907 59.6396C124.907 60.0032 124.976 60.3268 125.114 60.6103C125.26 60.8939 125.456 61.1193 125.703 61.2866C125.95 61.4465 126.23 61.5265 126.543 61.5265ZM118.7 62.4319C119.078 62.5846 119.485 62.6609 119.921 62.6609C120.314 62.6609 120.674 62.6027 121.001 62.4864C121.335 62.3628 121.626 62.1955 121.874 61.9847C122.121 61.7666 122.31 61.5085 122.441 61.2103C122.579 60.9049 122.648 60.5741 122.648 60.2178C122.648 59.0472 121.906 58.2946 120.423 57.9601L120.019 57.8728C119.583 57.771 119.259 57.6365 119.049 57.4693C118.838 57.3021 118.733 57.0767 118.733 56.7931C118.733 56.5968 118.783 56.4223 118.885 56.2696C118.994 56.1096 119.136 55.986 119.311 55.8987C119.492 55.8042 119.699 55.7569 119.932 55.7569C120.252 55.7569 120.528 55.8442 120.761 56.0187C120.994 56.1932 121.168 56.4441 121.285 56.7713L122.528 56.4659C122.426 56.0805 122.252 55.7496 122.004 55.4734C121.757 55.1898 121.459 54.9717 121.11 54.819C120.761 54.6663 120.38 54.5899 119.965 54.5899C119.602 54.5899 119.263 54.6481 118.95 54.7644C118.638 54.8735 118.365 55.0335 118.133 55.2443C117.9 55.4479 117.718 55.6915 117.587 55.9751C117.456 56.2514 117.391 56.5567 117.391 56.8912C117.391 57.4439 117.573 57.9128 117.936 58.2982C118.307 58.6836 118.878 58.9599 119.648 59.1271L120.052 59.2144C120.481 59.3089 120.794 59.4507 120.99 59.6398C121.194 59.8215 121.295 60.0506 121.295 60.3269C121.295 60.5523 121.234 60.7523 121.11 60.9267C120.994 61.1013 120.834 61.2394 120.63 61.3412C120.427 61.443 120.194 61.4939 119.932 61.4939C119.568 61.4939 119.259 61.403 119.005 61.2212C118.75 61.0394 118.565 60.7813 118.449 60.4469L117.195 60.7522C117.304 61.1449 117.489 61.483 117.751 61.7666C118.013 62.0501 118.329 62.2719 118.7 62.4319ZM154.644 49.6705C155.001 49.816 155.39 49.8886 155.812 49.8886C156.182 49.8886 156.531 49.8305 156.859 49.7142C157.193 49.5978 157.484 49.4306 157.731 49.2125C157.986 48.987 158.178 48.7253 158.309 48.4271L157.208 48.0018C156.873 48.5326 156.408 48.798 155.812 48.798C155.513 48.798 155.252 48.7325 155.027 48.6017C154.801 48.4708 154.615 48.2853 154.47 48.0454C154.332 47.7982 154.245 47.5074 154.208 47.1729H158.429V46.802C158.429 46.3658 158.364 45.9695 158.233 45.6132C158.102 45.2496 157.913 44.937 157.666 44.6752C157.426 44.4135 157.139 44.2135 156.804 44.0754C156.477 43.9299 156.113 43.8572 155.713 43.8572C155.313 43.8572 154.943 43.9336 154.601 44.0863C154.259 44.239 153.961 44.4534 153.706 44.7298C153.46 44.9988 153.263 45.3151 153.117 45.6787C152.98 46.0422 152.911 46.4385 152.911 46.8675C152.911 47.311 152.98 47.7182 153.117 48.0891C153.263 48.4526 153.466 48.7689 153.729 49.0379C153.99 49.307 154.295 49.5178 154.644 49.6705ZM155.027 45.0461C155.23 44.9297 155.459 44.8716 155.713 44.8716C155.961 44.8716 156.182 44.9297 156.379 45.0461C156.582 45.1624 156.746 45.326 156.87 45.5369C156.993 45.7477 157.077 45.995 157.12 46.2785H154.241C154.292 45.995 154.386 45.7477 154.524 45.5369C154.663 45.326 154.83 45.1624 155.027 45.0461ZM149.103 49.7251V44.0209H150.249L150.303 44.9589C150.449 44.6389 150.648 44.3917 150.903 44.2172C151.164 44.0354 151.47 43.9445 151.819 43.9445C151.928 43.9445 152.033 43.9518 152.135 43.9664C152.237 43.9809 152.328 44.0063 152.408 44.0427L152.266 45.2642C152.186 45.2352 152.102 45.217 152.015 45.2097C151.928 45.1952 151.841 45.1879 151.753 45.1879C151.317 45.1879 150.975 45.3333 150.728 45.6242C150.481 45.915 150.357 46.3186 150.357 46.8348V49.7251H149.103ZM144.875 44.0209V49.7251H146.129V46.8348C146.129 46.3186 146.253 45.915 146.5 45.6242C146.747 45.3333 147.089 45.1879 147.525 45.1879C147.612 45.1879 147.7 45.1952 147.787 45.2097C147.874 45.217 147.958 45.2352 148.038 45.2642L148.18 44.0427C148.1 44.0063 148.009 43.9809 147.907 43.9664C147.805 43.9518 147.7 43.9445 147.591 43.9445C147.242 43.9445 146.936 44.0354 146.674 44.2172C146.42 44.3917 146.22 44.6389 146.074 44.9589L146.02 44.0209H144.875ZM141.188 49.8886C140.766 49.8886 140.377 49.816 140.021 49.6705C139.672 49.5178 139.366 49.307 139.104 49.0379C138.843 48.7689 138.639 48.4526 138.494 48.0891C138.355 47.7182 138.286 47.311 138.286 46.8675C138.286 46.4385 138.355 46.0422 138.494 45.6787C138.639 45.3151 138.835 44.9988 139.083 44.7298C139.337 44.4534 139.635 44.239 139.977 44.0863C140.319 43.9336 140.69 43.8572 141.09 43.8572C141.489 43.8572 141.853 43.9299 142.18 44.0754C142.514 44.2135 142.802 44.4135 143.042 44.6752C143.289 44.937 143.478 45.2496 143.609 45.6132C143.74 45.9695 143.805 46.3658 143.805 46.802V47.1729H139.584C139.621 47.5074 139.708 47.7982 139.846 48.0454C139.992 48.2853 140.177 48.4708 140.402 48.6017C140.628 48.7325 140.89 48.798 141.188 48.798C141.784 48.798 142.249 48.5326 142.584 48.0018L143.685 48.4271C143.554 48.7253 143.362 48.987 143.107 49.2125C142.86 49.4306 142.569 49.5978 142.235 49.7142C141.908 49.8305 141.559 49.8886 141.188 49.8886ZM141.09 44.8716C140.835 44.8716 140.606 44.9297 140.402 45.0461C140.206 45.1624 140.039 45.326 139.901 45.5369C139.763 45.7477 139.668 45.995 139.617 46.2785H142.497C142.453 45.995 142.369 45.7477 142.245 45.5369C142.122 45.326 141.958 45.1624 141.755 45.0461C141.559 44.9297 141.336 44.8716 141.09 44.8716ZM130.664 49.8886C130.243 49.8886 129.854 49.816 129.497 49.6705C129.148 49.5178 128.843 49.307 128.581 49.0379C128.319 48.7689 128.116 48.4526 127.97 48.0891C127.832 47.7182 127.763 47.311 127.763 46.8675C127.763 46.4385 127.832 46.0422 127.97 45.6787C128.116 45.3151 128.312 44.9988 128.559 44.7298C128.814 44.4534 129.112 44.239 129.454 44.0863C129.795 43.9336 130.166 43.8572 130.566 43.8572C130.966 43.8572 131.329 43.9299 131.657 44.0754C131.991 44.2135 132.278 44.4135 132.518 44.6752C132.766 44.937 132.955 45.2496 133.086 45.6132C133.216 45.9695 133.282 46.3658 133.282 46.802V47.1729H129.061C129.097 47.5074 129.185 47.7982 129.323 48.0454C129.468 48.2853 129.654 48.4708 129.879 48.6017C130.105 48.7325 130.366 48.798 130.664 48.798C131.26 48.798 131.726 48.5326 132.061 48.0018L133.162 48.4271C133.031 48.7253 132.838 48.987 132.584 49.2125C132.337 49.4306 132.046 49.5978 131.712 49.7142C131.384 49.8305 131.035 49.8886 130.664 49.8886ZM130.566 44.8716C130.311 44.8716 130.083 44.9297 129.879 45.0461C129.683 45.1624 129.516 45.326 129.377 45.5369C129.239 45.7477 129.145 45.995 129.094 46.2785H131.973C131.929 45.995 131.846 45.7477 131.722 45.5369C131.598 45.326 131.435 45.1624 131.232 45.0461C131.035 44.9297 130.813 44.8716 130.566 44.8716ZM123.956 44.0209V49.7251H125.21V46.8348C125.21 46.3186 125.334 45.915 125.581 45.6242C125.828 45.3333 126.17 45.1879 126.606 45.1879C126.694 45.1879 126.781 45.1952 126.868 45.2097C126.955 45.217 127.039 45.2352 127.119 45.2642L127.26 44.0427C127.18 44.0063 127.09 43.9809 126.988 43.9664C126.886 43.9518 126.781 43.9445 126.671 43.9445C126.322 43.9445 126.017 44.0354 125.756 44.2172C125.501 44.3917 125.301 44.6389 125.156 44.9589L125.101 44.0209H123.956ZM117.642 49.7249V41.9811H119.987C120.605 41.9811 121.132 42.0829 121.568 42.2865C122.012 42.4901 122.35 42.781 122.582 43.1591C122.822 43.5372 122.942 43.9953 122.942 44.5333C122.942 45.0423 122.819 45.4895 122.572 45.8748C122.324 46.2529 121.975 46.5474 121.524 46.7583C121.074 46.9619 120.543 47.0637 119.932 47.0637C119.787 47.0637 119.631 47.0564 119.463 47.0419C119.303 47.0273 119.132 47.0091 118.951 46.9873V49.7249H117.642ZM118.951 43.1373V45.8312C119.111 45.853 119.271 45.8712 119.431 45.8857C119.591 45.9003 119.74 45.9076 119.878 45.9076C120.43 45.9076 120.852 45.7876 121.143 45.5476C121.441 45.3077 121.59 44.966 121.59 44.5224C121.59 44.0861 121.448 43.748 121.165 43.5081C120.881 43.2609 120.481 43.1373 119.965 43.1373H118.951ZM170.072 42.5535H171.325V45.0426H173.814V46.2949H171.325V48.7839H170.072V46.2949H167.583V45.0426H170.072V42.5535Z" fill="#222222"/>
<path d="M98.7811 22.0437V96.8077" stroke="#222222" stroke-width="1.72"/>
<path d="M79.0921 58.2852C78.9074 57.7769 78.6996 57.2687 78.4914 56.8066C78.168 56.0904 77.8446 55.3973 77.5443 54.7043L77.5212 54.658C74.7028 48.5359 71.6763 42.3213 68.5113 36.1991L68.3727 35.945C68.0492 35.3212 67.7258 34.6743 67.3792 34.0506C66.9865 33.3113 66.5476 32.5258 65.9238 31.7865C64.5607 30.2155 62.6894 29.3377 60.6795 29.3377C58.6465 29.3377 56.7983 30.2155 55.4583 31.7865C54.8345 32.5258 54.3956 33.3113 54.0028 34.0506C53.6563 34.6975 53.3329 35.3443 53.0094 35.9681L52.8939 36.1991C49.752 42.3213 46.7025 48.5359 43.8839 54.658L43.7915 54.7505C43.4912 55.4205 43.1677 56.1136 42.8443 56.8297C42.6364 57.2918 42.4284 57.7769 42.2437 58.3083C41.7123 59.8099 41.5506 61.2423 41.7585 62.6978C42.1975 65.7473 44.2305 68.3349 47.0721 69.4898C48.1348 69.9288 49.2437 70.1366 50.3988 70.1366C50.7454 70.1366 51.115 70.1135 51.4616 70.0675C52.8246 69.9058 54.2108 69.4437 55.5507 68.6813C57.2141 67.7572 58.8313 66.3941 60.6102 64.4305C62.3891 66.371 64.0294 67.7341 65.6696 68.6813C67.0327 69.4437 68.3957 69.9058 69.7588 70.0675C70.1054 70.1135 70.475 70.1366 70.8215 70.1366C71.9766 70.1366 73.1087 69.9288 74.1483 69.4898C76.9899 68.3349 79.023 65.7242 79.462 62.6978C79.7854 61.2192 79.6237 59.7868 79.0921 58.2852ZM60.6795 60.4106C58.4616 57.6152 57.0524 55.0046 56.5672 52.8099C56.3593 51.8857 56.3131 51.0541 56.4286 50.3148C56.521 49.6679 56.7521 49.0904 57.0755 48.6052C57.8379 47.4963 59.1778 46.8263 60.6795 46.8263C62.1812 46.8263 63.5211 47.4963 64.2835 48.6052C64.63 49.0904 64.8379 49.6679 64.9304 50.3148C65.0459 51.0541 64.9997 51.9089 64.7917 52.8099C64.3066 55.0046 62.8742 57.6152 60.6795 60.4106ZM76.9899 62.305C76.6896 64.4305 75.2572 66.2554 73.2704 67.0643C72.3001 67.4568 71.2374 67.5955 70.1516 67.4799C69.1119 67.3647 68.0954 67.0178 67.0327 66.4171C65.5541 65.5856 64.0756 64.3149 62.3891 62.4437C65.069 59.14 66.7324 56.1135 67.333 53.4105C67.6102 52.163 67.6796 51.0079 67.5178 49.9221C67.3561 48.8824 66.9865 47.9583 66.432 47.1266C65.1845 45.3015 63.036 44.2157 60.6795 44.2157C58.323 44.2157 56.1745 45.3015 54.927 47.1266C54.3725 47.9352 54.0028 48.8824 53.8411 49.9221C53.6794 50.9848 53.7256 52.163 54.026 53.4105C54.6497 56.1135 56.3131 59.1631 58.9699 62.4667C57.2834 64.338 55.8049 65.6086 54.3263 66.4406C53.2635 67.0408 52.2471 67.3877 51.2075 67.5029C50.1216 67.6185 49.0589 67.4799 48.0886 67.0874C46.1018 66.2789 44.6694 64.4535 44.3691 62.3281C44.2305 61.2885 44.346 60.2951 44.7387 59.1631C44.8774 58.7472 45.0622 58.3545 45.2701 57.8693C45.5704 57.1994 45.8938 56.5063 46.1942 55.8363L46.2404 55.7439C49.0127 49.6679 52.0391 43.4764 55.158 37.4005L55.2735 37.1694C55.5969 36.5456 55.9204 35.8988 56.2669 35.2981C56.6134 34.6513 56.96 34.0275 57.422 33.4961C58.2768 32.5027 59.4088 31.9714 60.6795 31.9714C61.9501 31.9714 63.0822 32.5027 63.9369 33.4961C64.399 34.0275 64.7455 34.6513 65.0921 35.2981C65.4155 35.9219 65.7389 36.5456 66.0624 37.1694L66.201 37.4236C69.3429 43.4995 72.3463 49.691 75.1648 55.767L75.1879 55.8132C75.5113 56.4832 75.8117 57.1994 76.1351 57.8693C76.343 58.3545 76.5278 58.7472 76.6664 59.1631C77.013 60.272 77.1285 61.2654 76.9899 62.305Z" fill="#FF385C"/>
<path d="M38.7891 89.5134C38.1474 89.5134 37.5641 89.3822 37.0245 89.134C36.4849 88.8719 36.0183 88.5215 35.61 88.0551C35.2016 87.5883 34.8954 87.0632 34.6621 86.4507C34.4287 85.8383 34.3266 85.1676 34.3266 84.453C34.3266 83.724 34.4433 83.0386 34.6766 82.4113C34.91 81.7841 35.2308 81.2447 35.6537 80.7635C36.0766 80.2966 36.5579 79.9176 37.1266 79.6551C37.6953 79.3925 38.2933 79.2612 38.9495 79.2612C39.5912 79.2612 40.1599 79.3925 40.6703 79.6698C41.1807 79.9324 41.6036 80.3258 41.939 80.8074L42.0119 79.5386H44.389V89.2361H42.0119L41.939 87.8217C41.6036 88.3468 41.1661 88.7549 40.612 89.0614C40.0578 89.3674 39.4453 89.5134 38.7891 89.5134ZM39.387 87.1945C39.8537 87.1945 40.262 87.078 40.6412 86.8302C41.0057 86.582 41.2974 86.2469 41.5161 85.8239C41.7349 85.401 41.8369 84.9198 41.8369 84.3799C41.8369 83.8405 41.7349 83.3593 41.5161 82.9364C41.2974 82.5135 41.0057 82.1779 40.6412 81.9301C40.2766 81.6824 39.8537 81.5654 39.387 81.5654C38.9203 81.5654 38.512 81.6824 38.1328 81.9301C37.7683 82.1779 37.4766 82.5135 37.2578 82.9364C37.0391 83.3593 36.937 83.8405 36.937 84.3799C36.937 84.9198 37.0391 85.401 37.2578 85.8239C37.4766 86.2469 37.7683 86.582 38.1328 86.8302C38.512 87.078 38.9203 87.1945 39.387 87.1945ZM48.3994 76.9136C48.3994 77.1905 48.341 77.453 48.2098 77.6716C48.0785 77.8907 47.9035 78.0655 47.6702 78.1967C47.4369 78.328 47.1889 78.3862 46.9265 78.3862C46.664 78.3862 46.416 78.328 46.1827 78.1967C45.9494 78.0655 45.7744 77.8907 45.6432 77.6716C45.5119 77.453 45.4536 77.2052 45.4536 76.9136C45.4536 76.6362 45.5119 76.3741 45.6432 76.1551C45.7744 75.9364 45.9494 75.7612 46.1827 75.63C46.416 75.4991 46.664 75.4405 46.9265 75.4405C47.1889 75.4405 47.4369 75.4991 47.6702 75.63C47.9035 75.7612 48.0785 75.9364 48.2098 76.1551C48.341 76.3741 48.3994 76.6219 48.3994 76.9136ZM45.6432 89.2361V79.5386H48.2098V89.2361H45.6432ZM55.1076 82.0757V82.1053C54.9764 82.0614 54.8305 82.0175 54.6993 82.0032C54.5534 81.9884 54.4076 81.974 54.2618 81.974C53.5472 81.974 53.0077 82.1927 52.6285 82.63C52.2493 83.0677 52.0597 83.6801 52.0597 84.4821V89.2361H49.4931V79.5386H51.8702L51.9577 81.0112C52.2055 80.5009 52.5264 80.1071 52.9493 79.8302C53.3722 79.5529 53.8534 79.4216 54.4222 79.4216C54.5972 79.4216 54.7722 79.4364 54.9326 79.4655C55.0055 79.4803 55.0639 79.4947 55.1222 79.5094V82.0757H55.1076ZM56.1284 89.2361V75.5283H58.695V80.7635C59.045 80.2966 59.468 79.9324 59.9929 79.6551C60.5179 79.3925 61.0867 79.2469 61.7138 79.2469C62.3554 79.2469 62.9388 79.3782 63.4783 79.6259C64.0179 79.8885 64.4845 80.2384 64.8929 80.7052C65.3012 81.1716 65.6075 81.6967 65.8408 82.3092C66.0741 82.9216 66.1762 83.5928 66.1762 84.3074C66.1762 85.0363 66.0595 85.7218 65.8262 86.3486C65.5929 86.9758 65.272 87.5152 64.8492 87.9969C64.4262 88.4633 63.945 88.8423 63.3763 89.1049C62.8075 89.3674 62.2096 89.4987 61.5534 89.4987C60.9117 89.4987 60.3429 89.3674 59.8325 89.0905C59.3221 88.828 58.8992 88.4341 58.5638 87.953L58.4909 89.2218H56.1284V89.2361ZM61.1013 87.1945C61.5679 87.1945 61.9763 87.078 62.3554 86.8302C62.72 86.582 63.0117 86.2469 63.2304 85.8239C63.4492 85.401 63.5513 84.9198 63.5513 84.3799C63.5513 83.8405 63.4492 83.3593 63.2304 82.9364C63.0117 82.5135 62.72 82.1779 62.3554 81.9301C61.9908 81.6824 61.5679 81.5654 61.1013 81.5654C60.6346 81.5654 60.2263 81.6824 59.8471 81.9301C59.4825 82.1779 59.1909 82.5135 58.9722 82.9364C58.7534 83.3593 58.6513 83.8405 58.6513 84.3799C58.6513 84.9198 58.7534 85.401 58.9722 85.8239C59.1909 86.2469 59.4825 86.582 59.8471 86.8302C60.2263 87.078 60.6346 87.1945 61.1013 87.1945ZM67.197 89.2361V79.5386H69.5741L69.647 80.7926C69.9241 80.3258 70.3178 79.9615 70.8137 79.6842C71.3095 79.4073 71.8782 79.276 72.5199 79.276C73.2344 79.276 73.8469 79.4508 74.3865 79.7863C74.9261 80.1219 75.3344 80.6031 75.6261 81.2303C75.9178 81.8571 76.0636 82.5865 76.0636 83.4324V89.2509H73.4824V83.7531C73.4824 83.082 73.3219 82.5426 73.0157 82.1635C72.7094 81.7841 72.2865 81.5802 71.747 81.5802C71.3532 81.5802 71.0178 81.6676 70.7115 81.8428C70.4199 82.0175 70.1865 82.2657 70.0115 82.5865C69.8366 82.9073 69.7491 83.2715 69.7491 83.6653V89.2361H67.197ZM77.3177 89.2361V75.5283H79.8845V80.7635C80.2345 80.2966 80.6574 79.9324 81.182 79.6551C81.7071 79.3925 82.2761 79.2469 82.9029 79.2469C83.5449 79.2469 84.1283 79.3782 84.6677 79.6259C85.2071 79.8885 85.674 80.2384 86.0821 80.7052C86.4907 81.1716 86.7967 81.6967 87.0301 82.3092C87.2636 82.9216 87.3657 83.5928 87.3657 84.3074C87.3657 85.0363 87.2488 85.7218 87.0154 86.3486C86.7824 86.9758 86.4611 87.5152 86.0386 87.9969C85.6157 88.4633 85.1341 88.8423 84.5655 89.1049C83.997 89.3674 83.3989 89.4987 82.7425 89.4987C82.1009 89.4987 81.5324 89.3674 81.0216 89.0905C80.5113 88.828 80.0884 88.4341 79.7533 87.953L79.6802 89.2218H77.3177V89.2361ZM82.2905 87.1945C82.7573 87.1945 83.1655 87.078 83.5449 86.8302C83.9092 86.582 84.2008 86.2469 84.4199 85.8239C84.6386 85.401 84.7407 84.9198 84.7407 84.3799C84.7407 83.8405 84.6386 83.3593 84.4199 82.9364C84.2008 82.5135 83.9092 82.1779 83.5449 81.9301C83.1802 81.6824 82.7573 81.5654 82.2905 81.5654C81.8241 81.5654 81.4155 81.6824 81.0364 81.9301C80.6717 82.1779 80.3801 82.5135 80.1614 82.9364C79.9428 83.3593 79.8406 83.8405 79.8406 84.3799C79.8406 84.9198 79.9428 85.401 80.1614 85.8239C80.3801 86.2469 80.6717 86.582 81.0364 86.8302C81.4155 87.078 81.8241 87.1945 82.2905 87.1945Z" fill="#FF385C"/>
</g>
<defs>
<clipPath id="clip0_1013_106">
<rect width="170.827" height="75.1985" fill="white" transform="translate(34 22)"/>
</clipPath>
</defs>
</svg>
