<svg width="240" height="121" viewBox="0 0 240 121" fill="none" xmlns="http://www.w3.org/2000/svg">
<rect x="0.369385" width="238.854" height="120.382" rx="9.55414" fill="#003B94"/>
<path d="M91.716 72.2672C91.486 71.9682 91.1947 71.7382 90.842 71.5772C90.4893 71.4162 90.1252 71.3357 89.7495 71.3357C89.2895 71.3357 88.8717 71.4238 88.496 71.6002C88.128 71.7688 87.8098 72.0027 87.5415 72.3017C87.2808 72.6007 87.0777 72.9533 86.932 73.3597C86.7863 73.7583 86.7135 74.1877 86.7135 74.6477C86.7135 75.077 86.7825 75.4833 86.9205 75.8667C87.0585 76.25 87.2578 76.5873 87.5185 76.8787C87.7792 77.17 88.0973 77.4 88.473 77.5687C88.8487 77.7373 89.2742 77.8217 89.7495 77.8217C90.2172 77.8217 90.6273 77.7258 90.98 77.5342C91.3327 77.3425 91.6317 77.0742 91.877 76.7292L92.8085 77.4307C92.7472 77.515 92.6398 77.6377 92.4865 77.7987C92.3332 77.952 92.13 78.1092 91.877 78.2702C91.624 78.4235 91.3173 78.5577 90.957 78.6727C90.6043 78.7953 90.1942 78.8567 89.7265 78.8567C89.0825 78.8567 88.4998 78.734 87.9785 78.4887C87.4648 78.2433 87.024 77.9213 86.656 77.5227C86.2957 77.124 86.0197 76.6755 85.828 76.1772C85.6363 75.6712 85.5405 75.1613 85.5405 74.6477C85.5405 74.019 85.644 73.4402 85.851 72.9112C86.058 72.3745 86.3455 71.9145 86.7135 71.5312C87.0892 71.1402 87.5377 70.8373 88.059 70.6227C88.5803 70.408 89.1553 70.3007 89.784 70.3007C90.3207 70.3007 90.8458 70.4042 91.3595 70.6112C91.8808 70.8182 92.3063 71.1363 92.636 71.5657L91.716 72.2672ZM94.7762 75.9242C94.7762 76.2002 94.8183 76.457 94.9027 76.6947C94.987 76.9247 95.1058 77.124 95.2592 77.2927C95.4125 77.4537 95.6003 77.584 95.8227 77.6837C96.045 77.7757 96.2942 77.8217 96.5702 77.8217C96.8462 77.8217 97.0953 77.7757 97.3177 77.6837C97.54 77.584 97.7278 77.4537 97.8812 77.2927C98.0345 77.124 98.1533 76.9247 98.2377 76.6947C98.322 76.457 98.3642 76.2002 98.3642 75.9242C98.3642 75.6482 98.322 75.3952 98.2377 75.1652C98.1533 74.9275 98.0345 74.7282 97.8812 74.5672C97.7278 74.3985 97.54 74.2682 97.3177 74.1762C97.0953 74.0765 96.8462 74.0267 96.5702 74.0267C96.2942 74.0267 96.045 74.0765 95.8227 74.1762C95.6003 74.2682 95.4125 74.3985 95.2592 74.5672C95.1058 74.7282 94.987 74.9275 94.9027 75.1652C94.8183 75.3952 94.7762 75.6482 94.7762 75.9242ZM93.6722 75.9242C93.6722 75.5255 93.745 75.1537 93.8907 74.8087C94.044 74.4637 94.251 74.1608 94.5117 73.9002C94.7723 73.6395 95.079 73.4363 95.4317 73.2907C95.7843 73.1373 96.1638 73.0607 96.5702 73.0607C96.9765 73.0607 97.356 73.1373 97.7087 73.2907C98.0613 73.4363 98.368 73.6395 98.6287 73.9002C98.8893 74.1608 99.0925 74.4637 99.2382 74.8087C99.3915 75.1537 99.4682 75.5255 99.4682 75.9242C99.4682 76.3228 99.3915 76.6985 99.2382 77.0512C99.0925 77.3962 98.8893 77.699 98.6287 77.9597C98.368 78.2127 98.0613 78.4158 97.7087 78.5692C97.356 78.7148 96.9765 78.7877 96.5702 78.7877C96.1638 78.7877 95.7843 78.7148 95.4317 78.5692C95.079 78.4158 94.7723 78.2127 94.5117 77.9597C94.251 77.699 94.044 77.3962 93.8907 77.0512C93.745 76.6985 93.6722 76.3228 93.6722 75.9242ZM100.822 73.1987H101.857V74.0382H101.88C102.011 73.7468 102.237 73.513 102.559 73.3367C102.881 73.1527 103.253 73.0607 103.674 73.0607C103.935 73.0607 104.184 73.1028 104.422 73.1872C104.667 73.2638 104.878 73.3865 105.054 73.5552C105.238 73.7238 105.384 73.9423 105.491 74.2107C105.599 74.4713 105.652 74.7818 105.652 75.1422V78.6497H104.617V75.4297C104.617 75.1767 104.583 74.962 104.514 74.7857C104.445 74.6017 104.353 74.456 104.238 74.3487C104.123 74.2337 103.989 74.1532 103.835 74.1072C103.69 74.0535 103.536 74.0267 103.375 74.0267C103.161 74.0267 102.961 74.0612 102.777 74.1302C102.593 74.1992 102.432 74.3103 102.294 74.4637C102.156 74.6093 102.049 74.7972 101.972 75.0272C101.896 75.2572 101.857 75.5293 101.857 75.8437V78.6497H100.822V73.1987ZM107.27 73.1987H108.305V74.0382H108.328C108.458 73.7468 108.684 73.513 109.006 73.3367C109.328 73.1527 109.7 73.0607 110.122 73.0607C110.383 73.0607 110.632 73.1028 110.869 73.1872C111.115 73.2638 111.326 73.3865 111.502 73.5552C111.686 73.7238 111.832 73.9423 111.939 74.2107C112.046 74.4713 112.1 74.7818 112.1 75.1422V78.6497H111.065V75.4297C111.065 75.1767 111.03 74.962 110.961 74.7857C110.892 74.6017 110.8 74.456 110.685 74.3487C110.57 74.2337 110.436 74.1532 110.283 74.1072C110.137 74.0535 109.984 74.0267 109.823 74.0267C109.608 74.0267 109.409 74.0612 109.225 74.1302C109.041 74.1992 108.88 74.3103 108.742 74.4637C108.604 74.6093 108.497 74.7972 108.42 75.0272C108.343 75.2572 108.305 75.5293 108.305 75.8437V78.6497H107.27V73.1987ZM114.5 76.3037C114.5 76.5413 114.549 76.7598 114.649 76.9592C114.756 77.1508 114.894 77.3157 115.063 77.4537C115.232 77.5917 115.427 77.699 115.65 77.7757C115.872 77.8523 116.102 77.8907 116.34 77.8907C116.662 77.8907 116.941 77.8178 117.179 77.6722C117.417 77.5188 117.635 77.3195 117.835 77.0742L118.617 77.6722C118.042 78.4158 117.237 78.7877 116.202 78.7877C115.772 78.7877 115.381 78.7148 115.029 78.5692C114.684 78.4235 114.388 78.2242 114.143 77.9712C113.905 77.7105 113.721 77.4077 113.591 77.0627C113.461 76.71 113.396 76.3305 113.396 75.9242C113.396 75.5178 113.465 75.1422 113.603 74.7972C113.748 74.4445 113.944 74.1417 114.189 73.8887C114.442 73.628 114.741 73.4248 115.086 73.2792C115.431 73.1335 115.807 73.0607 116.213 73.0607C116.696 73.0607 117.102 73.145 117.432 73.3137C117.769 73.4823 118.045 73.7047 118.26 73.9807C118.475 74.249 118.628 74.5557 118.72 74.9007C118.82 75.238 118.87 75.583 118.87 75.9357V76.3037H114.5ZM117.766 75.4757C117.758 75.2457 117.72 75.0348 117.651 74.8432C117.589 74.6515 117.493 74.4867 117.363 74.3487C117.233 74.203 117.068 74.0918 116.869 74.0152C116.677 73.9308 116.451 73.8887 116.19 73.8887C115.937 73.8887 115.703 73.9385 115.489 74.0382C115.282 74.1302 115.105 74.2528 114.96 74.4062C114.814 74.5595 114.699 74.732 114.615 74.9237C114.538 75.1077 114.5 75.2917 114.5 75.4757H117.766ZM124.064 74.6477C123.872 74.4483 123.669 74.2988 123.454 74.1992C123.247 74.0918 122.998 74.0382 122.707 74.0382C122.423 74.0382 122.174 74.0918 121.959 74.1992C121.752 74.2988 121.576 74.4407 121.43 74.6247C121.292 74.801 121.185 75.008 121.108 75.2457C121.039 75.4757 121.005 75.7172 121.005 75.9702C121.005 76.2232 121.047 76.4647 121.131 76.6947C121.216 76.917 121.334 77.1125 121.488 77.2812C121.641 77.4498 121.825 77.584 122.04 77.6837C122.254 77.7757 122.496 77.8217 122.764 77.8217C123.056 77.8217 123.305 77.7718 123.512 77.6722C123.719 77.5648 123.91 77.4115 124.087 77.2122L124.823 77.9482C124.554 78.2472 124.24 78.4618 123.88 78.5922C123.527 78.7225 123.151 78.7877 122.753 78.7877C122.331 78.7877 121.944 78.7187 121.591 78.5807C121.246 78.4427 120.947 78.251 120.694 78.0057C120.441 77.7527 120.246 77.4537 120.108 77.1087C119.97 76.756 119.901 76.3688 119.901 75.9472C119.901 75.5255 119.97 75.1383 120.108 74.7857C120.246 74.433 120.437 74.1302 120.683 73.8772C120.936 73.6242 121.235 73.4287 121.58 73.2907C121.932 73.145 122.323 73.0722 122.753 73.0722C123.151 73.0722 123.531 73.145 123.891 73.2907C124.259 73.4287 124.577 73.6433 124.846 73.9347L124.064 74.6477ZM128.692 74.0957H127.208V76.5682C127.208 76.7215 127.212 76.8748 127.22 77.0282C127.227 77.1738 127.254 77.308 127.3 77.4307C127.354 77.5457 127.43 77.6415 127.53 77.7182C127.637 77.7872 127.791 77.8217 127.99 77.8217C128.113 77.8217 128.239 77.8102 128.37 77.7872C128.5 77.7642 128.619 77.722 128.726 77.6607V78.6037C128.603 78.6727 128.442 78.7187 128.243 78.7417C128.051 78.7723 127.902 78.7877 127.795 78.7877C127.396 78.7877 127.085 78.734 126.863 78.6267C126.648 78.5117 126.487 78.366 126.38 78.1897C126.28 78.0133 126.219 77.8178 126.196 77.6032C126.181 77.3808 126.173 77.1585 126.173 76.9362V74.0957H124.977V73.1987H126.173V71.6692H127.208V73.1987H128.692V74.0957ZM130.165 73.1987H131.2V78.6497H130.165V73.1987ZM129.923 71.2437C129.923 71.0367 129.996 70.8603 130.142 70.7147C130.295 70.5613 130.475 70.4847 130.682 70.4847C130.889 70.4847 131.066 70.5613 131.211 70.7147C131.365 70.8603 131.441 71.0367 131.441 71.2437C131.441 71.4507 131.365 71.6308 131.211 71.7842C131.066 71.9298 130.889 72.0027 130.682 72.0027C130.475 72.0027 130.295 71.9298 130.142 71.7842C129.996 71.6308 129.923 71.4507 129.923 71.2437ZM132.249 73.1987H133.445L135.078 77.3732L136.642 73.1987H137.746L135.607 78.6497H134.469L132.249 73.1987ZM138.793 73.1987H139.828V78.6497H138.793V73.1987ZM138.551 71.2437C138.551 71.0367 138.624 70.8603 138.77 70.7147C138.923 70.5613 139.103 70.4847 139.31 70.4847C139.517 70.4847 139.693 70.5613 139.839 70.7147C139.992 70.8603 140.069 71.0367 140.069 71.2437C140.069 71.4507 139.992 71.6308 139.839 71.7842C139.693 71.9298 139.517 72.0027 139.31 72.0027C139.103 72.0027 138.923 71.9298 138.77 71.7842C138.624 71.6308 138.551 71.4507 138.551 71.2437ZM144.453 74.0957H142.97V76.5682C142.97 76.7215 142.974 76.8748 142.981 77.0282C142.989 77.1738 143.016 77.308 143.062 77.4307C143.115 77.5457 143.192 77.6415 143.292 77.7182C143.399 77.7872 143.552 77.8217 143.752 77.8217C143.874 77.8217 144.001 77.8102 144.131 77.7872C144.262 77.7642 144.38 77.722 144.488 77.6607V78.6037C144.365 78.6727 144.204 78.7187 144.005 78.7417C143.813 78.7723 143.664 78.7877 143.556 78.7877C143.158 78.7877 142.847 78.734 142.625 78.6267C142.41 78.5117 142.249 78.366 142.142 78.1897C142.042 78.0133 141.981 77.8178 141.958 77.6032C141.942 77.3808 141.935 77.1585 141.935 76.9362V74.0957H140.739V73.1987H141.935V71.6692H142.97V73.1987H144.453V74.0957ZM145.191 73.1987H146.387L148.008 77.4537H148.031L149.572 73.1987H150.688L148.1 79.8227C148.008 80.0603 147.912 80.275 147.813 80.4667C147.713 80.666 147.594 80.8347 147.456 80.9727C147.318 81.1107 147.149 81.218 146.95 81.2947C146.758 81.3713 146.521 81.4097 146.237 81.4097C146.084 81.4097 145.927 81.3982 145.766 81.3752C145.612 81.3598 145.463 81.3215 145.317 81.2602L145.444 80.3172C145.651 80.4015 145.858 80.4437 146.065 80.4437C146.226 80.4437 146.36 80.4207 146.467 80.3747C146.582 80.3363 146.678 80.275 146.755 80.1907C146.839 80.114 146.908 80.022 146.962 79.9147C147.015 79.8073 147.069 79.6847 147.123 79.5467L147.456 78.6842L145.191 73.1987ZM155.176 70.5077H158.04C158.561 70.5077 158.99 70.5805 159.328 70.7262C159.665 70.8642 159.93 71.0443 160.121 71.2667C160.321 71.4813 160.459 71.7267 160.535 72.0027C160.612 72.271 160.65 72.5317 160.65 72.7847C160.65 73.0377 160.612 73.3022 160.535 73.5782C160.459 73.8465 160.321 74.0918 160.121 74.3142C159.93 74.5288 159.665 74.709 159.328 74.8547C158.99 74.9927 158.561 75.0617 158.04 75.0617H156.28V78.6497H155.176V70.5077ZM156.28 74.0957H157.729C157.944 74.0957 158.155 74.0803 158.362 74.0497C158.576 74.0113 158.764 73.9462 158.925 73.8542C159.094 73.7622 159.228 73.6318 159.328 73.4632C159.427 73.2868 159.477 73.0607 159.477 72.7847C159.477 72.5087 159.427 72.2863 159.328 72.1177C159.228 71.9413 159.094 71.8072 158.925 71.7152C158.764 71.6232 158.576 71.5618 158.362 71.5312C158.155 71.4928 157.944 71.4737 157.729 71.4737H156.28V74.0957ZM161.809 73.8657C162.101 73.5973 162.438 73.398 162.821 73.2677C163.205 73.1297 163.588 73.0607 163.971 73.0607C164.37 73.0607 164.711 73.1105 164.995 73.2102C165.286 73.3098 165.524 73.444 165.708 73.6127C165.892 73.7813 166.026 73.9768 166.11 74.1992C166.202 74.4138 166.248 74.64 166.248 74.8777V77.6607C166.248 77.8523 166.252 78.0287 166.26 78.1897C166.267 78.3507 166.279 78.504 166.294 78.6497H165.374C165.351 78.3737 165.34 78.0977 165.34 77.8217H165.317C165.087 78.1743 164.815 78.4235 164.5 78.5692C164.186 78.7148 163.822 78.7877 163.408 78.7877C163.155 78.7877 162.913 78.7532 162.683 78.6842C162.453 78.6152 162.25 78.5117 162.074 78.3737C161.905 78.2357 161.771 78.067 161.671 77.8677C161.572 77.6607 161.522 77.423 161.522 77.1547C161.522 76.802 161.598 76.5068 161.752 76.2692C161.913 76.0315 162.127 75.8398 162.396 75.6942C162.672 75.5408 162.99 75.4335 163.35 75.3722C163.718 75.3032 164.109 75.2687 164.523 75.2687H165.282V75.0387C165.282 74.9007 165.255 74.7627 165.202 74.6247C165.148 74.4867 165.068 74.364 164.96 74.2567C164.853 74.1417 164.719 74.0535 164.558 73.9922C164.397 73.9232 164.205 73.8887 163.983 73.8887C163.783 73.8887 163.607 73.9078 163.454 73.9462C163.308 73.9845 163.174 74.0343 163.051 74.0957C162.929 74.1493 162.817 74.2145 162.718 74.2912C162.618 74.3678 162.522 74.4407 162.43 74.5097L161.809 73.8657ZM164.73 76.0277C164.485 76.0277 164.232 76.043 163.971 76.0737C163.718 76.0967 163.484 76.1465 163.27 76.2232C163.063 76.2998 162.89 76.4072 162.752 76.5452C162.622 76.6832 162.557 76.8595 162.557 77.0742C162.557 77.3885 162.66 77.6147 162.867 77.7527C163.082 77.8907 163.369 77.9597 163.73 77.9597C164.013 77.9597 164.255 77.9137 164.454 77.8217C164.654 77.722 164.815 77.5955 164.937 77.4422C165.06 77.2888 165.148 77.1202 165.202 76.9362C165.255 76.7445 165.282 76.5567 165.282 76.3727V76.0277H164.73ZM167.807 73.1987H168.842V74.0382H168.865C168.934 73.8925 169.026 73.7622 169.141 73.6472C169.256 73.5245 169.383 73.421 169.521 73.3367C169.666 73.2523 169.823 73.1872 169.992 73.1412C170.161 73.0875 170.329 73.0607 170.498 73.0607C170.667 73.0607 170.82 73.0837 170.958 73.1297L170.912 74.2452C170.828 74.2222 170.743 74.203 170.659 74.1877C170.575 74.1723 170.49 74.1647 170.406 74.1647C169.9 74.1647 169.513 74.3065 169.245 74.5902C168.976 74.8738 168.842 75.3147 168.842 75.9127V78.6497H167.807V73.1987ZM175.042 74.0957H173.558V76.5682C173.558 76.7215 173.562 76.8748 173.57 77.0282C173.578 77.1738 173.604 77.308 173.65 77.4307C173.704 77.5457 173.781 77.6415 173.88 77.7182C173.988 77.7872 174.141 77.8217 174.34 77.8217C174.463 77.8217 174.59 77.8102 174.72 77.7872C174.85 77.7642 174.969 77.722 175.076 77.6607V78.6037C174.954 78.6727 174.793 78.7187 174.593 78.7417C174.402 78.7723 174.252 78.7877 174.145 78.7877C173.746 78.7877 173.436 78.734 173.213 78.6267C172.999 78.5117 172.838 78.366 172.73 78.1897C172.631 78.0133 172.569 77.8178 172.546 77.6032C172.531 77.3808 172.523 77.1585 172.523 76.9362V74.0957H171.327V73.1987H172.523V71.6692H173.558V73.1987H175.042V74.0957ZM176.435 73.1987H177.47V74.0382H177.493C177.623 73.7468 177.849 73.513 178.171 73.3367C178.493 73.1527 178.865 73.0607 179.287 73.0607C179.547 73.0607 179.797 73.1028 180.034 73.1872C180.28 73.2638 180.49 73.3865 180.667 73.5552C180.851 73.7238 180.996 73.9423 181.104 74.2107C181.211 74.4713 181.265 74.7818 181.265 75.1422V78.6497H180.23V75.4297C180.23 75.1767 180.195 74.962 180.126 74.7857C180.057 74.6017 179.965 74.456 179.85 74.3487C179.735 74.2337 179.601 74.1532 179.448 74.1072C179.302 74.0535 179.149 74.0267 178.988 74.0267C178.773 74.0267 178.574 74.0612 178.39 74.1302C178.206 74.1992 178.045 74.3103 177.907 74.4637C177.769 74.6093 177.661 74.7972 177.585 75.0272C177.508 75.2572 177.47 75.5293 177.47 75.8437V78.6497H176.435V73.1987ZM183.664 76.3037C183.664 76.5413 183.714 76.7598 183.814 76.9592C183.921 77.1508 184.059 77.3157 184.228 77.4537C184.397 77.5917 184.592 77.699 184.814 77.7757C185.037 77.8523 185.267 77.8907 185.504 77.8907C185.826 77.8907 186.106 77.8178 186.344 77.6722C186.582 77.5188 186.8 77.3195 186.999 77.0742L187.781 77.6722C187.206 78.4158 186.401 78.7877 185.366 78.7877C184.937 78.7877 184.546 78.7148 184.193 78.5692C183.848 78.4235 183.553 78.2242 183.308 77.9712C183.07 77.7105 182.886 77.4077 182.756 77.0627C182.626 76.71 182.56 76.3305 182.56 75.9242C182.56 75.5178 182.629 75.1422 182.767 74.7972C182.913 74.4445 183.109 74.1417 183.354 73.8887C183.607 73.628 183.906 73.4248 184.251 73.2792C184.596 73.1335 184.972 73.0607 185.378 73.0607C185.861 73.0607 186.267 73.145 186.597 73.3137C186.934 73.4823 187.21 73.7047 187.425 73.9807C187.64 74.249 187.793 74.5557 187.885 74.9007C187.985 75.238 188.034 75.583 188.034 75.9357V76.3037H183.664ZM186.93 75.4757C186.923 75.2457 186.884 75.0348 186.815 74.8432C186.754 74.6515 186.658 74.4867 186.528 74.3487C186.398 74.203 186.233 74.0918 186.033 74.0152C185.842 73.9308 185.616 73.8887 185.355 73.8887C185.102 73.8887 184.868 73.9385 184.653 74.0382C184.446 74.1302 184.27 74.2528 184.124 74.4062C183.979 74.5595 183.864 74.732 183.779 74.9237C183.703 75.1077 183.664 75.2917 183.664 75.4757H186.93ZM189.33 73.1987H190.365V74.0382H190.388C190.457 73.8925 190.549 73.7622 190.664 73.6472C190.779 73.5245 190.906 73.421 191.044 73.3367C191.189 73.2523 191.346 73.1872 191.515 73.1412C191.684 73.0875 191.852 73.0607 192.021 73.0607C192.19 73.0607 192.343 73.0837 192.481 73.1297L192.435 74.2452C192.351 74.2222 192.266 74.203 192.182 74.1877C192.098 74.1723 192.013 74.1647 191.929 74.1647C191.423 74.1647 191.036 74.3065 190.768 74.5902C190.499 74.8738 190.365 75.3147 190.365 75.9127V78.6497H189.33V73.1987Z" fill="white"/>
<rect x="23" y="65.6497" width="58" height="18" rx="9" fill="#FFB71B"/>
<path d="M32.092 70.1537H35.08C35.624 70.1537 36.072 70.2297 36.424 70.3817C36.776 70.5257 37.052 70.7137 37.252 70.9457C37.46 71.1697 37.604 71.4257 37.684 71.7137C37.764 71.9937 37.804 72.2657 37.804 72.5297C37.804 72.7937 37.764 73.0697 37.684 73.3577C37.604 73.6377 37.46 73.8937 37.252 74.1257C37.052 74.3497 36.776 74.5377 36.424 74.6897C36.072 74.8337 35.624 74.9057 35.08 74.9057H33.244V78.6497H32.092V70.1537ZM33.244 73.8977H34.756C34.98 73.8977 35.2 73.8817 35.416 73.8497C35.64 73.8097 35.836 73.7417 36.004 73.6457C36.18 73.5497 36.32 73.4137 36.424 73.2377C36.528 73.0537 36.58 72.8177 36.58 72.5297C36.58 72.2417 36.528 72.0097 36.424 71.8337C36.32 71.6497 36.18 71.5097 36.004 71.4137C35.836 71.3177 35.64 71.2537 35.416 71.2217C35.2 71.1817 34.98 71.1617 34.756 71.1617H33.244V73.8977ZM38.9293 72.9617H40.0093V73.8377H40.0333C40.1053 73.6857 40.2013 73.5497 40.3213 73.4297C40.4413 73.3017 40.5733 73.1937 40.7173 73.1057C40.8693 73.0177 41.0333 72.9497 41.2093 72.9017C41.3853 72.8457 41.5613 72.8177 41.7373 72.8177C41.9133 72.8177 42.0733 72.8417 42.2173 72.8897L42.1693 74.0537C42.0813 74.0297 41.9933 74.0097 41.9053 73.9937C41.8173 73.9777 41.7293 73.9697 41.6413 73.9697C41.1133 73.9697 40.7093 74.1177 40.4293 74.4137C40.1493 74.7097 40.0093 75.1697 40.0093 75.7937V78.6497H38.9293V72.9617ZM43.9758 76.2017C43.9758 76.4497 44.0278 76.6777 44.1318 76.8857C44.2438 77.0857 44.3878 77.2577 44.5638 77.4017C44.7398 77.5457 44.9438 77.6577 45.1758 77.7377C45.4078 77.8177 45.6478 77.8577 45.8958 77.8577C46.2318 77.8577 46.5238 77.7817 46.7718 77.6297C47.0198 77.4697 47.2478 77.2617 47.4558 77.0057L48.2718 77.6297C47.6718 78.4057 46.8318 78.7937 45.7518 78.7937C45.3038 78.7937 44.8958 78.7177 44.5278 78.5657C44.1678 78.4137 43.8598 78.2057 43.6038 77.9417C43.3558 77.6697 43.1638 77.3537 43.0278 76.9937C42.8918 76.6257 42.8238 76.2297 42.8238 75.8057C42.8238 75.3817 42.8958 74.9897 43.0398 74.6297C43.1918 74.2617 43.3958 73.9457 43.6518 73.6817C43.9158 73.4097 44.2278 73.1977 44.5878 73.0457C44.9478 72.8937 45.3398 72.8177 45.7638 72.8177C46.2678 72.8177 46.6918 72.9057 47.0358 73.0817C47.3878 73.2577 47.6758 73.4897 47.8998 73.7777C48.1238 74.0577 48.2838 74.3777 48.3798 74.7377C48.4838 75.0897 48.5358 75.4497 48.5358 75.8177V76.2017H43.9758ZM47.3838 75.3377C47.3758 75.0977 47.3358 74.8777 47.2638 74.6777C47.1998 74.4777 47.0998 74.3057 46.9638 74.1617C46.8278 74.0097 46.6558 73.8937 46.4478 73.8137C46.2478 73.7257 46.0118 73.6817 45.7398 73.6817C45.4758 73.6817 45.2318 73.7337 45.0078 73.8377C44.7918 73.9337 44.6078 74.0617 44.4558 74.2217C44.3038 74.3817 44.1838 74.5617 44.0958 74.7617C44.0158 74.9537 43.9758 75.1457 43.9758 75.3377H47.3838ZM49.8277 72.9617H50.8357V73.8497H50.8597C50.8837 73.7697 50.9437 73.6697 51.0397 73.5497C51.1437 73.4297 51.2717 73.3177 51.4237 73.2137C51.5837 73.1017 51.7677 73.0097 51.9757 72.9377C52.1917 72.8577 52.4277 72.8177 52.6837 72.8177C53.1077 72.8177 53.4637 72.9057 53.7517 73.0817C54.0397 73.2577 54.2757 73.5217 54.4597 73.8737C54.6437 73.5217 54.9037 73.2577 55.2397 73.0817C55.5757 72.9057 55.9157 72.8177 56.2597 72.8177C56.6997 72.8177 57.0597 72.8897 57.3397 73.0337C57.6197 73.1777 57.8397 73.3697 57.9997 73.6097C58.1597 73.8417 58.2677 74.1097 58.3237 74.4137C58.3877 74.7097 58.4197 75.0177 58.4197 75.3377V78.6497H57.3397V75.4817C57.3397 75.2657 57.3237 75.0577 57.2917 74.8577C57.2677 74.6577 57.2117 74.4817 57.1237 74.3297C57.0357 74.1777 56.9117 74.0577 56.7517 73.9697C56.5917 73.8737 56.3797 73.8257 56.1157 73.8257C55.5957 73.8257 55.2237 73.9857 54.9997 74.3057C54.7757 74.6257 54.6637 75.0377 54.6637 75.5417V78.6497H53.5837V75.6737C53.5837 75.4017 53.5677 75.1537 53.5357 74.9297C53.5117 74.7057 53.4557 74.5137 53.3677 74.3537C53.2877 74.1857 53.1677 74.0577 53.0077 73.9697C52.8557 73.8737 52.6477 73.8257 52.3837 73.8257C52.1917 73.8257 52.0037 73.8657 51.8197 73.9457C51.6437 74.0177 51.4877 74.1297 51.3517 74.2817C51.2157 74.4337 51.1077 74.6297 51.0277 74.8697C50.9477 75.1017 50.9077 75.3777 50.9077 75.6977V78.6497H49.8277V72.9617ZM60.1305 72.9617H61.2105V78.6497H60.1305V72.9617ZM59.8785 70.9217C59.8785 70.7057 59.9545 70.5217 60.1065 70.3697C60.2665 70.2097 60.4545 70.1297 60.6705 70.1297C60.8865 70.1297 61.0705 70.2097 61.2225 70.3697C61.3825 70.5217 61.4625 70.7057 61.4625 70.9217C61.4625 71.1377 61.3825 71.3257 61.2225 71.4857C61.0705 71.6377 60.8865 71.7137 60.6705 71.7137C60.4545 71.7137 60.2665 71.6377 60.1065 71.4857C59.9545 71.3257 59.8785 71.1377 59.8785 70.9217ZM63.7453 76.2017C63.7453 76.4497 63.7973 76.6777 63.9013 76.8857C64.0133 77.0857 64.1573 77.2577 64.3333 77.4017C64.5093 77.5457 64.7133 77.6577 64.9453 77.7377C65.1773 77.8177 65.4173 77.8577 65.6653 77.8577C66.0013 77.8577 66.2933 77.7817 66.5413 77.6297C66.7893 77.4697 67.0173 77.2617 67.2253 77.0057L68.0413 77.6297C67.4413 78.4057 66.6013 78.7937 65.5213 78.7937C65.0733 78.7937 64.6653 78.7177 64.2973 78.5657C63.9373 78.4137 63.6293 78.2057 63.3733 77.9417C63.1253 77.6697 62.9333 77.3537 62.7973 76.9937C62.6613 76.6257 62.5933 76.2297 62.5933 75.8057C62.5933 75.3817 62.6653 74.9897 62.8093 74.6297C62.9613 74.2617 63.1653 73.9457 63.4213 73.6817C63.6853 73.4097 63.9973 73.1977 64.3573 73.0457C64.7173 72.8937 65.1093 72.8177 65.5333 72.8177C66.0373 72.8177 66.4613 72.9057 66.8053 73.0817C67.1573 73.2577 67.4453 73.4897 67.6693 73.7777C67.8933 74.0577 68.0533 74.3777 68.1493 74.7377C68.2533 75.0897 68.3053 75.4497 68.3053 75.8177V76.2017H63.7453ZM67.1533 75.3377C67.1453 75.0977 67.1053 74.8777 67.0333 74.6777C66.9693 74.4777 66.8693 74.3057 66.7333 74.1617C66.5973 74.0097 66.4253 73.8937 66.2173 73.8137C66.0173 73.7257 65.7813 73.6817 65.5093 73.6817C65.2453 73.6817 65.0013 73.7337 64.7773 73.8377C64.5613 73.9337 64.3773 74.0617 64.2253 74.2217C64.0733 74.3817 63.9533 74.5617 63.8653 74.7617C63.7853 74.9537 63.7453 75.1457 63.7453 75.3377H67.1533ZM69.5973 72.9617H70.6773V73.8377H70.7013C70.7733 73.6857 70.8693 73.5497 70.9893 73.4297C71.1093 73.3017 71.2413 73.1937 71.3853 73.1057C71.5373 73.0177 71.7013 72.9497 71.8773 72.9017C72.0533 72.8457 72.2293 72.8177 72.4053 72.8177C72.5813 72.8177 72.7413 72.8417 72.8853 72.8897L72.8373 74.0537C72.7493 74.0297 72.6613 74.0097 72.5733 73.9937C72.4853 73.9777 72.3973 73.9697 72.3092 73.9697C71.7813 73.9697 71.3773 74.1177 71.0973 74.4137C70.8173 74.7097 70.6773 75.1697 70.6773 75.7937V78.6497H69.5973V72.9617Z" fill="#003B94"/>
<path d="M32.092 70.1537V70.1287H32.067V70.1537H32.092ZM36.424 70.3817L36.4141 70.4046L36.4145 70.4048L36.424 70.3817ZM37.252 70.9457L37.2331 70.962L37.2337 70.9627L37.252 70.9457ZM37.684 71.7137L37.6599 71.7203L37.66 71.7205L37.684 71.7137ZM37.684 73.3577L37.708 73.3645L37.7081 73.3643L37.684 73.3577ZM37.252 74.1257L37.2334 74.109L37.2334 74.109L37.252 74.1257ZM36.424 74.6897L36.4335 74.7128L36.4339 74.7126L36.424 74.6897ZM33.244 74.9057V74.8807H33.219V74.9057H33.244ZM33.244 78.6497V78.6747H33.269V78.6497H33.244ZM32.092 78.6497H32.067V78.6747H32.092V78.6497ZM33.244 73.8977H33.219V73.9227H33.244V73.8977ZM35.416 73.8497L35.4197 73.8744L35.4204 73.8743L35.416 73.8497ZM36.004 73.6457L35.992 73.6237L35.9916 73.624L36.004 73.6457ZM36.424 73.2377L36.4455 73.2504L36.4458 73.25L36.424 73.2377ZM36.424 71.8337L36.4022 71.846L36.4025 71.8464L36.424 71.8337ZM36.004 71.4137L35.9916 71.4354L35.992 71.4356L36.004 71.4137ZM35.416 71.2217L35.4114 71.2463L35.4125 71.2464L35.416 71.2217ZM33.244 71.1617V71.1367H33.219V71.1617H33.244ZM32.092 70.1787H35.08V70.1287H32.092V70.1787ZM35.08 70.1787C35.6219 70.1787 36.0662 70.2544 36.4141 70.4046L36.4339 70.3587C36.0778 70.2049 35.6261 70.1287 35.08 70.1287V70.1787ZM36.4145 70.4048C36.7637 70.5477 37.0362 70.7336 37.2331 70.962L37.2709 70.9293C37.0678 70.6937 36.7883 70.5037 36.4335 70.3585L36.4145 70.4048ZM37.2337 70.9627C37.439 71.1838 37.581 71.4363 37.6599 71.7203L37.7081 71.707C37.627 71.415 37.481 71.1555 37.2703 70.9286L37.2337 70.9627ZM37.66 71.7205C37.7394 71.9985 37.779 72.2682 37.779 72.5297H37.829C37.829 72.2631 37.7886 71.9888 37.708 71.7068L37.66 71.7205ZM37.779 72.5297C37.779 72.7911 37.7394 73.0649 37.6599 73.351L37.7081 73.3643C37.7886 73.0745 37.829 72.7962 37.829 72.5297H37.779ZM37.66 73.3508C37.5811 73.6269 37.439 73.8796 37.2334 74.109L37.2706 74.1423C37.481 73.9077 37.6269 73.6484 37.708 73.3645L37.66 73.3508ZM37.2334 74.109C37.0363 74.3297 36.7636 74.5158 36.4141 74.6667L36.4339 74.7126C36.7884 74.5596 37.0677 74.3697 37.2706 74.1423L37.2334 74.109ZM36.4145 74.6665C36.0665 74.8089 35.622 74.8807 35.08 74.8807V74.9307C35.626 74.9307 36.0775 74.8584 36.4335 74.7128L36.4145 74.6665ZM35.08 74.8807H33.244V74.9307H35.08V74.8807ZM33.219 74.9057V78.6497H33.269V74.9057H33.219ZM33.244 78.6247H32.092V78.6747H33.244V78.6247ZM32.117 78.6497V70.1537H32.067V78.6497H32.117ZM33.244 73.9227H34.756V73.8727H33.244V73.9227ZM34.756 73.9227C34.9812 73.9227 35.2024 73.9066 35.4197 73.8744L35.4123 73.8249C35.1976 73.8567 34.9788 73.8727 34.756 73.8727V73.9227ZM35.4204 73.8743C35.6467 73.8339 35.8455 73.765 36.0164 73.6674L35.9916 73.624C35.8265 73.7183 35.6333 73.7855 35.4116 73.825L35.4204 73.8743ZM36.016 73.6676C36.196 73.5694 36.3393 73.4302 36.4455 73.2504L36.4025 73.2249C36.3007 73.3971 36.164 73.5299 35.992 73.6237L36.016 73.6676ZM36.4458 73.25C36.5525 73.0611 36.605 72.8205 36.605 72.5297H36.555C36.555 72.8148 36.5035 73.0462 36.4022 73.2254L36.4458 73.25ZM36.605 72.5297C36.605 72.2389 36.5525 72.0021 36.4455 71.8209L36.4025 71.8464C36.5035 72.0173 36.555 72.2444 36.555 72.5297H36.605ZM36.4458 71.8214C36.3396 71.6335 36.1963 71.4901 36.016 71.3917L35.992 71.4356C36.1637 71.5292 36.3004 71.6658 36.4022 71.846L36.4458 71.8214ZM36.0164 71.392C35.8452 71.2941 35.6461 71.2293 35.4195 71.1969L35.4125 71.2464C35.6339 71.278 35.8268 71.3412 35.9916 71.4354L36.0164 71.392ZM35.4206 71.1971C35.203 71.1568 34.9815 71.1367 34.756 71.1367V71.1867C34.9785 71.1867 35.197 71.2065 35.4114 71.2462L35.4206 71.1971ZM34.756 71.1367H33.244V71.1867H34.756V71.1367ZM33.219 71.1617V73.8977H33.269V71.1617H33.219ZM38.9293 72.9617V72.9367H38.9043V72.9617H38.9293ZM40.0093 72.9617H40.0343V72.9367H40.0093V72.9617ZM40.0093 73.8377H39.9843V73.8627H40.0093V73.8377ZM40.0333 73.8377V73.8627H40.0491L40.0559 73.8484L40.0333 73.8377ZM40.3213 73.4297L40.339 73.4473L40.3395 73.4468L40.3213 73.4297ZM40.7173 73.1057L40.7048 73.084L40.7042 73.0843L40.7173 73.1057ZM41.2093 72.9017L41.2159 72.9258L41.2169 72.9255L41.2093 72.9017ZM42.2173 72.8897L42.2423 72.8907L42.243 72.8719L42.2252 72.8659L42.2173 72.8897ZM42.1693 74.0537L42.1627 74.0778L42.193 74.086L42.1943 74.0547L42.1693 74.0537ZM40.4293 74.4137L40.4111 74.3965L40.4111 74.3965L40.4293 74.4137ZM40.0093 78.6497V78.6747H40.0343V78.6497H40.0093ZM38.9293 78.6497H38.9043V78.6747H38.9293V78.6497ZM38.9293 72.9867H40.0093V72.9367H38.9293V72.9867ZM39.9843 72.9617V73.8377H40.0343V72.9617H39.9843ZM40.0093 73.8627H40.0333V73.8127H40.0093V73.8627ZM40.0559 73.8484C40.1266 73.699 40.221 73.5653 40.339 73.4473L40.3036 73.412C40.1816 73.534 40.0839 73.6723 40.0107 73.827L40.0559 73.8484ZM40.3395 73.4468C40.458 73.3203 40.5883 73.2138 40.7303 73.127L40.7042 73.0843C40.5583 73.1735 40.4245 73.283 40.303 73.4126L40.3395 73.4468ZM40.7298 73.1273C40.8799 73.0404 41.0419 72.9732 41.2159 72.9258L41.2027 72.8775C41.0247 72.9261 40.8587 72.9949 40.7048 73.084L40.7298 73.1273ZM41.2169 72.9255C41.3905 72.8702 41.564 72.8427 41.7373 72.8427V72.7927C41.5586 72.7927 41.38 72.8211 41.2017 72.8778L41.2169 72.9255ZM41.7373 72.8427C41.911 72.8427 42.0683 72.8663 42.2094 72.9134L42.2252 72.8659C42.0783 72.817 41.9155 72.7927 41.7373 72.7927V72.8427ZM42.1923 72.8886L42.1443 74.0526L42.1943 74.0547L42.2423 72.8907L42.1923 72.8886ZM42.1759 74.0295C42.0872 74.0054 41.9985 73.9852 41.9098 73.9691L41.9008 74.0183C41.9881 74.0341 42.0754 74.054 42.1627 74.0778L42.1759 74.0295ZM41.9098 73.9691C41.8203 73.9528 41.7308 73.9447 41.6413 73.9447V73.9947C41.7278 73.9947 41.8143 74.0025 41.9008 74.0183L41.9098 73.9691ZM41.6413 73.9447C41.1086 73.9447 40.6971 74.0941 40.4111 74.3965L40.4474 74.4308C40.7214 74.1412 41.118 73.9947 41.6413 73.9947V73.9447ZM40.4111 74.3965C40.1249 74.6991 39.9843 75.1666 39.9843 75.7937H40.0343C40.0343 75.1727 40.1737 74.7203 40.4474 74.4308L40.4111 74.3965ZM39.9843 75.7937V78.6497H40.0343V75.7937H39.9843ZM40.0093 78.6247H38.9293V78.6747H40.0093V78.6247ZM38.9543 78.6497V72.9617H38.9043V78.6497H38.9543ZM43.9758 76.2017V76.1767H43.9508V76.2017H43.9758ZM44.1318 76.8857L44.1094 76.8969L44.1099 76.8979L44.1318 76.8857ZM44.5638 77.4017L44.5479 77.421L44.5479 77.421L44.5638 77.4017ZM45.1758 77.7377L45.1839 77.714L45.1839 77.714L45.1758 77.7377ZM46.7718 77.6297L46.7848 77.651L46.7853 77.6507L46.7718 77.6297ZM47.4558 77.0057L47.4709 76.9858L47.4517 76.9711L47.4363 76.9899L47.4558 77.0057ZM48.2718 77.6297L48.2915 77.645L48.3069 77.6251L48.2869 77.6098L48.2718 77.6297ZM44.5278 78.5657L44.518 78.5887L44.5182 78.5888L44.5278 78.5657ZM43.6038 77.9417L43.5853 77.9585L43.5858 77.9591L43.6038 77.9417ZM43.0278 76.9937L43.0043 77.0023L43.0044 77.0025L43.0278 76.9937ZM43.0398 74.6297L43.0166 74.6201L43.0165 74.6204L43.0398 74.6297ZM43.6518 73.6817L43.6338 73.6642L43.6338 73.6643L43.6518 73.6817ZM44.5878 73.0457L44.5975 73.0687L44.5975 73.0687L44.5878 73.0457ZM47.0358 73.0817L47.0244 73.1039L47.0246 73.104L47.0358 73.0817ZM47.8998 73.7777L47.88 73.793L47.8802 73.7933L47.8998 73.7777ZM48.3798 74.7377L48.3556 74.7441L48.3558 74.7447L48.3798 74.7377ZM48.5358 76.2017V76.2267H48.5608V76.2017H48.5358ZM47.3838 75.3377V75.3627H47.4096L47.4087 75.3368L47.3838 75.3377ZM47.2638 74.6777L47.2399 74.6853L47.2402 74.6861L47.2638 74.6777ZM46.9638 74.1617L46.9451 74.1783L46.9456 74.1788L46.9638 74.1617ZM46.4478 73.8137L46.4377 73.8366L46.4388 73.837L46.4478 73.8137ZM45.0078 73.8377L45.0179 73.8605L45.0183 73.8603L45.0078 73.8377ZM44.4558 74.2217L44.4739 74.2389L44.4739 74.2389L44.4558 74.2217ZM44.0958 74.7617L44.0729 74.7516L44.0727 74.752L44.0958 74.7617ZM43.9758 75.3377H43.9508V75.3627H43.9758V75.3377ZM43.9508 76.2017C43.9508 76.4533 44.0035 76.6851 44.1094 76.8968L44.1541 76.8745C44.052 76.6702 44.0008 76.446 44.0008 76.2017H43.9508ZM44.1099 76.8979C44.2235 77.1006 44.3695 77.275 44.5479 77.421L44.5796 77.3823C44.406 77.2403 44.264 77.0707 44.1536 76.8734L44.1099 76.8979ZM44.5479 77.421C44.7264 77.567 44.933 77.6804 45.1676 77.7613L45.1839 77.714C44.9545 77.6349 44.7531 77.5243 44.5796 77.3823L44.5479 77.421ZM45.1676 77.7613C45.4023 77.8422 45.645 77.8827 45.8958 77.8827V77.8327C45.6505 77.8327 45.4132 77.7931 45.1839 77.714L45.1676 77.7613ZM45.8958 77.8827C46.2356 77.8827 46.5323 77.8057 46.7848 77.651L46.7587 77.6083C46.5152 77.7576 46.2279 77.8327 45.8958 77.8327V77.8827ZM46.7853 77.6507C47.0358 77.4891 47.2657 77.2792 47.4752 77.0214L47.4363 76.9899C47.2298 77.2441 47.0037 77.4502 46.7582 77.6087L46.7853 77.6507ZM47.4406 77.0255L48.2566 77.6495L48.2869 77.6098L47.4709 76.9858L47.4406 77.0255ZM48.252 77.6144C47.6572 78.3836 46.8249 78.7687 45.7518 78.7687V78.8187C46.8386 78.8187 47.6863 78.4277 48.2915 77.645L48.252 77.6144ZM45.7518 78.7687C45.3066 78.7687 44.9019 78.6932 44.5373 78.5426L44.5182 78.5888C44.8896 78.7422 45.3009 78.8187 45.7518 78.8187V78.7687ZM44.5375 78.5426C44.1804 78.3918 43.8752 78.1857 43.6217 77.9243L43.5858 77.9591C43.8443 78.2256 44.1551 78.4355 44.518 78.5887L44.5375 78.5426ZM43.6222 77.9248C43.3764 77.6553 43.1861 77.342 43.0511 76.9848L43.0044 77.0025C43.1414 77.3653 43.3351 77.6841 43.5853 77.9585L43.6222 77.9248ZM43.0512 76.985C42.9163 76.62 42.8488 76.2269 42.8488 75.8057H42.7988C42.7988 76.2324 42.8672 76.6313 43.0043 77.0023L43.0512 76.985ZM42.8488 75.8057C42.8488 75.3845 42.9202 74.9957 43.063 74.6389L43.0165 74.6204C42.8713 74.9836 42.7988 75.3788 42.7988 75.8057H42.8488ZM43.0629 74.6392C43.2137 74.2739 43.4161 73.9606 43.6697 73.6991L43.6338 73.6643C43.3754 73.9307 43.1698 74.2494 43.0166 74.6201L43.0629 74.6392ZM43.6697 73.6991C43.9313 73.4295 44.2405 73.2194 44.5975 73.0687L44.578 73.0226C44.215 73.1759 43.9002 73.3898 43.6338 73.6642L43.6697 73.6991ZM44.5975 73.0687C44.9541 72.9181 45.3428 72.8427 45.7638 72.8427V72.7927C45.3367 72.7927 44.9414 72.8692 44.578 73.0226L44.5975 73.0687ZM45.7638 72.8427C46.265 72.8427 46.6848 72.9302 47.0244 73.1039L47.0471 73.0594C46.6987 72.8811 46.2705 72.7927 45.7638 72.7927V72.8427ZM47.0246 73.104C47.3735 73.2785 47.6585 73.5082 47.88 73.793L47.9195 73.7623C47.693 73.4711 47.402 73.2368 47.0469 73.0593L47.0246 73.104ZM47.8802 73.7933C48.102 74.0705 48.2605 74.3873 48.3556 74.7441L48.4039 74.7312C48.307 74.368 48.1455 74.0449 47.9193 73.762L47.8802 73.7933ZM48.3558 74.7447C48.4591 75.0944 48.5108 75.452 48.5108 75.8177H48.5608C48.5608 75.4473 48.5084 75.0849 48.4037 74.7306L48.3558 74.7447ZM48.5108 75.8177V76.2017H48.5608V75.8177H48.5108ZM48.5358 76.1767H43.9758V76.2267H48.5358V76.1767ZM47.4087 75.3368C47.4007 75.0946 47.3603 74.8719 47.2873 74.6692L47.2402 74.6861C47.3112 74.8834 47.3508 75.1008 47.3588 75.3385L47.4087 75.3368ZM47.2876 74.67C47.2225 74.4667 47.1206 74.2914 46.9819 74.1445L46.9456 74.1788C47.0789 74.3199 47.177 74.4886 47.2399 74.6853L47.2876 74.67ZM46.9824 74.145C46.8435 73.9898 46.6681 73.8716 46.4567 73.7903L46.4388 73.837C46.6434 73.9157 46.812 74.0296 46.9451 74.1783L46.9824 74.145ZM46.4578 73.7908C46.254 73.7011 46.0144 73.6567 45.7398 73.6567V73.7067C46.0091 73.7067 46.2415 73.7502 46.4377 73.8365L46.4578 73.7908ZM45.7398 73.6567C45.4724 73.6567 45.2247 73.7093 44.9972 73.815L45.0183 73.8603C45.2388 73.758 45.4791 73.7067 45.7398 73.7067V73.6567ZM44.9976 73.8148C44.7788 73.9121 44.592 74.0419 44.4376 74.2044L44.4739 74.2389C44.6235 74.0814 44.8047 73.9553 45.0179 73.8605L44.9976 73.8148ZM44.4376 74.2044C44.2837 74.3665 44.162 74.5489 44.0729 74.7516L44.1186 74.7717C44.2055 74.5744 44.3238 74.3968 44.4739 74.2389L44.4376 74.2044ZM44.0727 74.752C43.9915 74.9468 43.9508 75.1421 43.9508 75.3377H44.0008C44.0008 75.1492 44.04 74.9605 44.1188 74.7713L44.0727 74.752ZM43.9758 75.3627H47.3838V75.3127H43.9758V75.3627ZM49.8277 72.9617V72.9367H49.8027V72.9617H49.8277ZM50.8357 72.9617H50.8607V72.9367H50.8357V72.9617ZM50.8357 73.8497H50.8107V73.8747H50.8357V73.8497ZM50.8597 73.8497V73.8747H50.8783L50.8837 73.8568L50.8597 73.8497ZM51.0397 73.5497L51.0208 73.5333L51.0202 73.534L51.0397 73.5497ZM51.4237 73.2137L51.4378 73.2343L51.4381 73.2341L51.4237 73.2137ZM51.9757 72.9377L51.9839 72.9613L51.9844 72.9611L51.9757 72.9377ZM53.7517 73.0817L53.7387 73.103L53.7387 73.103L53.7517 73.0817ZM54.4597 73.8737L54.4376 73.8852L54.4597 73.9276L54.4819 73.8852L54.4597 73.8737ZM55.2397 73.0817L55.2513 73.1038L55.2513 73.1038L55.2397 73.0817ZM57.3397 73.0337L57.3283 73.0559L57.3283 73.0559L57.3397 73.0337ZM57.9997 73.6097L57.9789 73.6235L57.9791 73.6239L57.9997 73.6097ZM58.3237 74.4137L58.2991 74.4182L58.2993 74.4189L58.3237 74.4137ZM58.4197 78.6497V78.6747H58.4447V78.6497H58.4197ZM57.3397 78.6497H57.3147V78.6747H57.3397V78.6497ZM57.2917 74.8577L57.2669 74.8606L57.267 74.8616L57.2917 74.8577ZM57.1237 74.3297L57.1454 74.3171L57.1454 74.3171L57.1237 74.3297ZM56.7517 73.9697L56.7388 73.9911L56.7397 73.9916L56.7517 73.9697ZM54.6637 78.6497V78.6747H54.6887V78.6497H54.6637ZM53.5837 78.6497H53.5587V78.6747H53.5837V78.6497ZM53.5357 74.9297L53.5108 74.9323L53.511 74.9332L53.5357 74.9297ZM53.3677 74.3537L53.3451 74.3644L53.3458 74.3657L53.3677 74.3537ZM53.0077 73.9697L52.9943 73.9908L52.9957 73.9916L53.0077 73.9697ZM51.8197 73.9457L51.8292 73.9688L51.8297 73.9686L51.8197 73.9457ZM51.0277 74.8697L51.0514 74.8778L51.0514 74.8776L51.0277 74.8697ZM50.9077 78.6497V78.6747H50.9327V78.6497H50.9077ZM49.8277 78.6497H49.8027V78.6747H49.8277V78.6497ZM49.8277 72.9867H50.8357V72.9367H49.8277V72.9867ZM50.8107 72.9617V73.8497H50.8607V72.9617H50.8107ZM50.8357 73.8747H50.8597V73.8247H50.8357V73.8747ZM50.8837 73.8568C50.9063 73.7815 50.9638 73.6845 51.0592 73.5653L51.0202 73.534C50.9236 73.6548 50.8612 73.7578 50.8358 73.8425L50.8837 73.8568ZM51.0586 73.566C51.161 73.4479 51.2873 73.3373 51.4378 73.2343L51.4096 73.193C51.2561 73.298 51.1264 73.4114 51.0208 73.5333L51.0586 73.566ZM51.4381 73.2341C51.5959 73.1236 51.7778 73.0326 51.9839 72.9613L51.9675 72.914C51.7576 72.9867 51.5715 73.0797 51.4094 73.1932L51.4381 73.2341ZM51.9844 72.9611C52.1973 72.8822 52.4304 72.8427 52.6837 72.8427V72.7927C52.4251 72.7927 52.1861 72.8331 51.967 72.9142L51.9844 72.9611ZM52.6837 72.8427C53.1043 72.8427 53.4555 72.9299 53.7387 73.103L53.7648 73.0603C53.4719 72.8814 53.1112 72.7927 52.6837 72.7927V72.8427ZM53.7387 73.103C54.0222 73.2762 54.2553 73.5365 54.4376 73.8852L54.4819 73.8621C54.2962 73.5068 54.0573 73.2391 53.7648 73.0603L53.7387 73.103ZM54.4819 73.8852C54.6636 73.5375 54.9201 73.2773 55.2513 73.1038L55.2281 73.0595C54.8874 73.238 54.6238 73.5058 54.4376 73.8621L54.4819 73.8852ZM55.2513 73.1038C55.5841 72.9295 55.9202 72.8427 56.2597 72.8427V72.7927C55.9113 72.7927 55.5673 72.8818 55.2281 73.0595L55.2513 73.1038ZM56.2597 72.8427C56.6972 72.8427 57.0529 72.9143 57.3283 73.0559L57.3512 73.0114C57.0665 72.865 56.7022 72.7927 56.2597 72.7927V72.8427ZM57.3283 73.0559C57.6049 73.1981 57.8215 73.3874 57.9789 73.6235L58.0205 73.5958C57.8579 73.3519 57.6346 73.1572 57.3512 73.0114L57.3283 73.0559ZM57.9791 73.6239C58.137 73.8527 58.2437 74.1173 58.2991 74.4182L58.3483 74.4091C58.2917 74.102 58.1825 73.8306 58.0203 73.5955L57.9791 73.6239ZM58.2993 74.4189C58.3629 74.7131 58.3947 75.0193 58.3947 75.3377H58.4447C58.4447 75.016 58.4126 74.7062 58.3482 74.4084L58.2993 74.4189ZM58.3947 75.3377V78.6497H58.4447V75.3377H58.3947ZM58.4197 78.6247H57.3397V78.6747H58.4197V78.6247ZM57.3647 78.6497V75.4817H57.3147V78.6497H57.3647ZM57.3647 75.4817C57.3647 75.2644 57.3486 75.0551 57.3164 74.8537L57.267 74.8616C57.2988 75.0602 57.3147 75.2669 57.3147 75.4817H57.3647ZM57.3165 74.8547C57.2922 74.6518 57.2353 74.4725 57.1454 74.3171L57.1021 74.3422C57.1882 74.4909 57.2432 74.6635 57.2669 74.8606L57.3165 74.8547ZM57.1454 74.3171C57.055 74.161 56.9276 74.0379 56.7638 73.9478L56.7397 73.9916C56.8958 74.0775 57.0165 74.1943 57.1021 74.3422L57.1454 74.3171ZM56.7646 73.9482C56.5994 73.8491 56.3825 73.8007 56.1157 73.8007V73.8507C56.377 73.8507 56.584 73.8982 56.7389 73.9911L56.7646 73.9482ZM56.1157 73.8007C55.5905 73.8007 55.2094 73.9625 54.9792 74.2913L55.0202 74.32C55.238 74.0088 55.6009 73.8507 56.1157 73.8507V73.8007ZM54.9792 74.2913C54.7515 74.6166 54.6387 75.034 54.6387 75.5417H54.6887C54.6887 75.0413 54.7999 74.6347 55.0202 74.32L54.9792 74.2913ZM54.6387 75.5417V78.6497H54.6887V75.5417H54.6387ZM54.6637 78.6247H53.5837V78.6747H54.6637V78.6247ZM53.6087 78.6497V75.6737H53.5587V78.6497H53.6087ZM53.6087 75.6737C53.6087 75.4007 53.5927 75.1515 53.5605 74.9261L53.511 74.9332C53.5428 75.1558 53.5587 75.4026 53.5587 75.6737H53.6087ZM53.5606 74.927C53.5363 74.7004 53.4795 74.5051 53.3896 74.3416L53.3458 74.3657C53.4319 74.5222 53.4871 74.7109 53.5109 74.9323L53.5606 74.927ZM53.3903 74.3429C53.3081 74.1703 53.1844 74.0383 53.0198 73.9478L52.9957 73.9916C53.151 74.077 53.2674 74.201 53.3451 74.3644L53.3903 74.3429ZM53.0211 73.9485C52.8636 73.8491 52.6504 73.8007 52.3837 73.8007V73.8507C52.6451 73.8507 52.8478 73.8982 52.9944 73.9908L53.0211 73.9485ZM52.3837 73.8007C52.1881 73.8007 51.9968 73.8414 51.8098 73.9227L51.8297 73.9686C52.0107 73.8899 52.1953 73.8507 52.3837 73.8507V73.8007ZM51.8103 73.9225C51.6305 73.9961 51.4714 74.1104 51.3331 74.265L51.3703 74.2983C51.504 74.1489 51.6569 74.0393 51.8292 73.9688L51.8103 73.9225ZM51.3331 74.265C51.1943 74.4201 51.0848 74.6193 51.004 74.8618L51.0514 74.8776C51.1306 74.64 51.2371 74.4473 51.3703 74.2983L51.3331 74.265ZM51.0041 74.8615C50.923 75.0968 50.8827 75.3757 50.8827 75.6977H50.9327C50.9327 75.3796 50.9725 75.1065 51.0514 74.8778L51.0041 74.8615ZM50.8827 75.6977V78.6497H50.9327V75.6977H50.8827ZM50.9077 78.6247H49.8277V78.6747H50.9077V78.6247ZM49.8527 78.6497V72.9617H49.8027V78.6497H49.8527ZM60.1305 72.9617V72.9367H60.1055V72.9617H60.1305ZM61.2105 72.9617H61.2355V72.9367H61.2105V72.9617ZM61.2105 78.6497V78.6747H61.2355V78.6497H61.2105ZM60.1305 78.6497H60.1055V78.6747H60.1305V78.6497ZM60.1065 70.3697L60.0888 70.352L60.0888 70.352L60.1065 70.3697ZM61.2225 70.3697L61.2043 70.3869L61.2053 70.3878L61.2225 70.3697ZM61.2225 71.4857L61.2401 71.5033L61.2401 71.5033L61.2225 71.4857ZM60.1065 71.4857L60.0883 71.5029L60.0893 71.5038L60.1065 71.4857ZM60.1305 72.9867H61.2105V72.9367H60.1305V72.9867ZM61.1855 72.9617V78.6497H61.2355V72.9617H61.1855ZM61.2105 78.6247H60.1305V78.6747H61.2105V78.6247ZM60.1555 78.6497V72.9617H60.1055V78.6497H60.1555ZM59.9035 70.9217C59.9035 70.7123 59.9769 70.5346 60.1241 70.3873L60.0888 70.352C59.9321 70.5087 59.8535 70.6991 59.8535 70.9217H59.9035ZM60.1241 70.3873C60.2797 70.2318 60.4614 70.1547 60.6705 70.1547V70.1047C60.4475 70.1047 60.2532 70.1875 60.0888 70.352L60.1241 70.3873ZM60.6705 70.1547C60.8794 70.1547 61.0569 70.2317 61.2043 70.3869L61.2406 70.3524C61.084 70.1876 60.8935 70.1047 60.6705 70.1047V70.1547ZM61.2053 70.3878C61.3604 70.5352 61.4375 70.7127 61.4375 70.9217H61.4875C61.4875 70.6986 61.4045 70.5081 61.2397 70.3515L61.2053 70.3878ZM61.4375 70.9217C61.4375 71.1307 61.3604 71.3124 61.2048 71.468L61.2401 71.5033C61.4046 71.3389 61.4875 71.1446 61.4875 70.9217H61.4375ZM61.2048 71.468C61.0575 71.6153 60.8799 71.6887 60.6705 71.6887V71.7387C60.8931 71.7387 61.0834 71.66 61.2401 71.5033L61.2048 71.468ZM60.6705 71.6887C60.461 71.6887 60.2792 71.6152 60.1237 71.4675L60.0893 71.5038C60.2538 71.6601 60.4479 71.7387 60.6705 71.7387V71.6887ZM60.1246 71.4684C59.9769 71.313 59.9035 71.1311 59.9035 70.9217H59.8535C59.8535 71.1442 59.932 71.3383 60.0883 71.5029L60.1246 71.4684ZM63.7453 76.2017V76.1767H63.7203V76.2017H63.7453ZM63.9013 76.8857L63.8789 76.8969L63.8795 76.8979L63.9013 76.8857ZM64.3333 77.4017L64.3175 77.421L64.3175 77.421L64.3333 77.4017ZM64.9453 77.7377L64.9534 77.714L64.9534 77.714L64.9453 77.7377ZM66.5413 77.6297L66.5543 77.651L66.5548 77.6507L66.5413 77.6297ZM67.2253 77.0057L67.2405 76.9858L67.2212 76.9711L67.2059 76.9899L67.2253 77.0057ZM68.0413 77.6297L68.0611 77.645L68.0764 77.6251L68.0565 77.6098L68.0413 77.6297ZM64.2973 78.5657L64.2876 78.5887L64.2877 78.5888L64.2973 78.5657ZM63.3733 77.9417L63.3548 77.9585L63.3553 77.9591L63.3733 77.9417ZM62.7973 76.9937L62.7738 77.0023L62.7739 77.0025L62.7973 76.9937ZM62.8093 74.6297L62.7862 74.6201L62.7861 74.6204L62.8093 74.6297ZM63.4213 73.6817L63.4033 73.6642L63.4033 73.6643L63.4213 73.6817ZM64.3573 73.0457L64.367 73.0687L64.367 73.0687L64.3573 73.0457ZM66.8053 73.0817L66.7939 73.1039L66.7941 73.104L66.8053 73.0817ZM67.6693 73.7777L67.6495 73.793L67.6498 73.7933L67.6693 73.7777ZM68.1493 74.7377L68.1251 74.7441L68.1253 74.7447L68.1493 74.7377ZM68.3053 76.2017V76.2267H68.3303V76.2017H68.3053ZM67.1533 75.3377V75.3627H67.1791L67.1783 75.3368L67.1533 75.3377ZM67.0333 74.6777L67.0095 74.6853L67.0098 74.6861L67.0333 74.6777ZM66.7333 74.1617L66.7146 74.1783L66.7151 74.1788L66.7333 74.1617ZM66.2173 73.8137L66.2072 73.8366L66.2083 73.837L66.2173 73.8137ZM64.7773 73.8377L64.7874 73.8605L64.7878 73.8603L64.7773 73.8377ZM64.2253 74.2217L64.2434 74.2389L64.2434 74.2389L64.2253 74.2217ZM63.8653 74.7617L63.8424 74.7516L63.8422 74.752L63.8653 74.7617ZM63.7453 75.3377H63.7203V75.3627H63.7453V75.3377ZM63.7203 76.2017C63.7203 76.4533 63.7731 76.6851 63.8789 76.8968L63.9236 76.8745C63.8215 76.6702 63.7703 76.446 63.7703 76.2017H63.7203ZM63.8795 76.8979C63.993 77.1006 64.139 77.275 64.3175 77.421L64.3491 77.3823C64.1756 77.2403 64.0336 77.0707 63.9231 76.8734L63.8795 76.8979ZM64.3175 77.421C64.4959 77.567 64.7026 77.6804 64.9371 77.7613L64.9534 77.714C64.724 77.6349 64.5227 77.5243 64.3491 77.3823L64.3175 77.421ZM64.9371 77.7613C65.1718 77.8422 65.4145 77.8827 65.6653 77.8827V77.8327C65.42 77.8327 65.1828 77.7931 64.9534 77.714L64.9371 77.7613ZM65.6653 77.8827C66.0052 77.8827 66.3018 77.8057 66.5543 77.651L66.5282 77.6083C66.2847 77.7576 65.9974 77.8327 65.6653 77.8327V77.8827ZM66.5548 77.6507C66.8053 77.4891 67.0352 77.2792 67.2447 77.0214L67.2059 76.9899C66.9993 77.2441 66.7733 77.4502 66.5277 77.6087L66.5548 77.6507ZM67.2101 77.0255L68.0261 77.6495L68.0565 77.6098L67.2405 76.9858L67.2101 77.0255ZM68.0215 77.6144C67.4268 78.3836 66.5944 78.7687 65.5213 78.7687V78.8187C66.6081 78.8187 67.4558 78.4277 68.0611 77.645L68.0215 77.6144ZM65.5213 78.7687C65.0761 78.7687 64.6714 78.6932 64.3068 78.5426L64.2877 78.5888C64.6591 78.7422 65.0704 78.8187 65.5213 78.8187V78.7687ZM64.307 78.5426C63.9499 78.3918 63.6447 78.1857 63.3912 77.9243L63.3553 77.9591C63.6138 78.2256 63.9247 78.4355 64.2876 78.5887L64.307 78.5426ZM63.3918 77.9248C63.146 77.6553 62.9556 77.342 62.8207 76.9848L62.7739 77.0025C62.911 77.3653 63.1046 77.6841 63.3548 77.9585L63.3918 77.9248ZM62.8207 76.985C62.6858 76.62 62.6183 76.2269 62.6183 75.8057H62.5683C62.5683 76.2324 62.6367 76.6313 62.7738 77.0023L62.8207 76.985ZM62.6183 75.8057C62.6183 75.3845 62.6898 74.9957 62.8325 74.6389L62.7861 74.6204C62.6408 74.9836 62.5683 75.3788 62.5683 75.8057H62.6183ZM62.8324 74.6392C62.9833 74.2739 63.1856 73.9606 63.4392 73.6991L63.4033 73.6643C63.145 73.9307 62.9393 74.2494 62.7862 74.6201L62.8324 74.6392ZM63.4392 73.6991C63.7008 73.4295 64.01 73.2194 64.367 73.0687L64.3476 73.0226C63.9846 73.1759 63.6697 73.3898 63.4033 73.6642L63.4392 73.6991ZM64.367 73.0687C64.7237 72.9181 65.1123 72.8427 65.5333 72.8427V72.7927C65.1062 72.7927 64.7109 72.8692 64.3476 73.0226L64.367 73.0687ZM65.5333 72.8427C66.0345 72.8427 66.4543 72.9302 66.7939 73.1039L66.8167 73.0594C66.4682 72.8811 66.0401 72.7927 65.5333 72.7927V72.8427ZM66.7941 73.104C67.143 73.2785 67.428 73.5082 67.6495 73.793L67.689 73.7623C67.4625 73.4711 67.1715 73.2368 66.8165 73.0593L66.7941 73.104ZM67.6498 73.7933C67.8715 74.0705 68.03 74.3873 68.1251 74.7441L68.1734 74.7312C68.0766 74.368 67.9151 74.0449 67.6888 73.762L67.6498 73.7933ZM68.1253 74.7447C68.2286 75.0944 68.2803 75.452 68.2803 75.8177H68.3303C68.3303 75.4473 68.2779 75.0849 68.1733 74.7306L68.1253 74.7447ZM68.2803 75.8177V76.2017H68.3303V75.8177H68.2803ZM68.3053 76.1767H63.7453V76.2267H68.3053V76.1767ZM67.1783 75.3368C67.1702 75.0946 67.1298 74.8719 67.0568 74.6692L67.0098 74.6861C67.0808 74.8834 67.1204 75.1008 67.1283 75.3385L67.1783 75.3368ZM67.0571 74.67C66.992 74.4667 66.8902 74.2914 66.7515 74.1445L66.7151 74.1788C66.8484 74.3199 66.9465 74.4886 67.0095 74.6853L67.0571 74.67ZM66.7519 74.145C66.613 73.9898 66.4376 73.8716 66.2263 73.7903L66.2083 73.837C66.413 73.9157 66.5815 74.0296 66.7147 74.1783L66.7519 74.145ZM66.2273 73.7908C66.0235 73.7011 65.7839 73.6567 65.5093 73.6567V73.7067C65.7786 73.7067 66.0111 73.7502 66.2072 73.8365L66.2273 73.7908ZM65.5093 73.6567C65.2419 73.6567 64.9943 73.7093 64.7668 73.815L64.7878 73.8603C65.0083 73.758 65.2487 73.7067 65.5093 73.7067V73.6567ZM64.7671 73.8148C64.5483 73.9121 64.3616 74.0419 64.2072 74.2044L64.2434 74.2389C64.393 74.0814 64.5742 73.9553 64.7874 73.8605L64.7671 73.8148ZM64.2072 74.2044C64.0532 74.3665 63.9316 74.5489 63.8424 74.7516L63.8882 74.7717C63.975 74.5744 64.0934 74.3968 64.2434 74.2389L64.2072 74.2044ZM63.8422 74.752C63.761 74.9468 63.7203 75.1421 63.7203 75.3377H63.7703C63.7703 75.1492 63.8095 74.9605 63.8884 74.7713L63.8422 74.752ZM63.7453 75.3627H67.1533V75.3127H63.7453V75.3627ZM69.5973 72.9617V72.9367H69.5723V72.9617H69.5973ZM70.6773 72.9617H70.7023V72.9367H70.6773V72.9617ZM70.6773 73.8377H70.6523V73.8627H70.6773V73.8377ZM70.7013 73.8377V73.8627H70.7171L70.7238 73.8484L70.7013 73.8377ZM70.9893 73.4297L71.0069 73.4473L71.0075 73.4468L70.9893 73.4297ZM71.3853 73.1057L71.3727 73.084L71.3722 73.0843L71.3853 73.1057ZM71.8773 72.9017L71.8838 72.9258L71.8848 72.9255L71.8773 72.9017ZM72.8853 72.8897L72.9102 72.8907L72.911 72.8719L72.8932 72.8659L72.8853 72.8897ZM72.8373 74.0537L72.8307 74.0778L72.8609 74.086L72.8622 74.0547L72.8373 74.0537ZM71.0973 74.4137L71.0791 74.3965L71.0791 74.3965L71.0973 74.4137ZM70.6773 78.6497V78.6747H70.7023V78.6497H70.6773ZM69.5973 78.6497H69.5723V78.6747H69.5973V78.6497ZM69.5973 72.9867H70.6773V72.9367H69.5973V72.9867ZM70.6523 72.9617V73.8377H70.7023V72.9617H70.6523ZM70.6773 73.8627H70.7013V73.8127H70.6773V73.8627ZM70.7238 73.8484C70.7946 73.699 70.8889 73.5653 71.0069 73.4473L70.9716 73.412C70.8496 73.534 70.7519 73.6723 70.6787 73.827L70.7238 73.8484ZM71.0075 73.4468C71.126 73.3203 71.2563 73.2138 71.3983 73.127L71.3722 73.0843C71.2262 73.1735 71.0925 73.283 70.971 73.4126L71.0075 73.4468ZM71.3978 73.1273C71.5478 73.0404 71.7098 72.9732 71.8838 72.9258L71.8707 72.8775C71.6927 72.9261 71.5267 72.9949 71.3727 73.084L71.3978 73.1273ZM71.8848 72.9255C72.0585 72.8702 72.2319 72.8427 72.4053 72.8427V72.7927C72.2266 72.7927 72.048 72.8211 71.8697 72.8778L71.8848 72.9255ZM72.4053 72.8427C72.579 72.8427 72.7363 72.8663 72.8773 72.9134L72.8932 72.8659C72.7462 72.817 72.5835 72.7927 72.4053 72.7927V72.8427ZM72.8603 72.8886L72.8123 74.0526L72.8622 74.0547L72.9102 72.8907L72.8603 72.8886ZM72.8438 74.0295C72.7551 74.0054 72.6664 73.9852 72.5777 73.9691L72.5688 74.0183C72.6561 74.0341 72.7434 74.054 72.8307 74.0778L72.8438 74.0295ZM72.5777 73.9691C72.4883 73.9528 72.3988 73.9447 72.3092 73.9447V73.9947C72.3957 73.9947 72.4822 74.0025 72.5688 74.0183L72.5777 73.9691ZM72.3092 73.9447C71.7765 73.9447 71.3651 74.0941 71.0791 74.3965L71.1154 74.4308C71.3894 74.1412 71.786 73.9947 72.3092 73.9947V73.9447ZM71.0791 74.3965C70.7929 74.6991 70.6523 75.1666 70.6523 75.7937H70.7023C70.7023 75.1727 70.8416 74.7203 71.1154 74.4308L71.0791 74.3965ZM70.6523 75.7937V78.6497H70.7023V75.7937H70.6523ZM70.6773 78.6247H69.5973V78.6747H70.6773V78.6247ZM69.6223 78.6497V72.9617H69.5723V78.6497H69.6223Z" fill="#003B94"/>
<path d="M191.529 49.4767L194.795 46.2337C194.91 46.1263 195.021 46.0113 195.129 45.8887C195.236 45.7583 195.332 45.6242 195.416 45.4862C195.5 45.3482 195.566 45.2025 195.612 45.0492C195.665 44.8958 195.692 44.7348 195.692 44.5662C195.692 44.3668 195.654 44.1867 195.577 44.0257C195.508 43.8647 195.408 43.7305 195.278 43.6232C195.155 43.5082 195.006 43.42 194.83 43.3587C194.661 43.2973 194.481 43.2667 194.289 43.2667C193.89 43.2667 193.561 43.3778 193.3 43.6002C193.039 43.8225 192.875 44.1292 192.806 44.5202L191.61 44.4167C191.663 44.0563 191.767 43.7458 191.92 43.4852C192.081 43.2168 192.277 42.9945 192.507 42.8182C192.744 42.6418 193.013 42.5115 193.312 42.4272C193.618 42.3428 193.948 42.3007 194.301 42.3007C194.653 42.3007 194.983 42.3505 195.29 42.4502C195.604 42.5422 195.876 42.684 196.106 42.8757C196.344 43.0597 196.528 43.2935 196.658 43.5772C196.796 43.8532 196.865 44.179 196.865 44.5547C196.865 44.823 196.823 45.076 196.739 45.3137C196.662 45.5437 196.558 45.7622 196.428 45.9692C196.298 46.1762 196.148 46.3717 195.98 46.5557C195.811 46.7397 195.635 46.9198 195.451 47.0962L192.771 49.6837H196.865V50.6497H191.529V49.4767ZM197.781 46.5787C197.781 46.2797 197.796 45.9692 197.827 45.6472C197.858 45.3252 197.911 45.0108 197.988 44.7042C198.072 44.3898 198.18 44.0908 198.31 43.8072C198.448 43.5235 198.621 43.2782 198.828 43.0712C199.042 42.8565 199.291 42.6878 199.575 42.5652C199.866 42.4348 200.204 42.3697 200.587 42.3697C200.97 42.3697 201.304 42.4348 201.588 42.5652C201.879 42.6878 202.128 42.8565 202.335 43.0712C202.55 43.2782 202.722 43.5235 202.853 43.8072C202.991 44.0908 203.098 44.3898 203.175 44.7042C203.259 45.0108 203.316 45.3252 203.347 45.6472C203.378 45.9692 203.393 46.2797 203.393 46.5787C203.393 47.008 203.355 47.468 203.278 47.9587C203.201 48.4493 203.06 48.9055 202.853 49.3272C202.646 49.7488 202.358 50.0977 201.99 50.3737C201.63 50.6497 201.162 50.7877 200.587 50.7877C200.012 50.7877 199.541 50.6497 199.173 50.3737C198.812 50.0977 198.529 49.7488 198.322 49.3272C198.115 48.9055 197.973 48.4493 197.896 47.9587C197.819 47.468 197.781 47.008 197.781 46.5787ZM198.885 46.5787C198.885 46.847 198.9 47.1652 198.931 47.5332C198.969 47.9012 199.046 48.2577 199.161 48.6027C199.276 48.94 199.445 49.2275 199.667 49.4652C199.897 49.7028 200.204 49.8217 200.587 49.8217C200.97 49.8217 201.273 49.7028 201.496 49.4652C201.726 49.2275 201.898 48.94 202.013 48.6027C202.128 48.2577 202.201 47.9012 202.232 47.5332C202.27 47.1652 202.289 46.847 202.289 46.5787C202.289 46.3947 202.281 46.1877 202.266 45.9577C202.258 45.72 202.232 45.4823 202.186 45.2447C202.147 44.9993 202.09 44.7655 202.013 44.5432C201.936 44.3132 201.833 44.11 201.703 43.9337C201.58 43.7497 201.427 43.604 201.243 43.4967C201.059 43.3893 200.84 43.3357 200.587 43.3357C200.334 43.3357 200.116 43.3893 199.932 43.4967C199.748 43.604 199.59 43.7497 199.46 43.9337C199.337 44.11 199.238 44.3132 199.161 44.5432C199.084 44.7655 199.023 44.9993 198.977 45.2447C198.939 45.4823 198.912 45.72 198.897 45.9577C198.889 46.1877 198.885 46.3947 198.885 46.5787ZM204.309 49.4767L207.575 46.2337C207.69 46.1263 207.801 46.0113 207.909 45.8887C208.016 45.7583 208.112 45.6242 208.196 45.4862C208.281 45.3482 208.346 45.2025 208.392 45.0492C208.445 44.8958 208.472 44.7348 208.472 44.5662C208.472 44.3668 208.434 44.1867 208.357 44.0257C208.288 43.8647 208.189 43.7305 208.058 43.6232C207.936 43.5082 207.786 43.42 207.61 43.3587C207.441 43.2973 207.261 43.2667 207.069 43.2667C206.671 43.2667 206.341 43.3778 206.08 43.6002C205.82 43.8225 205.655 44.1292 205.586 44.5202L204.39 44.4167C204.443 44.0563 204.547 43.7458 204.7 43.4852C204.861 43.2168 205.057 42.9945 205.287 42.8182C205.524 42.6418 205.793 42.5115 206.092 42.4272C206.398 42.3428 206.728 42.3007 207.081 42.3007C207.433 42.3007 207.763 42.3505 208.07 42.4502C208.384 42.5422 208.656 42.684 208.886 42.8757C209.124 43.0597 209.308 43.2935 209.438 43.5772C209.576 43.8532 209.645 44.179 209.645 44.5547C209.645 44.823 209.603 45.076 209.519 45.3137C209.442 45.5437 209.339 45.7622 209.208 45.9692C209.078 46.1762 208.928 46.3717 208.76 46.5557C208.591 46.7397 208.415 46.9198 208.231 47.0962L205.551 49.6837H209.645V50.6497H204.309V49.4767ZM215.587 43.5427H212.286L212.252 45.5782C212.306 45.5552 212.382 45.5322 212.482 45.5092C212.582 45.4862 212.681 45.467 212.781 45.4517C212.888 45.4363 212.992 45.4248 213.091 45.4172C213.191 45.4095 213.275 45.4057 213.344 45.4057C213.728 45.4057 214.073 45.4708 214.379 45.6012C214.694 45.7315 214.962 45.9155 215.184 46.1532C215.407 46.3908 215.575 46.6745 215.69 47.0042C215.813 47.3338 215.874 47.698 215.874 48.0967C215.874 48.503 215.798 48.871 215.644 49.2007C215.499 49.5303 215.296 49.814 215.035 50.0517C214.774 50.2893 214.471 50.4733 214.126 50.6037C213.781 50.7263 213.41 50.7877 213.011 50.7877C212.459 50.7877 211.961 50.6458 211.516 50.3622C211.071 50.0785 210.753 49.6722 210.561 49.1432L211.677 48.7637C211.823 49.1393 212.018 49.4115 212.263 49.5802C212.509 49.7412 212.815 49.8217 213.183 49.8217C213.398 49.8217 213.601 49.7833 213.793 49.7067C213.992 49.63 214.161 49.5227 214.299 49.3847C214.445 49.239 214.56 49.0627 214.644 48.8557C214.728 48.6487 214.77 48.4148 214.77 48.1542C214.77 47.5562 214.586 47.1115 214.218 46.8202C213.858 46.5212 213.387 46.3717 212.804 46.3717C212.597 46.3717 212.332 46.41 212.01 46.4867C211.696 46.5557 211.401 46.6592 211.125 46.7972L211.217 42.5077H215.587V43.5427Z" fill="white"/>
<path fill-rule="evenodd" clip-rule="evenodd" d="M91.6798 50.9943C91.059 51.4221 90.3418 51.6894 89.5925 51.7722C88.8431 51.855 88.0849 51.7509 87.3856 51.469C86.6864 51.1872 86.0678 50.7365 85.5853 50.1572C85.1028 49.5778 84.7714 48.888 84.6207 48.1493C84.1932 46.5949 84.3727 44.9362 85.1227 43.5092C85.5417 42.744 86.1778 42.12 86.9509 41.7159C87.7241 41.3117 88.5995 41.1455 89.4669 41.2381C90.3506 41.2627 91.2006 41.5826 91.8813 42.1467C91.9811 42.2336 92.0218 42.2281 92.0893 42.1079C92.2073 41.8963 92.3839 41.7233 92.5979 41.6097C92.8118 41.496 93.0541 41.4466 93.2955 41.4673C93.6699 41.4673 94.0461 41.4877 94.4186 41.4609C94.6885 41.4424 94.7264 41.5533 94.7254 41.7853C94.7125 44.973 94.7038 48.161 94.6995 51.3493C94.6994 51.5311 94.6871 51.7126 94.6626 51.8928C94.5662 52.8383 94.1727 53.7289 93.5384 54.4367C92.9042 55.1445 92.0619 55.6331 91.1326 55.8322C89.256 56.3491 87.2533 56.135 85.5284 55.2333C85.3435 55.1409 85.2788 55.0595 85.3741 54.8478C85.5589 54.43 85.7087 53.9938 85.8926 53.5732C85.9226 53.4516 85.9794 53.3382 86.0588 53.2413C86.1383 53.1445 86.2384 53.0666 86.3518 53.0135C86.4652 52.9603 86.5891 52.9332 86.7143 52.9341C86.8396 52.935 86.9631 52.9638 87.0757 53.0186C87.822 53.2832 88.6097 53.4113 89.4013 53.3967C89.6576 53.3827 89.9118 53.3431 90.1602 53.2783C90.6605 53.1678 91.0985 52.8673 91.3816 52.4402C91.6647 52.0131 91.771 51.4927 91.6779 50.9888M91.7463 46.504C91.7574 46.1833 91.7327 45.8624 91.6724 45.5473C91.6237 45.1065 91.4181 44.6978 91.0931 44.3959C90.7682 44.0941 90.3455 43.9191 89.9023 43.9029C89.4301 43.7984 88.9359 43.8789 88.5213 44.1279C88.1067 44.3769 87.8034 44.7754 87.6738 45.2413C87.5135 45.7023 87.4484 46.191 87.4826 46.6778C87.5168 47.1646 87.6494 47.6394 87.8725 48.0735C88.0562 48.4397 88.3491 48.7397 88.7107 48.9323C89.0723 49.1249 89.4849 49.2004 89.8912 49.1485C90.3016 49.132 90.6944 48.9779 91.0064 48.7109C91.3185 48.444 91.5316 48.0798 91.6114 47.6769C91.7161 47.2952 91.7622 46.8995 91.7463 46.504ZM26.1185 41.8824C26.1185 41.5404 26.1185 41.1984 26.1185 40.8564C26.1185 40.1576 26.418 39.8544 27.1075 39.8498C27.492 39.8498 27.8775 39.8498 28.262 39.8498C28.4843 39.828 28.7087 39.8544 28.9199 39.9271C29.1312 39.9998 29.3242 40.1172 29.486 40.2712C29.6478 40.4252 29.7746 40.6122 29.8576 40.8196C29.9407 41.0269 29.9781 41.2498 29.9674 41.4729C29.9971 41.6998 29.9788 41.9305 29.9136 42.1499C29.8484 42.3693 29.7377 42.5725 29.5888 42.7463C29.4399 42.9202 29.2561 43.0607 29.0493 43.1589C28.8425 43.257 28.6174 43.3105 28.3886 43.316C27.6954 43.3511 27.0022 43.316 26.3052 43.328C26.1287 43.328 26.1204 43.2402 26.1204 43.1089C26.1204 42.7032 26.1204 42.2965 26.1204 41.8907M26.1204 47.8489C26.1204 47.4006 26.1157 46.9523 26.1204 46.504C26.1039 46.3779 26.1167 46.2497 26.158 46.1294C26.1992 46.0091 26.2677 45.8999 26.358 45.8104C26.4484 45.721 26.5582 45.6536 26.6789 45.6136C26.7996 45.5735 26.928 45.5619 27.0539 45.5796C27.5882 45.5796 28.1215 45.5741 28.6558 45.5796C29.1504 45.6132 29.6141 45.8328 29.9534 46.1943C30.2927 46.5558 30.4825 47.0324 30.4846 47.5282C30.4867 48.024 30.3009 48.5022 29.9647 48.8666C29.6285 49.231 29.1668 49.4546 28.6724 49.4923C27.9043 49.5043 27.1353 49.4923 26.3662 49.4988C26.174 49.4988 26.1074 49.4581 26.1148 49.2538C26.1314 48.7843 26.1204 48.3147 26.1204 47.8442M42.2692 46.7351C42.3084 47.2438 42.2057 47.7535 41.9727 48.2074C41.7397 48.6613 41.3854 49.0418 40.9492 49.3065C40.5883 49.5085 40.1831 49.6182 39.7696 49.6259C39.3561 49.6336 38.947 49.5391 38.5789 49.3507C38.2107 49.1623 37.8947 48.8859 37.659 48.546C37.4234 48.2061 37.2752 47.8133 37.2279 47.4024C37.1294 46.8321 37.161 46.2469 37.3204 45.6906C37.459 45.1358 37.788 44.6472 38.2501 44.3102C38.7121 43.9732 39.2777 43.8091 39.8484 43.8465C40.3964 43.8738 40.92 44.0813 41.3379 44.4368C41.7558 44.7924 42.0445 45.276 42.1592 45.8126C42.2336 46.115 42.2702 46.4255 42.2682 46.7369M54.0478 46.7369C54.0498 47.0682 54.0059 47.3983 53.9175 47.7176C53.7892 48.2564 53.4845 48.7368 53.0518 49.0825C52.6191 49.4282 52.0833 49.6194 51.5295 49.6256C50.9757 49.6319 50.4358 49.4529 49.9954 49.1171C49.555 48.7812 49.2395 48.3079 49.099 47.7721C48.9338 47.2841 48.8853 46.7641 48.9576 46.2539C49.0298 45.7437 49.2207 45.2576 49.515 44.8346C49.7739 44.4557 50.1397 44.1624 50.5659 43.9922C50.9921 43.822 51.4593 43.7826 51.908 43.8789C52.3882 43.9512 52.8355 44.1661 53.192 44.4957C53.5485 44.8254 53.7977 45.2545 53.9074 45.7275C54.0077 46.0553 54.0551 46.397 54.0478 46.7397M31.2337 44.317L31.6302 43.9676C32.3273 43.3222 32.751 42.4346 32.8146 41.4868C32.8782 40.539 32.5768 39.6027 31.9722 38.87C31.5943 38.4522 31.1355 38.1155 30.6235 37.8803C30.1116 37.6452 29.5573 37.5164 28.9941 37.502C27.5752 37.4031 26.1499 37.4641 24.7283 37.4724C24.3382 37.4885 23.9702 37.6578 23.7041 37.9435C23.438 38.2291 23.2952 38.6082 23.3067 38.9985C23.3067 43.2239 23.3042 47.4492 23.2993 51.6746C23.2993 51.9214 23.3733 51.9769 23.6071 51.975C25.2543 51.9658 26.9023 51.975 28.5495 51.9676C29.1057 51.9662 29.6594 51.8907 30.1957 51.743C30.7617 51.6234 31.2956 51.3838 31.7612 51.0405C32.2269 50.6971 32.6136 50.258 32.8953 49.7526C33.177 49.2473 33.3471 48.6874 33.3941 48.1108C33.4412 47.5341 33.3643 46.9541 33.1683 46.4097C33.0188 45.9403 32.7679 45.5096 32.4334 45.148C32.0989 44.7864 31.69 44.5027 31.2337 44.317ZM45.2168 46.6278C45.2062 45.5394 44.8731 44.4785 44.2596 43.5793C43.6461 42.6802 42.7797 41.9831 41.7701 41.5763C40.7605 41.1694 39.6529 41.0711 38.5874 41.2936C37.5218 41.5162 36.5462 42.0496 35.7839 42.8266C35.0215 43.6036 34.5066 44.5891 34.3043 45.6587C34.102 46.7282 34.2214 47.8338 34.6473 48.8355C35.0732 49.8372 35.7866 50.6902 36.6973 51.2865C37.6079 51.8828 38.6749 52.1958 39.7634 52.1858C40.4953 52.2112 41.2245 52.084 41.9046 51.8123C42.5848 51.5406 43.2009 51.1303 43.7139 50.6076C44.2268 50.0848 44.6253 49.461 44.884 48.7758C45.1428 48.0907 45.2561 47.3592 45.2168 46.6278ZM45.9914 46.7203C45.9652 47.4358 46.085 48.1492 46.3434 48.817C46.6018 49.4848 46.9935 50.093 47.4946 50.6045C47.9956 51.116 48.5956 51.5202 49.2579 51.7924C49.9202 52.0645 50.631 52.199 51.347 52.1876C54.6468 52.1876 56.9964 49.9563 56.9992 46.8164C57.0114 45.3566 56.4433 43.9516 55.4197 42.9107C54.3961 41.8698 53.0009 41.2781 51.5411 41.2658C50.0813 41.2536 48.6763 41.8217 47.6354 42.8453C46.5945 43.8689 46.0028 45.2641 45.9905 46.724M67.7842 52.012C66.871 52.012 65.9725 52.025 65.0741 52.012C64.7831 51.999 64.5019 51.9029 64.2638 51.7352C64.0256 51.5675 63.8404 51.3351 63.7301 51.0655C63.3246 50.302 62.9198 49.5382 62.5156 48.7741C62.3954 48.548 62.2752 48.3218 62.1551 48.0957C62.0686 47.9307 61.9306 47.7985 61.7621 47.7193C61.5935 47.64 61.4037 47.618 61.2215 47.6566C61.0255 47.6927 61.1004 47.8341 61.0995 47.9339C61.094 49.1642 61.081 50.3954 61.1059 51.6247C61.1133 51.975 61.0015 52.0425 60.6808 52.0333C59.8896 52.0111 59.0974 52.0194 58.3062 52.0333C58.1056 52.0333 58.0557 51.9732 58.0566 51.7791C58.0615 47.0959 58.0615 42.4095 58.0566 37.7201C58.0566 37.5057 58.1204 37.4428 58.3339 37.4512C58.8469 37.4752 59.3608 37.4243 59.8729 37.4826C60.0488 37.4747 60.2243 37.506 60.3866 37.5743C60.5489 37.6425 60.694 37.7459 60.8115 37.8771C60.9289 38.0083 61.0158 38.1639 61.0658 38.3327C61.1158 38.5016 61.1276 38.6794 61.1004 38.8533C61.1004 40.7944 61.1106 42.7263 61.093 44.6627C61.093 44.9835 61.1854 45.0445 61.4821 45.0408C61.678 45.0562 61.8742 45.0152 62.0475 44.9226C62.2208 44.8301 62.364 44.6899 62.4601 44.5185C63.0323 43.5794 63.6534 42.6699 64.2422 41.7391C64.2809 41.6599 64.3424 41.5943 64.4189 41.5506C64.4954 41.5069 64.5832 41.4872 64.6711 41.4941C65.698 41.5071 66.7249 41.4997 67.7453 41.4997C67.7916 41.5625 67.7583 41.6051 67.7278 41.6504C66.7905 43.0418 65.8527 44.4329 64.9142 45.8237C64.7949 45.9993 64.5445 46.1509 64.5398 46.3219C64.5352 46.4929 64.7811 46.6491 64.8763 46.834C65.771 48.5726 66.7582 50.2539 67.7805 51.9233C67.7897 51.9381 67.7805 51.963 67.7879 52.0157M68.6983 46.7471C68.6983 45.1008 68.7039 43.4546 68.6928 41.8075C68.6928 41.5551 68.7548 41.472 69.0117 41.4895C69.5118 41.5228 70.0155 41.4609 70.5156 41.5339C70.8288 41.5546 71.1233 41.6906 71.3422 41.9155C71.5612 42.1405 71.6892 42.4385 71.7015 42.7521C71.7129 42.88 71.7176 43.0083 71.7154 43.1367C71.7154 45.9817 71.7107 48.8259 71.7236 51.67C71.7236 51.9741 71.6312 52.0397 71.354 52.0286C70.5951 52.0102 69.8352 52.0046 69.0764 52.0286C68.7658 52.0388 68.7159 51.9297 68.7177 51.6524C68.7298 50.0164 68.7233 48.3803 68.7233 46.7443L68.6983 46.7471ZM71.841 38.7729C71.8354 39.1161 71.7286 39.45 71.5341 39.7328C71.3396 40.0156 71.0659 40.2347 70.7475 40.3626C70.429 40.4906 70.0798 40.5218 69.7437 40.4523C69.4076 40.3827 69.0995 40.2156 68.8579 39.9717C68.6164 39.7279 68.4521 39.4182 68.3858 39.0815C68.3194 38.7447 68.3539 38.3959 68.4849 38.0786C68.6159 37.7614 68.8375 37.4898 69.1221 37.298C69.4067 37.1061 69.7416 37.0025 70.0848 37.0001C70.3175 36.9978 70.5483 37.0422 70.7634 37.1307C70.9786 37.2193 71.1739 37.35 71.3376 37.5153C71.5014 37.6806 71.6303 37.8771 71.7168 38.0931C71.8032 38.3091 71.8455 38.5403 71.841 38.7729ZM76.4137 42.6551C76.9726 42.0286 77.7094 41.5877 78.5257 41.3915C79.4123 41.1748 80.3425 41.2162 81.2063 41.5108C81.7447 41.6996 82.2206 42.0332 82.5816 42.475C82.9427 42.9168 83.1749 43.4496 83.2527 44.0148C83.3414 44.4444 83.385 44.8821 83.3831 45.3208C83.3831 47.4468 83.3831 49.5792 83.3886 51.7088C83.3886 51.9538 83.3378 52.0425 83.0771 52.0277C82.6723 52.0037 82.2646 52.0277 81.8579 52.0203C81.6539 52.0475 81.4463 52.0271 81.2514 51.9608C81.0565 51.8945 80.8796 51.7841 80.7344 51.6382C80.5892 51.4923 80.4796 51.3148 80.4143 51.1196C80.349 50.9244 80.3296 50.7167 80.3577 50.5128C80.3504 48.9608 80.3577 47.4098 80.3577 45.8579C80.3653 45.5259 80.3246 45.1946 80.2367 44.8744C80.1869 44.6646 80.0713 44.4763 79.9068 44.337C79.7423 44.1976 79.5376 44.1145 79.3225 44.0998C78.6992 44.0253 78.0708 44.1893 77.5632 44.5587C77.0556 44.9281 76.7064 45.4757 76.5856 46.0917C76.4945 46.433 76.4491 46.7848 76.4506 47.1381C76.4506 48.6678 76.4506 50.1985 76.458 51.7282C76.458 51.9695 76.3989 52.0314 76.1586 52.0268C75.3461 52.0111 74.5327 52.0139 73.7193 52.0268C73.5057 52.0268 73.429 51.9889 73.43 51.7495C73.438 48.4219 73.438 45.0944 73.43 41.7668C73.43 41.5394 73.491 41.472 73.7156 41.4895C74.1851 41.5182 74.6566 41.4599 75.1261 41.5209C75.4181 41.5294 75.6984 41.6373 75.9207 41.8267C76.1431 42.0161 76.2942 42.2757 76.349 42.5627C76.3545 42.5913 76.3832 42.6144 76.4127 42.6551" fill="white"/>
<path fill-rule="evenodd" clip-rule="evenodd" d="M125.189 42.8146C125.36 42.6297 125.487 42.4735 125.634 42.3376C126.131 41.8521 126.753 41.5146 127.43 41.3627C128.108 41.2109 128.815 41.2508 129.471 41.478C129.804 41.5809 130.114 41.7486 130.382 41.9714C130.651 42.1943 130.873 42.4679 131.035 42.7767C131.22 43.0974 131.22 43.0956 131.443 42.8238C131.981 42.1645 132.706 41.6834 133.522 41.4438C134.339 41.2043 135.208 41.2175 136.017 41.4817C136.549 41.6578 137.019 41.9812 137.374 42.4143C137.73 42.8475 137.954 43.3725 138.023 43.9284C138.114 44.3792 138.159 44.8382 138.156 45.2982C138.156 47.4242 138.15 49.5557 138.162 51.6844C138.162 51.9543 138.094 52.0319 137.827 52.0162C137.432 51.9922 137.036 52.0162 136.64 52.0079C136.457 52.0294 136.271 52.0096 136.097 51.9499C135.922 51.8902 135.764 51.7921 135.632 51.6628C135.501 51.5336 135.4 51.3765 135.337 51.2031C135.275 51.0298 135.252 50.8446 135.27 50.6612C135.248 49.0353 135.261 47.4094 135.255 45.7835C135.254 45.5486 135.238 45.314 135.207 45.081C135.212 44.8933 135.17 44.7074 135.085 44.5402C134.999 44.3731 134.873 44.23 134.718 44.124C134.563 44.018 134.384 43.9525 134.197 43.9335C134.011 43.9145 133.822 43.9426 133.649 44.0153C133.234 44.1288 132.856 44.3503 132.555 44.6574C132.253 44.9645 132.038 45.346 131.932 45.7632C131.753 46.2675 131.663 46.7993 131.667 47.3345C131.676 48.7996 131.667 50.2655 131.675 51.7306C131.675 51.9561 131.614 52.0171 131.391 52.0135C130.61 51.9999 129.829 51.9999 129.049 52.0135C128.818 52.0135 128.767 51.9441 128.771 51.7241C128.78 49.767 128.78 47.8096 128.771 45.8519C128.772 45.6061 128.752 45.3607 128.713 45.118C128.698 44.905 128.629 44.6992 128.514 44.5194C128.399 44.3396 128.241 44.1915 128.054 44.0886C127.867 43.9856 127.657 43.9312 127.443 43.9302C127.23 43.9292 127.019 43.9816 126.831 44.0828C126.299 44.3244 125.878 44.7587 125.653 45.2982C125.345 45.9359 125.187 46.6356 125.191 47.3438C125.191 48.7987 125.185 50.2535 125.191 51.7084C125.191 51.9395 125.146 52.0208 124.896 52.0153C124.127 51.9977 123.357 52.0042 122.586 52.0153C122.395 52.0153 122.302 51.9913 122.302 51.7593C122.309 48.4317 122.309 45.1041 122.302 41.7766C122.302 41.5825 122.354 41.5104 122.553 41.5205C122.842 41.5353 123.131 41.5205 123.419 41.5205C124.507 41.5205 124.799 41.7276 125.185 42.8146M113.212 46.73C113.173 46.2212 113.276 45.7115 113.509 45.2574C113.742 44.8034 114.096 44.4227 114.532 44.1576C114.89 43.9557 115.293 43.8452 115.704 43.8358C116.115 43.8265 116.522 43.9186 116.889 44.1041C117.255 44.2895 117.571 44.5625 117.807 44.899C118.044 45.2355 118.193 45.625 118.243 46.0331C118.361 46.5184 118.362 47.0247 118.248 47.5107C118.133 47.9967 117.905 48.4488 117.582 48.8301C117.282 49.1767 116.886 49.4278 116.445 49.5526C116.003 49.6774 115.534 49.6704 115.097 49.5326C114.649 49.4154 114.244 49.1737 113.928 48.8353C113.612 48.4969 113.398 48.0759 113.312 47.6211C113.24 47.3297 113.206 47.0301 113.212 46.73ZM97.591 52.1373C97.2431 52.1304 96.9051 52.0203 96.6199 51.8209C96.3346 51.6215 96.1151 51.3419 95.989 51.0175C95.863 50.6931 95.8362 50.3386 95.912 49.9989C95.9878 49.6593 96.1628 49.3498 96.4148 49.1098C96.6667 48.8698 96.9843 48.71 97.3272 48.6508C97.6702 48.5916 98.023 48.6356 98.3409 48.7773C98.6588 48.919 98.9273 49.1519 99.1126 49.4465C99.2978 49.7411 99.3915 50.0841 99.3815 50.4319C99.3767 50.6617 99.3265 50.8883 99.2338 51.0986C99.141 51.3089 99.0076 51.4987 98.8412 51.6573C98.6748 51.8158 98.4786 51.9398 98.2641 52.0222C98.0495 52.1046 97.8208 52.1437 97.591 52.1373ZM108.486 45.13H108.037C107.769 45.1761 107.494 45.1179 107.268 44.9673C107.042 44.8166 106.882 44.5851 106.821 44.3203C106.773 44.219 106.703 44.1298 106.616 44.0591C106.528 43.9884 106.427 43.9381 106.318 43.9117C105.82 43.7592 105.289 43.7525 104.787 43.8924C104.285 44.0323 103.834 44.313 103.487 44.7011C103.22 45.0196 103.019 45.3887 102.896 45.7864C102.774 46.1841 102.733 46.6023 102.776 47.0162C102.818 47.4301 102.944 47.8313 103.144 48.1957C103.345 48.5602 103.617 48.8806 103.944 49.1379C104.421 49.4614 104.976 49.6496 105.551 49.6821C106.126 49.7147 106.699 49.5905 107.21 49.3227C107.721 49.0997 108.183 48.7766 108.567 48.3725C108.742 48.1821 108.811 48.2348 108.921 48.4271C109.23 48.9641 109.548 49.4956 109.881 50.0178C109.91 50.051 109.932 50.0901 109.946 50.1324C109.959 50.1747 109.963 50.2194 109.958 50.2634C109.953 50.3075 109.938 50.35 109.916 50.3881C109.893 50.4262 109.863 50.4591 109.826 50.4846C109.195 51.1201 108.429 51.6064 107.585 51.9077C106.741 52.209 105.841 52.3178 104.95 52.226C103.634 52.1532 102.388 51.6061 101.445 50.6861C100.904 50.157 100.483 49.5179 100.211 48.8121C99.9383 48.1063 99.8208 47.3502 99.8658 46.5951C99.9657 43.0651 102.926 41.002 106.172 41.3181C106.952 41.3718 107.71 41.6066 108.384 42.0039C108.724 42.1909 109.004 42.47 109.192 42.8092C109.38 43.1484 109.468 43.5338 109.446 43.921C109.437 44.2525 109.437 44.5841 109.446 44.9156C109.453 45.0884 109.387 45.1383 109.224 45.1309C108.979 45.1198 108.732 45.1309 108.484 45.1309M110.259 46.6958C110.242 47.7864 110.549 48.8576 111.142 49.7732C111.734 50.6889 112.586 51.4078 113.588 51.8386C114.59 52.2694 115.698 52.3927 116.77 52.1929C117.842 51.9931 118.831 51.4791 119.611 50.7162C120.39 49.9534 120.926 48.9761 121.149 47.9084C121.372 46.8407 121.273 45.7308 120.864 44.7195C120.455 43.7083 119.755 42.8414 118.852 42.2289C117.95 41.6163 116.885 41.2858 115.795 41.2793C115.068 41.2404 114.34 41.3529 113.659 41.6098C112.978 41.8666 112.357 42.2622 111.837 42.7714C111.316 43.2806 110.907 43.8924 110.636 44.5679C110.364 45.2435 110.236 45.9681 110.259 46.6958Z" fill="white"/>
</svg>
