<svg width="240" height="121" viewBox="0 0 240 121" fill="none" xmlns="http://www.w3.org/2000/svg">
<rect x="0.968212" y="0.414013" width="238.025" height="119.554" rx="9.14013" fill="white" stroke="#D9D9D9" stroke-width="0.828026"/>
<path d="M111.33 52.3738C111.33 57.9437 106.973 62.048 101.625 62.048C96.2778 62.048 91.9204 57.9437 91.9204 52.3738C91.9204 46.7646 96.2778 42.6995 101.625 42.6995C106.973 42.6995 111.33 46.7646 111.33 52.3738ZM107.082 52.3738C107.082 48.8931 104.556 46.5116 101.625 46.5116C98.6942 46.5116 96.1687 48.8931 96.1687 52.3738C96.1687 55.8195 98.6942 58.2359 101.625 58.2359C104.556 58.2359 107.082 55.8151 107.082 52.3738Z" fill="#EA4335"/>
<path d="M132.266 52.3738C132.266 57.9437 127.909 62.048 122.561 62.048C117.214 62.048 112.856 57.9437 112.856 52.3738C112.856 46.7689 117.214 42.6995 122.561 42.6995C127.909 42.6995 132.266 46.7646 132.266 52.3738ZM128.018 52.3738C128.018 48.8931 125.492 46.5116 122.561 46.5116C119.63 46.5116 117.105 48.8931 117.105 52.3738C117.105 55.8195 119.63 58.2359 122.561 58.2359C125.492 58.2359 128.018 55.8151 128.018 52.3738Z" fill="#FBBC05"/>
<path d="M152.331 43.2839V60.6523C152.331 67.7968 148.117 70.7148 143.136 70.7148C138.447 70.7148 135.625 67.5787 134.561 65.014L138.26 63.4743C138.918 65.0489 140.532 66.907 143.132 66.907C146.32 66.907 148.296 64.9399 148.296 61.2368V59.8454H148.148C147.197 61.0187 145.365 62.0437 143.053 62.0437C138.216 62.0437 133.785 57.8303 133.785 52.4086C133.785 46.9478 138.216 42.6995 143.053 42.6995C145.361 42.6995 147.193 43.7245 148.148 44.8629H148.296V43.2883H152.331V43.2839ZM148.597 52.4086C148.597 49.0021 146.325 46.5116 143.433 46.5116C140.502 46.5116 138.046 49.0021 138.046 52.4086C138.046 55.7802 140.502 58.2359 143.433 58.2359C146.325 58.2359 148.597 55.7802 148.597 52.4086Z" fill="#4285F4"/>
<path d="M158.982 33.1035V61.4547H154.839V33.1035H158.982Z" fill="#34A853"/>
<path d="M175.129 55.5578L178.427 57.7561C177.362 59.3307 174.798 62.0436 170.366 62.0436C164.87 62.0436 160.766 57.7953 160.766 52.3694C160.766 46.6163 164.905 42.6951 169.891 42.6951C174.911 42.6951 177.367 46.6904 178.169 48.8495L178.61 49.9486L165.677 55.3048C166.668 57.2458 168.207 58.2359 170.366 58.2359C172.53 58.2359 174.03 57.1716 175.129 55.5578ZM164.98 52.0771L173.624 48.4874C173.149 47.2792 171.718 46.4374 170.035 46.4374C167.876 46.4374 164.87 48.3435 164.98 52.0771Z" fill="#EA4335"/>
<path d="M76.2355 49.8569V45.7525H90.0665C90.2017 46.4678 90.2715 47.314 90.2715 48.2299C90.2715 51.3093 89.4297 55.1171 86.7167 57.8301C84.0778 60.578 80.7062 62.0435 76.2398 62.0435C67.9613 62.0435 61 55.3003 61 47.0218C61 38.7432 67.9613 32 76.2398 32C80.8196 32 84.0822 33.797 86.5335 36.1393L83.6373 39.0354C81.8795 37.3867 79.498 36.1044 76.2355 36.1044C70.1901 36.1044 65.462 40.9764 65.462 47.0218C65.462 53.0671 70.1901 57.9391 76.2355 57.9391C80.1567 57.9391 82.3899 56.3645 83.8205 54.9339C84.9807 53.7737 85.744 52.1162 86.045 49.8525L76.2355 49.8569Z" fill="#4285F4"/>
<path d="M68.0895 78.2284H69.5959L72.4188 86.0457H72.446L75.3775 78.2284H76.8025L73.016 87.8372H71.7945L68.0895 78.2284ZM77.063 82.1913C77.4068 81.8747 77.8049 81.6394 78.2573 81.4856C78.7097 81.3227 79.1621 81.2413 79.6145 81.2413C80.085 81.2413 80.4876 81.3001 80.8224 81.4177C81.1662 81.5354 81.4467 81.6937 81.6638 81.8927C81.881 82.0918 82.0393 82.3225 82.1388 82.5849C82.2474 82.8382 82.3017 83.1052 82.3017 83.3856V86.67C82.3017 86.8962 82.3062 87.1043 82.3153 87.2943C82.3243 87.4843 82.3379 87.6652 82.356 87.8372H81.2702C81.2431 87.5114 81.2295 87.1857 81.2295 86.86H81.2024C80.931 87.2762 80.6098 87.5702 80.2388 87.7422C79.8678 87.9141 79.4381 88 78.9495 88C78.6509 88 78.3659 87.9593 78.0945 87.8779C77.823 87.7964 77.5833 87.6743 77.3752 87.5114C77.1761 87.3486 77.0178 87.1495 76.9002 86.9143C76.7825 86.67 76.7237 86.3895 76.7237 86.0728C76.7237 85.6566 76.8142 85.3083 76.9952 85.0278C77.1852 84.7473 77.4385 84.5211 77.7552 84.3492C78.0809 84.1683 78.4564 84.0416 78.8816 83.9692C79.3159 83.8878 79.7774 83.8471 80.2659 83.8471H81.1617V83.5756C81.1617 83.4128 81.13 83.2499 81.0667 83.0871C81.0033 82.9242 80.9083 82.7794 80.7817 82.6528C80.655 82.517 80.4967 82.413 80.3067 82.3406C80.1167 82.2592 79.8905 82.2185 79.6281 82.2185C79.3928 82.2185 79.1847 82.2411 79.0038 82.2863C78.8319 82.3316 78.6735 82.3904 78.5288 82.4628C78.384 82.5261 78.2528 82.603 78.1352 82.6935C78.0176 82.784 77.9045 82.8699 77.7959 82.9513L77.063 82.1913ZM80.5102 84.7428C80.2207 84.7428 79.9221 84.7609 79.6145 84.7971C79.3159 84.8242 79.04 84.883 78.7866 84.9735C78.5423 85.064 78.3388 85.1907 78.1759 85.3535C78.0221 85.5164 77.9452 85.7245 77.9452 85.9778C77.9452 86.3488 78.0673 86.6157 78.3116 86.7786C78.565 86.9414 78.9042 87.0229 79.3295 87.0229C79.6643 87.0229 79.9493 86.9686 80.1845 86.86C80.4198 86.7424 80.6098 86.5931 80.7545 86.4121C80.8993 86.2312 81.0033 86.0321 81.0667 85.815C81.13 85.5888 81.1617 85.3671 81.1617 85.15V84.7428H80.5102ZM88.8101 83.1142C88.5839 82.879 88.3441 82.7025 88.0908 82.5849C87.8465 82.4582 87.5524 82.3949 87.2086 82.3949C86.8738 82.3949 86.5798 82.4582 86.3265 82.5849C86.0822 82.7025 85.8741 82.8699 85.7022 83.0871C85.5393 83.2952 85.4126 83.5394 85.3221 83.8199C85.2407 84.0914 85.2 84.3764 85.2 84.6749C85.2 84.9735 85.2498 85.2585 85.3493 85.53C85.4488 85.7924 85.5891 86.0231 85.77 86.2221C85.951 86.4212 86.1681 86.5795 86.4215 86.6971C86.6748 86.8057 86.9598 86.86 87.2765 86.86C87.6203 86.86 87.9143 86.8012 88.1586 86.6836C88.4029 86.5569 88.6291 86.3759 88.8372 86.1407L89.7058 87.0093C89.3891 87.3621 89.0182 87.6155 88.5929 87.7693C88.1767 87.9231 87.7334 88 87.2629 88C86.7653 88 86.3084 87.9186 85.8922 87.7557C85.485 87.5929 85.1321 87.3667 84.8336 87.0771C84.535 86.7786 84.3043 86.4257 84.1414 86.0185C83.9785 85.6023 83.8971 85.1454 83.8971 84.6478C83.8971 84.1502 83.9785 83.6933 84.1414 83.2771C84.3043 82.8609 84.5305 82.5035 84.82 82.2049C85.1186 81.9063 85.4714 81.6756 85.8786 81.5127C86.2948 81.3408 86.7562 81.2549 87.2629 81.2549C87.7334 81.2549 88.1813 81.3408 88.6065 81.5127C89.0408 81.6756 89.4163 81.9289 89.733 82.2728L88.8101 83.1142ZM90.9194 82.1913C91.2632 81.8747 91.6613 81.6394 92.1137 81.4856C92.5661 81.3227 93.0185 81.2413 93.4709 81.2413C93.9414 81.2413 94.344 81.3001 94.6788 81.4177C95.0226 81.5354 95.3031 81.6937 95.5202 81.8927C95.7374 82.0918 95.8957 82.3225 95.9952 82.5849C96.1038 82.8382 96.1581 83.1052 96.1581 83.3856V86.67C96.1581 86.8962 96.1626 87.1043 96.1717 87.2943C96.1807 87.4843 96.1943 87.6652 96.2124 87.8372H95.1266C95.0995 87.5114 95.0859 87.1857 95.0859 86.86H95.0588C94.7874 87.2762 94.4662 87.5702 94.0952 87.7422C93.7242 87.9141 93.2945 88 92.8059 88C92.5073 88 92.2223 87.9593 91.9509 87.8779C91.6794 87.7964 91.4397 87.6743 91.2316 87.5114C91.0325 87.3486 90.8742 87.1495 90.7566 86.9143C90.6389 86.67 90.5801 86.3895 90.5801 86.0728C90.5801 85.6566 90.6706 85.3083 90.8516 85.0278C91.0416 84.7473 91.2949 84.5211 91.6116 84.3492C91.9373 84.1683 92.3128 84.0416 92.738 83.9692C93.1723 83.8878 93.6338 83.8471 94.1223 83.8471H95.0181V83.5756C95.0181 83.4128 94.9864 83.2499 94.9231 83.0871C94.8597 82.9242 94.7647 82.7794 94.6381 82.6528C94.5114 82.517 94.3531 82.413 94.1631 82.3406C93.9731 82.2592 93.7469 82.2185 93.4845 82.2185C93.2492 82.2185 93.0411 82.2411 92.8602 82.2863C92.6883 82.3316 92.5299 82.3904 92.3852 82.4628C92.2404 82.5261 92.1092 82.603 91.9916 82.6935C91.874 82.784 91.7609 82.8699 91.6523 82.9513L90.9194 82.1913ZM94.3666 84.7428C94.0771 84.7428 93.7785 84.7609 93.4709 84.7971C93.1723 84.8242 92.8964 84.883 92.643 84.9735C92.3987 85.064 92.1952 85.1907 92.0323 85.3535C91.8785 85.5164 91.8016 85.7245 91.8016 85.9778C91.8016 86.3488 91.9237 86.6157 92.168 86.7786C92.4214 86.9414 92.7606 87.0229 93.1859 87.0229C93.5207 87.0229 93.8057 86.9686 94.0409 86.86C94.2762 86.7424 94.4662 86.5931 94.6109 86.4121C94.7557 86.2312 94.8597 86.0321 94.9231 85.815C94.9864 85.5888 95.0181 85.3671 95.0181 85.15V84.7428H94.3666ZM101.513 82.4628H99.7621V85.3807C99.7621 85.5616 99.7666 85.7426 99.7757 85.9235C99.7847 86.0955 99.8164 86.2538 99.8707 86.3986C99.934 86.5343 100.025 86.6474 100.142 86.7378C100.269 86.8193 100.45 86.86 100.685 86.86C100.83 86.86 100.979 86.8464 101.133 86.8193C101.287 86.7921 101.427 86.7424 101.554 86.67V87.7829C101.409 87.8643 101.219 87.9186 100.984 87.9457C100.757 87.9819 100.581 88 100.454 88C99.9838 88 99.6174 87.9367 99.355 87.81C99.1016 87.6743 98.9116 87.5024 98.785 87.2943C98.6673 87.0862 98.595 86.8555 98.5678 86.6021C98.5497 86.3397 98.5407 86.0774 98.5407 85.815V82.4628H97.1292V81.4042H98.5407V79.5991H99.7621V81.4042H101.513V82.4628ZM103.32 81.4042H104.541V87.8372H103.32V81.4042ZM103.035 79.097C103.035 78.8527 103.12 78.6446 103.292 78.4727C103.473 78.2917 103.686 78.2012 103.93 78.2012C104.175 78.2012 104.383 78.2917 104.555 78.4727C104.735 78.6446 104.826 78.8527 104.826 79.097C104.826 79.3413 104.735 79.5539 104.555 79.7348C104.383 79.9068 104.175 79.9927 103.93 79.9927C103.686 79.9927 103.473 79.9068 103.292 79.7348C103.12 79.5539 103.035 79.3413 103.035 79.097ZM107.611 84.6207C107.611 84.9464 107.661 85.2495 107.761 85.53C107.86 85.8014 108 86.0366 108.181 86.2357C108.362 86.4257 108.584 86.5795 108.846 86.6971C109.109 86.8057 109.403 86.86 109.729 86.86C110.054 86.86 110.348 86.8057 110.611 86.6971C110.873 86.5795 111.095 86.4257 111.276 86.2357C111.457 86.0366 111.597 85.8014 111.696 85.53C111.796 85.2495 111.846 84.9464 111.846 84.6207C111.846 84.2949 111.796 83.9964 111.696 83.7249C111.597 83.4444 111.457 83.2092 111.276 83.0192C111.095 82.8201 110.873 82.6663 110.611 82.5578C110.348 82.4401 110.054 82.3813 109.729 82.3813C109.403 82.3813 109.109 82.4401 108.846 82.5578C108.584 82.6663 108.362 82.8201 108.181 83.0192C108 83.2092 107.86 83.4444 107.761 83.7249C107.661 83.9964 107.611 84.2949 107.611 84.6207ZM106.308 84.6207C106.308 84.1502 106.394 83.7114 106.566 83.3042C106.747 82.8971 106.992 82.5397 107.299 82.232C107.607 81.9244 107.969 81.6846 108.385 81.5127C108.801 81.3318 109.249 81.2413 109.729 81.2413C110.208 81.2413 110.656 81.3318 111.072 81.5127C111.488 81.6846 111.85 81.9244 112.158 82.232C112.465 82.5397 112.705 82.8971 112.877 83.3042C113.058 83.7114 113.149 84.1502 113.149 84.6207C113.149 85.0911 113.058 85.5345 112.877 85.9507C112.705 86.3578 112.465 86.7152 112.158 87.0229C111.85 87.3214 111.488 87.5612 111.072 87.7422C110.656 87.9141 110.208 88 109.729 88C109.249 88 108.801 87.9141 108.385 87.7422C107.969 87.5612 107.607 87.3214 107.299 87.0229C106.992 86.7152 106.747 86.3578 106.566 85.9507C106.394 85.5345 106.308 85.0911 106.308 84.6207ZM114.815 81.4042H116.036V82.3949H116.063C116.217 82.0511 116.484 81.7751 116.864 81.567C117.244 81.3499 117.683 81.2413 118.18 81.2413C118.488 81.2413 118.782 81.2911 119.062 81.3906C119.352 81.4811 119.601 81.6258 119.809 81.8249C120.026 82.0239 120.198 82.2818 120.325 82.5985C120.451 82.9061 120.515 83.2725 120.515 83.6978V87.8372H119.293V84.0371C119.293 83.7385 119.252 83.4852 119.171 83.2771C119.09 83.0599 118.981 82.888 118.845 82.7613C118.71 82.6256 118.551 82.5306 118.37 82.4763C118.198 82.413 118.017 82.3813 117.827 82.3813C117.574 82.3813 117.339 82.422 117.122 82.5035C116.905 82.5849 116.715 82.7161 116.552 82.8971C116.389 83.069 116.262 83.2906 116.172 83.5621C116.081 83.8335 116.036 84.1547 116.036 84.5257V87.8372H114.815V81.4042ZM126.717 78.2284H130.096C130.711 78.2284 131.218 78.3143 131.616 78.4863C132.014 78.6491 132.326 78.8617 132.553 79.1241C132.788 79.3775 132.951 79.667 133.041 79.9927C133.132 80.3094 133.177 80.617 133.177 80.9156C133.177 81.2232 133.123 81.5218 133.014 81.8113C132.905 82.0918 132.747 82.3497 132.539 82.5849C132.34 82.8111 132.091 83.0056 131.793 83.1685C131.503 83.3223 131.177 83.4173 130.815 83.4535L133.543 87.8372H131.915L129.472 83.6028H128.02V87.8372H126.717V78.2284ZM128.02 82.4628H129.73C129.983 82.4628 130.232 82.4447 130.476 82.4085C130.729 82.3632 130.951 82.2863 131.141 82.1778C131.34 82.0692 131.498 81.9154 131.616 81.7163C131.734 81.5082 131.793 81.2413 131.793 80.9156C131.793 80.5899 131.734 80.3275 131.616 80.1284C131.498 79.9203 131.34 79.762 131.141 79.6534C130.951 79.5448 130.729 79.4725 130.476 79.4363C130.232 79.391 129.983 79.3684 129.73 79.3684H128.02V82.4628ZM135.76 85.0685C135.76 85.349 135.819 85.6069 135.936 85.8421C136.063 86.0683 136.226 86.2628 136.425 86.4257C136.624 86.5886 136.855 86.7152 137.117 86.8057C137.379 86.8962 137.651 86.9414 137.931 86.9414C138.311 86.9414 138.642 86.8555 138.922 86.6836C139.203 86.5026 139.46 86.2674 139.696 85.9778L140.619 86.6836C139.94 87.5612 138.99 88 137.769 88C137.262 88 136.8 87.9141 136.384 87.7422C135.977 87.5702 135.629 87.335 135.339 87.0364C135.059 86.7288 134.842 86.3714 134.688 85.9643C134.534 85.5481 134.457 85.1002 134.457 84.6207C134.457 84.1411 134.538 83.6978 134.701 83.2906C134.873 82.8744 135.104 82.517 135.393 82.2185C135.692 81.9108 136.045 81.6711 136.452 81.4992C136.859 81.3273 137.303 81.2413 137.782 81.2413C138.352 81.2413 138.832 81.3408 139.221 81.5399C139.619 81.7389 139.945 82.0013 140.198 82.327C140.451 82.6437 140.632 83.0056 140.741 83.4128C140.858 83.8109 140.917 84.218 140.917 84.6342V85.0685H135.76ZM139.614 84.0914C139.605 83.8199 139.56 83.5711 139.479 83.3449C139.406 83.1187 139.293 82.9242 139.139 82.7613C138.985 82.5894 138.791 82.4582 138.556 82.3678C138.329 82.2682 138.063 82.2185 137.755 82.2185C137.456 82.2185 137.18 82.2773 136.927 82.3949C136.683 82.5035 136.475 82.6482 136.303 82.8292C136.131 83.0102 135.995 83.2137 135.896 83.4399C135.805 83.6571 135.76 83.8742 135.76 84.0914H139.614ZM142.514 81.4042H143.736V82.3949H143.763C143.916 82.0511 144.183 81.7751 144.563 81.567C144.943 81.3499 145.382 81.2413 145.88 81.2413C146.187 81.2413 146.482 81.2911 146.762 81.3906C147.052 81.4811 147.3 81.6258 147.508 81.8249C147.726 82.0239 147.898 82.2818 148.024 82.5985C148.151 82.9061 148.214 83.2725 148.214 83.6978V87.8372H146.993V84.0371C146.993 83.7385 146.952 83.4852 146.871 83.2771C146.789 83.0599 146.681 82.888 146.545 82.7613C146.409 82.6256 146.251 82.5306 146.07 82.4763C145.898 82.413 145.717 82.3813 145.527 82.3813C145.274 82.3813 145.038 82.422 144.821 82.5035C144.604 82.5849 144.414 82.7161 144.251 82.8971C144.088 83.069 143.962 83.2906 143.871 83.5621C143.781 83.8335 143.736 84.1547 143.736 84.5257V87.8372H142.514V81.4042ZM153.638 82.4628H151.888V85.3807C151.888 85.5616 151.892 85.7426 151.901 85.9235C151.91 86.0955 151.942 86.2538 151.996 86.3986C152.059 86.5343 152.15 86.6474 152.268 86.7378C152.394 86.8193 152.575 86.86 152.81 86.86C152.955 86.86 153.104 86.8464 153.258 86.8193C153.412 86.7921 153.552 86.7424 153.679 86.67V87.7829C153.534 87.8643 153.344 87.9186 153.109 87.9457C152.883 87.9819 152.706 88 152.58 88C152.109 88 151.743 87.9367 151.48 87.81C151.227 87.6743 151.037 87.5024 150.91 87.2943C150.793 87.0862 150.72 86.8555 150.693 86.6021C150.675 86.3397 150.666 86.0774 150.666 85.815V82.4628H149.255V81.4042H150.666V79.5991H151.888V81.4042H153.638V82.4628ZM155.377 82.1913C155.721 81.8747 156.119 81.6394 156.571 81.4856C157.024 81.3227 157.476 81.2413 157.929 81.2413C158.399 81.2413 158.802 81.3001 159.136 81.4177C159.48 81.5354 159.761 81.6937 159.978 81.8927C160.195 82.0918 160.353 82.3225 160.453 82.5849C160.561 82.8382 160.616 83.1052 160.616 83.3856V86.67C160.616 86.8962 160.62 87.1043 160.629 87.2943C160.638 87.4843 160.652 87.6652 160.67 87.8372H159.584C159.557 87.5114 159.544 87.1857 159.544 86.86H159.516C159.245 87.2762 158.924 87.5702 158.553 87.7422C158.182 87.9141 157.752 88 157.264 88C156.965 88 156.68 87.9593 156.409 87.8779C156.137 87.7964 155.897 87.6743 155.689 87.5114C155.49 87.3486 155.332 87.1495 155.214 86.9143C155.097 86.67 155.038 86.3895 155.038 86.0728C155.038 85.6566 155.128 85.3083 155.309 85.0278C155.499 84.7473 155.753 84.5211 156.069 84.3492C156.395 84.1683 156.77 84.0416 157.196 83.9692C157.63 83.8878 158.091 83.8471 158.58 83.8471H159.476V83.5756C159.476 83.4128 159.444 83.2499 159.381 83.0871C159.317 82.9242 159.222 82.7794 159.096 82.6528C158.969 82.517 158.811 82.413 158.621 82.3406C158.431 82.2592 158.205 82.2185 157.942 82.2185C157.707 82.2185 157.499 82.2411 157.318 82.2863C157.146 82.3316 156.988 82.3904 156.843 82.4628C156.698 82.5261 156.567 82.603 156.449 82.6935C156.332 82.784 156.219 82.8699 156.11 82.9513L155.377 82.1913ZM158.824 84.7428C158.535 84.7428 158.236 84.7609 157.929 84.7971C157.63 84.8242 157.354 84.883 157.101 84.9735C156.856 85.064 156.653 85.1907 156.49 85.3535C156.336 85.5164 156.259 85.7245 156.259 85.9778C156.259 86.3488 156.381 86.6157 156.626 86.7786C156.879 86.9414 157.218 87.0229 157.644 87.0229C157.978 87.0229 158.263 86.9686 158.499 86.86C158.734 86.7424 158.924 86.5931 159.069 86.4121C159.213 86.2312 159.317 86.0321 159.381 85.815C159.444 85.5888 159.476 85.3671 159.476 85.15V84.7428H158.824ZM162.618 77.5769H163.84V87.8372H162.618V77.5769ZM169.34 83.0192C169.195 82.8382 169.014 82.689 168.797 82.5713C168.589 82.4447 168.331 82.3813 168.023 82.3813C167.734 82.3813 167.48 82.4447 167.263 82.5713C167.055 82.689 166.951 82.8654 166.951 83.1006C166.951 83.2906 167.01 83.4444 167.127 83.5621C167.254 83.6797 167.399 83.7747 167.562 83.8471C167.734 83.9195 167.914 83.9737 168.104 84.0099C168.294 84.0461 168.457 84.0778 168.593 84.1049C168.855 84.1683 169.1 84.2452 169.326 84.3357C169.561 84.4261 169.76 84.5438 169.923 84.6885C170.095 84.8333 170.226 85.0097 170.317 85.2178C170.416 85.4259 170.466 85.6793 170.466 85.9778C170.466 86.3397 170.389 86.6519 170.235 86.9143C170.081 87.1676 169.882 87.3757 169.638 87.5386C169.394 87.7014 169.113 87.8191 168.797 87.8914C168.489 87.9638 168.177 88 167.86 88C167.326 88 166.856 87.9186 166.449 87.7557C166.051 87.5929 165.693 87.2943 165.377 86.86L166.299 86.1C166.499 86.299 166.72 86.4755 166.964 86.6293C167.209 86.7831 167.507 86.86 167.86 86.86C168.014 86.86 168.168 86.8464 168.322 86.8193C168.484 86.7831 168.625 86.7333 168.742 86.67C168.869 86.5976 168.969 86.5117 169.041 86.4121C169.122 86.3036 169.163 86.1814 169.163 86.0457C169.163 85.8647 169.104 85.7154 168.987 85.5978C168.878 85.4802 168.742 85.3897 168.579 85.3264C168.426 85.254 168.258 85.1997 168.077 85.1635C167.905 85.1183 167.752 85.0821 167.616 85.055C167.354 84.9916 167.105 84.9192 166.869 84.8378C166.634 84.7564 166.426 84.6478 166.245 84.5121C166.064 84.3764 165.919 84.2045 165.811 83.9964C165.702 83.7883 165.648 83.5304 165.648 83.2228C165.648 82.888 165.716 82.5985 165.852 82.3542C165.996 82.1008 166.182 81.8927 166.408 81.7299C166.643 81.567 166.906 81.4449 167.195 81.3635C167.494 81.282 167.792 81.2413 168.091 81.2413C168.525 81.2413 168.941 81.3227 169.34 81.4856C169.738 81.6485 170.054 81.9199 170.29 82.2999L169.34 83.0192Z" fill="#595959"/>
</svg>
